SplineFontDB: 3.0
FontName: LinBiolinumOI
FullName: Linux Biolinum O Italic
FamilyName: Linux Biolinum O
Weight: Book
Copyright: Linux Libertine by Philipp H. Poll,\nOpen Font under Terms of following Free Software Licenses:\nGPL (General Public License) with font-exception and OFL (Open Font License).\nCreated with FontForge (http://fontforge.sf.net)\nSept 2003, 2004, 2005, 2006, 2007, 2008, 2009
UComments: "2003-08-29: Created.+AAoA-2004-07-25: v(1.0) release candidate+AAoA-2005-12-28: v(1.1.0) stable+AAoA-2006-01-01: v(2.0.0) stable+AAoA-2006-09-05: v(2.2.0) stable+AAoA-2006-12-04: v(2.3.0) stable+AAoA-2007-03-11: v(2.4.0) stable+AAoA-2007-12-00: v(2.7.0) stable+AAoA-2008-06-00: v(2.8.14) stable+AAoA" 
Version: 0.4.8
ItalicAngle: -12
UnderlinePosition: -98
UnderlineWidth: 40
Ascent: 754
Descent: 246
LayerCount: 2
Layer: 0 0 "Back"  0
Layer: 1 0 "Fore"  0
NeedsXUIDChange: 1
XUID: [1021 993 1524925707 2876416]
FSType: 0
OS2Version: 0
OS2_WeightWidthSlopeOnly: 0
OS2_UseTypoMetrics: 0
CreationTime: 1156455862
ModificationTime: 1257672817
PfmFamily: 17
TTFWeight: 400
TTFWidth: 5
LineGap: 0
VLineGap: 0
OS2TypoAscent: 894
OS2TypoAOffset: 0
OS2TypoDescent: -246
OS2TypoDOffset: 0
OS2TypoLinegap: 0
OS2WinAscent: 894
OS2WinAOffset: 0
OS2WinDescent: 246
OS2WinDOffset: 0
HheadAscent: 894
HheadAOffset: 0
HheadDescent: -246
HheadDOffset: 0
OS2FamilyClass: 261
OS2Vendor: 'PfEd'
Lookup: 3 0 0 "'aalt' Alle Alternativen zeigen"  {"'aalt' Alle Alternativen zeigen 1"  } ['aalt' ('DFLT' <'dflt' > 'cyrl' <'dflt' > 'grek' <'dflt' > 'latn' <'AZE ' 'CRT ' 'DEU ' 'MOL ' 'ROM ' 'TRK ' 'dflt' > ) ]
Lookup: 1 0 0 "'locl' Localized Forms Romaenisch"  {"'locl' Localized Forms Romaenisch 1"  } ['locl' ('latn' <'MOL ' 'ROM ' > ) ]
Lookup: 1 0 0 "'smcp' Gemeine nach Kapitaelchen i > i.sc"  {"'smcp' Gemeine nach Kapitaelchen i > i.sc 1"  } ['smcp' ('DFLT' <'dflt' > 'cyrl' <'dflt' > 'grek' <'dflt' > 'latn' <'DEU ' 'MOL ' 'ROM ' 'dflt' > ) ]

StartChar: exclam
Encoding: 33 33 0
Width: 228
VWidth: 999
Flags: HW
HStem: -10 112<93.2029 155.087> 638 20G<241.862 266.362>
VStem: 142.1 29.5<190.482 260.216>
DStem2: 67.2031 48 179.203 48 0.211368 0.977407<-23.9395 41.049 409.106 615.177>
LayerCount: 2
Fore
SplineSet
66.4 44 m 1
 67.2 48 l 1
 82.1 74.5 99.8 89.8 132.7 102 c 1
 136.7 102 l 1
 163.5 91.5 176 76.2 179.2 48 c 1
 178.4 44 l 1
 161.3 11.8 142.6 -3 112.9 -10 c 1
 108.9 -10 l 1
 79.1 -3 68 10.5 66.4 44 c 1
252.9 658 m 0
 279.9 658 303.9 635 293.3 585 c 0
 279.5 520 254.7 477.9 226.3 392 c 0
 190.5 283.9 176.6 224 171.6 210 c 0
 168.3 199 163.4 190 153.4 190 c 0
 142.4 190 141.8 197 142.1 203 c 0
 144.6 224 158.7 314 167.3 392 c 0
 177 480 168.4 515 183.3 585 c 0
 194.8 639 230.9 658 252.9 658 c 0
EndSplineSet
Colour: ff80cc
EndChar

StartChar: quotedbl
Encoding: 34 34 1
Width: 336
VWidth: 999
Flags: HW
HStem: 426 218
VStem: 179.5 27.9<430 462.17> 189.3 89.6<554.435 627.25> 305.8 27.9<431 463.17> 315.5 89.6<555.435 628.25>
LayerCount: 2
Fore
SplineSet
179.5 426 m 1
 179.5 426 187.4 585 189.3 594 c 0
 194 616 220.9 644 250.9 644 c 0
 276.9 644 282.3 627 278.9 611 c 0
 275.5 595 207.4 430 207.4 430 c 1
 179.5 426 l 1
305.8 427 m 1
 305.8 427 313.6 586 315.5 595 c 0
 320.2 617 347.1 645 377.1 645 c 0
 403.1 645 408.5 628 405.1 612 c 0
 401.7 596 333.7 431 333.7 431 c 1
 305.8 427 l 1
EndSplineSet
Colour: ff00ff
EndChar

StartChar: numbersign
Encoding: 35 35 2
Width: 440
VWidth: 487
Flags: HW
HStem: 183 48<81.1006 153.897 205.101 296.897 348.101 420.897> 341 49<140.897 212.481 263.897 356.481 406.897 479.481>
DStem2: 90.7637 13 123.764 13 0.349836 0.936811<11.5446 181.344 244.224 349.855 413.746 583.546> 234.764 13 267.764 13 0.346824 0.93793<11.4452 180.998 243.777 349.856 413.3 583.199>
LayerCount: 2
Fore
SplineSet
389.5 341 m 1
 348.1 231 l 1
 438.1 231 l 1
 420.9 183 l 1
 331.9 183 l 1
 267.8 13 l 1
 234.8 13 l 1
 296.9 183 l 1
 187.9 183 l 1
 123.8 13 l 1
 90.8 13 l 1
 153.9 183 l 1
 63.9 183 l 1
 81.1 231 l 1
 172.1 231 l 1
 212.5 341 l 1
 122.5 341 l 1
 140.9 390 l 1
 230.9 390 l 1
 294 560 l 1
 328 560 l 1
 263.9 390 l 1
 374.9 390 l 1
 437 560 l 1
 470 560 l 1
 406.9 390 l 1
 497.9 390 l 1
 479.5 341 l 1
 389.5 341 l 1
316.1 231 m 1
 356.5 341 l 1
 246.5 341 l 1
 205.1 231 l 1
 316.1 231 l 1
EndSplineSet
EndChar

StartChar: dollar
Encoding: 36 36 3
Width: 440
VWidth: 999
Flags: HW
HStem: -10 38<135.798 275.362> 537 35<258.278 378.882>
VStem: 424.8 43.9<483.94 496.704>
LayerCount: 2
Back
SplineSet
92 12 m 0
 76 12 79 1 58 1 c 1x6e
 58 38 50 90 42 146 c 1
 68 149 l 1
 85 83 136 23 214 23 c 0
 251 23 328 42 328 127 c 0xb6
 328 229 237 247 203 262 c 0
 144 288 46 333 46 434 c 0
 46 528 147 572 215 572 c 0
 272 572 307 564 348 564 c 1
 351 519 360 470 368 421 c 1
 342 417 l 1xad
 337 435 l 2
 315 507 281 542 215 542 c 0
 161 542 110 504 110 438 c 0
 110 379 188 344 225 330 c 0
 279 310 400 262 400 156 c 0
 400 122 391 -10 214 -10 c 0xae
 149 -10 113 12 92 12 c 0
46.875 578.125 m 25
 347.168 578.125 l 25
0 572.012 m 1
 438.965 572.012 l 1
 438.965 0 l 1
 0 0 l 1
 0 572.012 l 1
EndSplineSet
Fore
SplineSet
283.8 243.7 m 1
 238.7 31.6 l 1
 286.8 41.8 331.7 74.2 343.8 131 c 0
 358.3 199.2 325.3 224.3 283.8 243.7 c 1
270.4 340.7 m 1
 312.1 536.9 l 1
 258 534.3 216.5 496.1 205.6 445 c 0
 193.6 388.7 235.3 358.1 270.4 340.7 c 1
204 28 m 1
 252.7 257.5 l 1
 184.8 288.2 117.3 330.6 136.7 422 c 0
 155.1 508.4 245.5 564.9 319.4 571.4 c 1
 331.3 627 l 1
 365.3 627 l 1
 353.5 571.5 l 1
 443.1 567 467.3 533 467.3 533 c 1
 468.7 530 l 1
 455.2 504 443.6 478 434 447 c 1
 424.8 446 l 1
 414.2 491.5 390.5 524.9 345.6 534.3 c 1
 301.5 327.2 l 1
 368 301.1 445.4 260.7 424.4 162 c 0
 408.1 85.3 319.1 13 230.8 -5.5 c 1
 214.8 -81 l 1
 180.8 -81 l 1
 195.9 -9.9 l 1
 193.5 -10 191.2 -10 188.9 -10 c 0
 82.9 -10 40.4 30 40.4 30 c 1
 39 33 l 1
 51.5 59 64.5 87 75.1 118 c 1
 83.3 119 l 1
 96.8 65.3 141.5 28.4 204 28 c 1
EndSplineSet
EndChar

StartChar: percent
Encoding: 37 37 4
Width: 637
VWidth: 999
Flags: HW
HStem: -12 29<454.086 519.531> 225 31<532.396 599.145> 303 29<199.133 262.986> 484 37<387.995 572.321> 540 31<277.724 344.8>
DStem2: 102.638 3 133.449 -12 0.682124 0.731237<10.0487 682.996 722.277 782.236>
LayerCount: 2
Back
SplineSet
357.494 492.437 m 4
 360.602 492.437 361.489 492.881 362.821 492.881 c 4
 390.786 491.548 465.804 496.875 506.641 541.265 c 5
 524.399 518.628 l 5
 479.121 468.911 424.078 466.691 364.597 461.809 c 6
 357.494 461.365 l 6
 320.207 461.365 264.721 487.998 248.74 499.985 c 5
 263.39 521.733 l 5
 263.39 521.733 309.11 492.437 357.494 492.437 c 4
460.921 37.0049 m 4
 474.238 31.6777 487.999 35.2285 503.979 45.8828 c 4
 523.511 57.8672 534.609 80.5059 543.931 106.252 c 4
 553.252 130.666 558.135 156.411 555.913 179.05 c 4
 553.696 199.469 545.703 213.674 528.394 220.775 c 4
 527.949 221.22 l 4
 510.64 227.878 493.77 219.443 481.34 208.347 c 4
 464.028 193.254 454.263 175.942 445.385 153.748 c 4
 434.288 126.67 429.849 100.925 433.844 76.9551 c 4
 437.395 56.5352 445.829 43.2188 460.921 37.0049 c 4
579.438 200.801 m 4
 589.204 172.836 582.993 134.66 570.117 98.2617 c 4
 557.246 64.082 535.493 34.3408 510.64 20.1367 c 4
 481.784 3.71289 454.263 6.37598 433.844 16.1416 c 4
 412.537 26.7949 402.327 40.1123 392.118 68.9648 c 4
 383.24 93.8223 382.796 129.777 397.001 163.514 c 4
 410.762 198.137 432.068 224.326 461.809 240.751 c 4
 485.779 253.18 511.968 256.287 540.376 245.189 c 4
 566.567 234.536 570.117 228.766 579.438 200.801 c 4
546.592 542.153 m 5
 166.621 12.1465 l 5
 126.227 12.1465 l 5
 507.085 542.153 l 5
 546.592 542.153 l 5
168.396 323.759 m 4
 181.713 317.988 195.474 321.982 211.454 332.192 c 4
 230.985 344.621 242.083 366.816 251.848 393.006 c 4
 260.726 416.977 265.608 443.166 263.39 465.805 c 4
 261.17 486.223 253.18 500.43 235.868 507.529 c 4
 235.424 507.529 l 4
 218.112 514.189 201.244 505.757 188.815 495.103 c 4
 171.504 479.564 161.738 462.697 152.86 440.059 c 4
 141.763 412.98 137.324 387.68 141.318 363.266 c 4
 144.87 343.29 153.305 329.529 168.396 323.759 c 4
286.916 487.111 m 4
 296.682 459.146 290.467 420.971 277.594 384.572 c 4
 264.721 350.393 243.414 321.096 218.112 306.447 c 4
 189.259 290.023 161.738 293.13 141.763 302.451 c 4
 120.013 313.105 109.803 326.865 99.5928 355.275 c 4
 90.7158 380.133 90.7158 416.088 104.476 450.268 c 4
 118.236 484.892 139.544 510.64 169.284 527.061 c 4
 193.255 539.937 219.443 543.042 247.853 531.943 c 4
 274.043 520.845 277.594 515.078 286.916 487.111 c 4
EndSplineSet
Fore
SplineSet
194.6 398 m 0
 183.5 346 207.6 332 225.6 332 c 0
 280.6 332 335.5 421 347.8 479 c 0
 358.4 529 333.8 540 315.8 540 c 0
 266.8 540 206.9 456 194.6 398 c 0
474.7 521 m 0
 516.7 521 596.3 533 636.2 575 c 1
 664.8 559 l 1
 133.4 -12 l 1
 102.6 3 l 1
 567.9 503 l 1
 526.7 488 486.9 484 456.9 484 c 0
 433.9 484 398 494 381.3 505 c 1
 381.8 498 380.9 489 379 480 c 0
 365.4 416 297.4 303 213.4 303 c 0
 151.4 303 135.8 361 146.6 412 c 0
 163 489 239.4 571 311.4 571 c 0
 339.4 571 365.6 558 373.1 546 c 1
 421.8 521 456.7 521 474.7 521 c 0
400.8 98 m 0
 416.7 173 492.4 256 566.4 256 c 0
 606.4 256 648.6 238 633.1 165 c 0
 618.9 98 551.4 -12 468.4 -12 c 0
 407.4 -12 389.5 45 400.8 98 c 0
449.6 83 m 0
 438.5 31 461.6 17 480.6 17 c 0
 535.6 17 591 108 602.9 164 c 0
 614 216 584.8 225 570.8 225 c 0
 521.8 225 461.9 141 449.6 83 c 0
EndSplineSet
EndChar

StartChar: parenleft
Encoding: 40 40 5
Width: 300
VWidth: 999
Flags: HW
LayerCount: 2
Back
SplineSet
101.562 -0.488281 m 4
 64.4531 81.0547 43.9453 164.551 43.9453 251.953 c 4
 43.9453 342.773 62.9883 424.805 102.051 503.418 c 4
 124.023 548.828 168.945 632.324 256.348 707.031 c 5
 273.926 689.453 l 5
 203.613 610.352 173.828 533.203 160.156 491.699 c 4
 134.277 416.504 121.582 337.891 121.582 251.953 c 4
 121.582 166.504 133.789 85.9375 160.156 10.7422 c 4
 174.316 -31.7383 203.613 -108.398 273.926 -187.012 c 5
 256.348 -203.613 l 5
 188.477 -145.02 138.184 -79.5898 101.562 -0.488281 c 4
EndSplineSet
Fore
SplineSet
97.6 252 m 0
 137.2 438 265.6 605 406.3 707 c 1
 425.5 689 l 1
 385.8 653 236.5 515 180.6 252 c 0
 124.7 -11 214.4 -149 239.3 -187 c 1
 212.6 -204 l 1
 42.9 -24 88 207 97.6 252 c 0
EndSplineSet
Substitution2: "'c2sc' Versale nach Kapitaelchen 1" parenleft.sc
AlternateSubs2: "'aalt' Alle Alternativen zeigen 1" parenleft.sc
Substitution2: "'sinf' Wissenschaftliche Indices 1" parenleft.inferior
Substitution2: "'sups' Hochgestellte 1" parenleft.superior
Substitution2: "'case' Versalformen 1" parenleft.sc
EndChar

StartChar: parenright
Encoding: 41 41 6
Width: 300
VWidth: 999
Flags: HW
LayerCount: 2
Fore
SplineSet
309.6 252 m 0
 270 66 141.6 -101 0.9 -203 c 1
 -18.3 -185 l 1
 21.4 -149 170.7 -11 226.6 252 c 0
 282.5 515 192.8 653 167.9 691 c 1
 194.5 708 l 1
 364.2 528 319.2 297 309.6 252 c 0
EndSplineSet
Substitution2: "'c2sc' Versale nach Kapitaelchen 1" parenright.sc
AlternateSubs2: "'aalt' Alle Alternativen zeigen 1" parenright.sc
Substitution2: "'sinf' Wissenschaftliche Indices 1" parenright.inferior
Substitution2: "'sups' Hochgestellte 1" parenright.superior
Substitution2: "'case' Versalformen 1" parenright.sc
Colour: ff00ff
EndChar

StartChar: asterisk
Encoding: 42 42 7
Width: 433
VWidth: 999
Flags: HMW
LayerCount: 2
Back
SplineSet
155.273 557.129 m 4
 123.535 558.105 102.051 560.547 92.2852 566.406 c 4
 82.0312 572.266 76.6602 580.078 75.1953 588.867 c 4
 74.707 591.309 74.707 592.773 74.707 594.727 c 4
 74.707 600.586 76.1719 605.957 79.5898 610.84 c 4
 84.9609 619.141 91.7969 622.07 99.1211 623.535 c 4
 102.539 624.512 104.98 624.512 107.91 624.512 c 4
 114.258 624.512 119.629 623.535 125 621.582 c 4
 135.254 618.164 149.902 607.91 167.969 594.238 c 4
 180.176 584.473 192.383 578.125 204.102 573.242 c 5
 202.637 587.891 199.219 601.562 194.824 613.77 c 4
 186.035 637.207 181.641 653.32 181.152 663.086 c 4
 181.152 663.086 181.152 664.062 181.152 664.551 c 4
 181.152 673.828 183.105 681.641 187.012 688.477 c 4
 191.406 696.289 197.266 700.684 205.078 703.125 c 4
 208.496 704.102 210.938 704.59 213.867 704.102 c 4
 219.238 704.102 223.145 703.125 227.539 700.684 c 4
 236.816 695.312 241.699 687.012 243.652 677.734 c 4
 244.141 674.805 244.141 672.363 244.141 669.434 c 4
 244.141 656.25 239.746 637.207 233.398 614.746 c 4
 229.004 598.633 225.586 584.473 224.609 572.754 c 5
 238.281 578.613 250 585.449 260.742 593.75 c 4
 280.273 608.887 294.434 618.164 303.223 621.094 c 4
 309.57 623.535 314.941 624.023 320.312 624.023 c 4
 323.73 624.023 326.172 624.023 329.102 623.047 c 4
 338.379 621.582 344.238 617.188 348.633 610.352 c 4
 352.051 604.98 353.516 600.098 353.516 594.238 c 4
 353.516 591.797 353.516 590.332 353.027 588.379 c 4
 351.074 578.613 345.215 571.289 335.938 565.918 c 4
 324.707 559.57 300.781 557.617 272.949 557.129 c 4
 256.348 556.641 242.188 555.176 230.469 553.223 c 5
 240.723 541.992 251.465 533.203 262.207 526.367 c 4
 282.715 513.184 296.387 502.93 302.246 495.605 c 4
 308.594 487.793 312.012 479.98 312.988 471.68 c 4
 313.477 469.727 313.477 468.262 313.477 466.797 c 4
 313.477 459.473 311.523 454.102 307.617 449.219 c 4
 302.734 442.383 296.387 438.477 288.574 437.5 c 4
 286.621 437.012 285.645 437.012 284.18 437.012 c 4
 274.902 437.012 267.578 440.918 261.719 446.289 c 4
 251.953 454.59 241.699 475.586 231.934 501.953 c 4
 225.586 518.555 219.727 531.25 213.379 541.504 c 5
 207.031 530.273 201.172 517.578 195.312 501.953 c 4
 184.082 472.656 174.316 453.125 165.527 446.289 c 4
 158.203 439.941 150.879 437.012 143.066 437.012 c 4
 141.113 437.012 140.137 437.012 138.672 437.5 c 4
 129.395 438.965 124.023 442.871 119.141 449.219 c 4
 115.234 455.078 113.281 460.449 113.77 466.797 c 4
 113.77 468.75 113.77 470.215 113.77 471.68 c 4
 115.234 480.469 119.141 488.281 124.512 495.605 c 4
 131.348 503.906 146.484 514.648 165.039 526.367 c 4
 178.711 534.668 189.453 543.945 198.242 553.711 c 5
 185.059 556.152 170.41 557.129 155.273 557.129 c 4
EndSplineSet
Fore
SplineSet
318.5 567 m 1
 306.1 570 292.4 571 277.4 571 c 0
 228.4 571 197.8 578 204.2 608 c 0
 207.2 622 219.6 638 243.6 638 c 0
 277.6 638 288.6 605 328.8 587 c 1
 333.1 626 319.8 653 325.3 679 c 0
 329.8 700 345.6 718 363.6 718 c 0
 381.6 718 394.3 707 389.2 683 c 0
 383.5 656 358 616 349.6 586 c 1
 399.9 606 422.6 638 455.6 638 c 0
 482.6 638 485.3 618 483.2 608 c 0
 476.8 578 440.4 571 406.4 571 c 0
 387.4 571 369.1 570 350.5 567 c 1
 376.6 530 423.5 520 415 480 c 0
 411.2 462 393.9 451 379.9 451 c 0
 340.9 451 347.7 516 331 555 c 1
 296.4 510 276.9 451 238.9 451 c 0
 221.9 451 212.6 464 215.8 479 c 0
 224.9 522 277.6 530 318.5 567 c 1
EndSplineSet
EndChar

StartChar: plus
Encoding: 43 43 8
Width: 527
VWidth: 999
Flags: HMW
HStem: 208 49<66 238 289 461>
VStem: 238 51<34 208 257 431>
LayerCount: 2
Back
SplineSet
-58 257 m 29
 565 257 l 29
0 572 m 5
 527 572 l 5
 527 0 l 5
 0 0 l 5
 0 572 l 5
EndSplineSet
Fore
SplineSet
343.6 257 m 1
 515.6 257 l 1
 505.2 208 l 1
 333.2 208 l 1
 296.2 34 l 1
 245.2 34 l 1
 282.2 208 l 1
 110.2 208 l 1
 120.6 257 l 1
 292.6 257 l 1
 329.6 431 l 1
 380.6 431 l 1
 343.6 257 l 1
EndSplineSet
AlternateSubs2: "'aalt' Alle Alternativen zeigen 1" plus.superior plus.inferior uni2098
Substitution2: "'sinf' Wissenschaftliche Indices 1" plus.inferior
Substitution2: "'sups' Hochgestellte 1" plus.superior
EndChar

StartChar: slash
Encoding: 47 47 9
Width: 323
VWidth: 999
Flags: HW
HStem: 626 20G<245.277 293>
VStem: 15 278
DStem2: 15 -59 56 -59 0.318647 0.947874<13.0645 743.77>
LayerCount: 2
Back
SplineSet
267.97 661.299 m 1
 50.0186 17.6553 l 1
 14.5068 17.6553 l 1
 232.458 661.299 l 1
 267.97 661.299 l 1
EndSplineSet
Fore
SplineSet
430.3 646 m 1
 43.5 -59 l 1
 2.5 -59 l 1
 389.3 646 l 1
 430.3 646 l 1
EndSplineSet
Ligature2: "'frac' Brueche 1" uni2215
AlternateSubs2: "'aalt' Alle Alternativen zeigen 1" uni2215
EndChar

StartChar: one
Encoding: 49 49 10
Width: 440
VWidth: 999
Flags: HW
HStem: -3 21G<230 277 277 323> 476 31<117.548 168.818> 558 20G<285 317.75>
VStem: 238 77<2.61911 480.813>
LayerCount: 2
Back
SplineSet
46.875 578.125 m 25
 347.168 578.125 l 25
0 572.012 m 1
 438.965 572.012 l 1
 438.965 0 l 1
 0 0 l 1
 0 572.012 l 1
EndSplineSet
Fore
SplineSet
353 179 m 2
 337 103.8 327.9 56 323 0 c 1
 320.4 -3 l 1
 320.4 -3 295.2 0 277 0 c 0
 259.9 0 230.4 -3 230.4 -3 c 1
 230 0 l 1
 247.5 54 260.3 105 276 179 c 2
 325.1 410 l 2
 332.3 444 340 482 323.5 482 c 0
 304.5 482 262.1 480 219.2 476 c 1
 223.8 507 l 1
 316.1 527 372.6 558 438.9 578 c 1
 442.4 578 444.8 577.8 443.8 573 c 0
 439.4 560 425.8 521 404.1 419 c 2
 353 179 l 2
EndSplineSet
AlternateSubs2: "'aalt' Alle Alternativen zeigen 1" one.oldstyle one.superior one.fitted
Substitution2: "'sups' Hochgestellte 1" one.superior
Substitution2: "'sinf' Wissenschaftliche Indices 1" one.inferior
Substitution2: "'pnum' Proportionalziffern 1" one.fitted
Substitution2: "'onum' Minuskelziffern 1" one.taboldstyle
EndChar

StartChar: two
Encoding: 50 50 11
Width: 440
VWidth: 487
Flags: HW
HStem: -4 79<145 388.969> 537 41<139.822 261.852>
VStem: 304 86<342.923 495.896>
DStem2: 158 194 209 176 0.718358 0.695673<-79.712 211.062>
LayerCount: 2
Back
SplineSet
46.875 578.125 m 25
 347.168 578.125 l 25
0 572.012 m 1
 438.965 572.012 l 5
 438.965 0 l 1
 0 0 l 1
 0 572.012 l 1
EndSplineSet
Fore
SplineSet
319.1 537 m 0
 273.1 537 225.8 512 182.9 456 c 1
 170.1 457 l 1
 164 522 l 1
 167.8 526 l 1
 196.3 547 267.9 578 335.9 578 c 0
 448.9 578 502.9 531 481.2 429 c 0
 465.9 357 425.9 320.1 361 268 c 2
 246.4 176 l 2
 199.4 138.2 164.1 90 160.9 75 c 1
 248.9 75 l 2
 343.9 75 355.7 79 411.6 83 c 1
 406 71 398.2 43 395.6 31 c 0
 393.1 19 392.7 8 393.1 -4 c 1
 322.7 -1 315 0 244 0 c 0
 172 0 123.5 -2 47.1 -4 c 1
 47 0 l 1
 58.9 56 86 99 199.2 194 c 1
 283.9 263 l 1
 352 320 378.4 350 395.4 430 c 0
 412.2 509 353.1 537 319.1 537 c 0
EndSplineSet
AlternateSubs2: "'aalt' Alle Alternativen zeigen 1" two.oldstyle two.superior two.fitted
Substitution2: "'sups' Hochgestellte 1" two.superior
Substitution2: "'sinf' Wissenschaftliche Indices 1" two.inferior
Substitution2: "'pnum' Proportionalziffern 1" two.fitted
Substitution2: "'onum' Minuskelziffern 1" two.taboldstyle
EndChar

StartChar: three
Encoding: 51 51 12
Width: 440
VWidth: 487
Flags: HW
HStem: -10 39<118.252 250.357> 287 33<145 181.572> 539 39<141.07 253.816>
VStem: 289 81<371.344 504.643> 306 88<86.5251 235.281>
LayerCount: 2
Back
SplineSet
46.875 578.125 m 29
 347.168 578.125 l 29
0 572.012 m 1
 438.965 572.012 l 1
 438.965 0 l 1
 0 0 l 1
 0 572.012 l 1
EndSplineSet
Fore
SplineSet
189.2 29 m 0
 118.1 29 113.2 67 94.1 123 c 1
 80.9 122 l 1
 45 47 l 1
 47.1 43 l 1
 66.6 22 106.9 -10 178.9 -10 c 0
 277.9 -10 403.8 46.4 430.3 171 c 0
 446.3 246.1 408.2 302 339.7 309 c 1
 340.3 312 l 1
 406.1 330 450.3 377.8 467.1 457 c 0
 481.2 523.2 416 578 335.9 578 c 0
 263.9 578 198.1 546 169.6 525 c 1
 165.7 521 l 1
 169.8 446 l 1
 182.6 445 l 1
 225.5 501 251.6 539 318.6 539 c 0
 355.7 539 396.2 504 383 442 c 0
 367.1 367 306.1 325 213 320 c 1
 206 287 l 1
 217.4 289 234.4 289 243.4 289 c 0
 297.4 289 358.3 246 341.7 168 c 0
 315.3 44 222.2 29 189.2 29 c 0
EndSplineSet
AlternateSubs2: "'aalt' Alle Alternativen zeigen 1" three.oldstyle three.superior three.fitted
Substitution2: "'sups' Hochgestellte 1" three.superior
Substitution2: "'sinf' Wissenschaftliche Indices 1" three.inferior
Substitution2: "'pnum' Proportionalziffern 1" three.fitted
Substitution2: "'onum' Minuskelziffern 1" three.taboldstyle
EndChar

StartChar: four
Encoding: 52 52 13
Width: 440
VWidth: 487
Flags: HMW
HStem: -3 21G<259 307 341.5 346.5> 140 52<96 266 343 415.957> 552 20G<274 307 341.39 346.5>
VStem: 266 77<2.22899 140 192 485>
DStem2: 50 196 96 192 0.501851 0.864954<19.6253 358.372>
LayerCount: 2
Back
SplineSet
227 189 m 6
 -12 189 l 6
 -21 189 -26 196 -26 206 c 4
 -26 218 -22 224 -8 244 c 6
 313 692 l 6
 320 701 326 706 336 706 c 6
 353 706 l 6
 363 706 368 703 368 698 c 4
 368 695 366 691 363 687 c 6
 45 247 l 6
 33 231 47 231 73 231 c 6
 228 231 l 6
 252 231 256 234 256 257 c 6
 256 441 l 6
 256 448 257 456 265 461 c 4
 277 469 300 477 316 478 c 4
 330 479 330 467 330 447 c 6
 330 254 l 6
 330 235 333 231 350 231 c 6
 414 231 l 5
 423 224 423 198 414 189 c 5
 360 189 l 6
 335 189 330 188 330 167 c 6
 330 122 l 6
 330 43 332 30 373 25 c 6
 399 22 l 5
 405 16 404 0 397 -3 c 5
 361 -1 324 0 293 0 c 4
 257 0 212 -1 168 -3 c 5
 161 0 160 16 166 22 c 5
 211 25 l 6
 253 28 256 45 256 122 c 6
 256 164 l 6
 256 188 253 189 227 189 c 6
46.875 578.125 m 25
 347.168 578.125 l 25
-58.1055 256.836 m 25
 565.43 256.836 l 25
0 572.012 m 1
 438.965 572.012 l 1
 438.965 0 l 1
 0 0 l 1
 0 572.012 l 1
EndSplineSet
Fore
SplineSet
369.1 485 m 1
 136.8 192 l 1
 306.8 192 l 1
 369.1 485 l 1
295.8 140 m 1
 122.8 140 l 2
 88.8 140 68.8 145 71.8 159 c 0
 73.9 169 78.1 179 91.7 196 c 0
 159.2 280.3 320.1 490 394.9 569 c 0
 395.1 570 396.6 572 396.6 572 c 1
 396.6 572 412.9 569 427.9 569 c 0
 441.8 569 458.4 572 467.6 572 c 0
 468.6 572 469.1 570 468.9 569 c 0
 457.2 514 445.7 483 434 428 c 0
 414.4 336 403.4 284 383.8 192 c 1
 406.8 192 445.8 192 445.8 192 c 2
 455.8 192 457.7 182 455.8 173 c 0
 453.5 162 434.8 140 421.8 140 c 2
 421.8 140 406.8 140 372.8 140 c 1
 361.1 85 359.7 55 348 0 c 0
 347.8 -1 346.4 -3 345.4 -3 c 0
 336.4 -3 322 0 307 0 c 0
 291.9 0 259.4 -3 259.4 -3 c 1
 259 0 l 1
 274.2 48 280.2 66.9 295.8 140 c 1
EndSplineSet
AlternateSubs2: "'aalt' Alle Alternativen zeigen 1" four.oldstyle four.superior four.fitted
Substitution2: "'sups' Hochgestellte 1" four.superior
Substitution2: "'sinf' Wissenschaftliche Indices 1" four.inferior
Substitution2: "'pnum' Proportionalziffern 1" four.fitted
Substitution2: "'onum' Minuskelziffern 1" four.taboldstyle
EndChar

StartChar: five
Encoding: 53 53 14
Width: 440
VWidth: 487
Flags: HMW
HStem: -10 39<128.252 250.808> 313 47<121.546 256.278> 505 63<139.884 352.798>
VStem: 301 82<91.5089 264.326>
DStem2: 67 290 121 345 0.112358 0.993668<60.7191 229.795>
LayerCount: 2
Back
SplineSet
46.875 578.125 m 25
 377.93 578.125 l 29
308.838 169.678 m 0
 308.838 273.438 245.117 323.242 188.477 323.242 c 0
 140.625 323.242 98.6328 311.523 74.2188 300.293 c 1
 106.445 572.754 l 1
 369.629 572.754 l 1
 355.469 514.648 l 1
 355.469 512.695 l 1
 142.09 512.695 l 1
 123.047 355.469 l 1
 140.625 365.234 170.898 370.117 212.891 370.117 c 0
 312.5 370.117 381.104 297.363 381.104 186.279 c 0
 381.104 54.9316 305.664 -9.27734 187.988 -9.27734 c 0
 130.859 -9.27734 47.8516 22.4609 47.8516 62.0117 c 0
 47.8516 81.0547 63.9648 93.75 82.0312 93.75 c 0
 102.051 93.75 114.258 79.1016 126.953 62.9883 c 0
 141.113 44.9219 157.715 24.9023 189.453 24.9023 c 0
 259.766 24.9023 308.838 75.1953 308.838 169.678 c 0
0 572.012 m 1
 438.965 572.012 l 1
 438.965 0 l 1
 0 0 l 1
 0 572.012 l 1
EndSplineSet
Fore
SplineSet
188.9 -10 m 0
 116.9 -10 76.6 22 57.1 43 c 1
 55 47 l 1
 90.9 122 l 1
 104.1 123 l 1
 123.2 67 128.1 29 199.2 29 c 0
 263.2 29 318.4 82 336.9 169 c 0
 358.8 272 320.5 313 258.5 313 c 0
 212.5 313 171 306 128.6 290 c 1
 220.8 573 l 1
 253.2 570 291.7 568 326.7 568 c 0
 376.7 568 429.6 572 484.9 578 c 1
 490.2 575 l 1
 461.4 510 l 1
 421.5 506 389.3 505 361.3 505 c 0
 316.3 505 283.1 509 249 513 c 1
 194.3 345 l 1
 217 353 254.5 360 293.5 360 c 0
 399.5 360 442.1 278 422.5 186 c 0
 398.7 74 301.9 -10 188.9 -10 c 0
EndSplineSet
AlternateSubs2: "'aalt' Alle Alternativen zeigen 1" five.oldstyle five.superior five.fitted
Substitution2: "'sups' Hochgestellte 1" five.superior
Substitution2: "'sinf' Wissenschaftliche Indices 1" five.inferior
Substitution2: "'pnum' Proportionalziffern 1" five.fitted
Substitution2: "'onum' Minuskelziffern 1" five.taboldstyle
EndChar

StartChar: six
Encoding: 54 54 15
Width: 440
VWidth: 487
Flags: HW
HStem: -10 34<186.729 285.73> 303 36<169.149 275.391> 552 26<309.619 376.808>
VStem: 44 80<101.897 306.795> 326 79<79.8432 254.373>
LayerCount: 2
Back
SplineSet
46.875 578.125 m 25
 406.25 578.125 l 25
0 572.012 m 1
 438.965 572.012 l 1
 438.965 0 l 1
 0 0 l 1
 0 572.012 l 1
375.977 561.035 m 1
 295.898 543.945 258.403 525.747 227.051 500.977 c 0
 197.85 477.906 176.758 453.125 154.297 405.762 c 0
 135.949 367.065 124.211 330.648 118.615 290.749 c 1
 141.601 318.168 194.727 339.844 232.422 339.844 c 0
 284.18 339.844 322.266 333.008 361.328 292.48 c 0
 386.23 266.113 402.344 213.867 402.344 177.246 c 0
 402.344 129.395 383.489 72.0898 354.492 43.9453 c 0
 321.289 11.7188 277.344 -2.44141 230.469 -2.44141 c 0
 184.567 -2.44141 148.438 10.7422 118.164 37.5977 c 0
 69.2656 80.9756 45.8984 131.836 45.8984 235.84 c 0
 45.8984 295.898 62.0117 358.398 85.4492 403.809 c 0
 110.84 452.637 146.6 491.05 192.871 524.414 c 0
 239.374 557.944 293.945 573.242 375.488 580.566 c 1
 375.977 561.035 l 1
115.692 262.137 m 1
 115.06 252.512 114.746 242.629 114.746 232.422 c 0
 114.746 164.062 128.018 107.486 149.414 78.125 c 0
 170.007 49.8672 205.078 26.8555 240.234 26.8555 c 0
 270.02 26.8555 293.457 41.9922 306.641 61.5234 c 0
 328.125 91.3086 334.961 131.51 334.961 169.434 c 0
 334.961 201.188 322.754 245.117 303.223 268.066 c 0
 280.762 294.434 251.465 307.129 215.332 307.129 c 0
 194.572 307.129 156.109 305.244 115.692 262.137 c 1
EndSplineSet
Fore
SplineSet
496.3 552 m 1
 430 546 370.5 529 312.5 482 c 0
 256.9 437 217.6 370 189.6 290 c 1
 218.6 318 270.1 339 308.1 339 c 0
 456.1 339 451.1 217 441.3 171 c 0
 426.8 103 366.9 -10 228.9 -10 c 0
 155.9 -10 50.6 31 92.9 230 c 0
 112.5 322 165.8 411.7 249.2 481 c 0
 327.2 545.8 399.8 573 498.9 578 c 1
 496.3 552 l 1
180.7 262 m 1
 177.6 252 174.3 237 172.2 227 c 0
 136.7 59 196.1 24 246.1 24 c 0
 292.1 24 338.8 60 360.9 164 c 0
 370.9 211 376.4 303 280.4 303 c 0
 259.4 303 225.8 300 180.7 262 c 1
EndSplineSet
AlternateSubs2: "'aalt' Alle Alternativen zeigen 1" six.oldstyle six.superior six.fitted
Substitution2: "'sups' Hochgestellte 1" six.superior
Substitution2: "'sinf' Wissenschaftliche Indices 1" six.inferior
Substitution2: "'pnum' Proportionalziffern 1" six.fitted
Substitution2: "'onum' Minuskelziffern 1" six.taboldstyle
EndChar

StartChar: seven
Encoding: 55 55 16
Width: 440
VWidth: 487
Flags: HMW
HStem: -12 21G<117 185> 503 65<98.1355 327.687>
LayerCount: 2
Back
SplineSet
164.062 522.432 m 2
 133.789 522.432 100.098 505.342 80.0781 433.075 c 1
 53.2227 436.005 l 1
 62.0117 484.833 67.3828 528.779 68.6035 573.701 c 1
 93.2617 573.701 l 1
 95.2148 567.842 104.441 561.523 120.361 561.523 c 2
46.875 578.125 m 25
 347.168 578.125 l 25
0 572.012 m 1
 438.965 572.012 l 1
 438.965 0 l 1
 0 0 l 1
 0 572.012 l 1
EndSplineSet
Fore
SplineSet
435.9 503 m 1
 380.9 503 308.7 502 165 494 c 1
 170 508 174.9 522 177.9 536 c 0
 180.9 550 181 560 182 574 c 1
 221.1 568.8 304.7 568 445.7 568 c 0
 474.7 568 494.1 574 508.9 578 c 1
 522.7 568 l 1
 361.9 310 271.3 152 183.1 -9 c 1
 117.4 -12 l 1
 115.7 -6 l 1
 208.9 136 323.2 321 435.9 503 c 1
EndSplineSet
AlternateSubs2: "'aalt' Alle Alternativen zeigen 1" seven.oldstyle seven.superior seven.fitted
Substitution2: "'sups' Hochgestellte 1" seven.superior
Substitution2: "'sinf' Wissenschaftliche Indices 1" seven.inferior
Substitution2: "'pnum' Proportionalziffern 1" seven.fitted
Substitution2: "'onum' Minuskelziffern 1" seven.taboldstyle
EndChar

StartChar: nine
Encoding: 57 57 17
Width: 440
VWidth: 487
Flags: HW
HStem: -10 26<59.1923 126.381> 229 36<160.609 266.852> 544 34<150.27 249.271>
VStem: 31 79<313.627 488.157> 312 80<261.205 466.103>
LayerCount: 2
Back
SplineSet
46.875 578.125 m 29
 347.168 578.125 l 29
0 572.012 m 1
 438.965 572.012 l 1
 438.965 0 l 1
 0 0 l 1
 0 572.012 l 1
EndSplineSet
Fore
SplineSet
60.4 16 m 1
 126.7 22 186.3 39 244.3 86 c 0
 299.9 131 339.1 198 367.1 278 c 1
 338.1 250 286.7 229 248.7 229 c 0
 100.7 229 105.6 351 115.4 397 c 0
 129.9 465 189.9 578 327.9 578 c 0
 400.9 578 506.1 537 463.8 338 c 0
 444.2 246 390.9 156.3 307.5 87 c 0
 229.5 22.2 157 -5 57.9 -10 c 1
 60.4 16 l 1
376 306 m 1
 379.1 316 382.4 331 384.5 341 c 0
 420 509 360.6 544 310.6 544 c 0
 264.6 544 218 508 195.9 404 c 0
 185.9 357 180.3 265 276.3 265 c 0
 297.3 265 330.9 268 376 306 c 1
EndSplineSet
AlternateSubs2: "'aalt' Alle Alternativen zeigen 1" nine.oldstyle nine.superior nine.fitted
Substitution2: "'sups' Hochgestellte 1" nine.superior
Substitution2: "'sinf' Wissenschaftliche Indices 1" nine.inferior
Substitution2: "'pnum' Proportionalziffern 1" nine.fitted
Substitution2: "'onum' Minuskelziffern 1" nine.taboldstyle
Colour: ff00ff
EndChar

StartChar: colon
Encoding: 58 58 18
Width: 220
VWidth: 999
Flags: HW
HStem: 39 112<80.3677 154.353> 302 112<80.3677 154.353>
VStem: 61 112<55.2811 131.461 318.281 394.461>
LayerCount: 2
Fore
SplineSet
80.8 93 m 1
 81.6 97 l 1
 96.5 123.5 114.2 138.8 147.1 151 c 1
 151.1 151 l 1
 177.9 140.5 190.4 125.2 193.6 97 c 1
 192.8 93 l 1
 175.7 60.8 157 46 127.3 39 c 1
 123.3 39 l 1
 93.5 46 82.4 59.5 80.8 93 c 1
136.7 356 m 1
 137.5 360 l 1
 152.4 386.5 170.1 401.8 203 414 c 1
 207 414 l 1
 233.8 403.5 246.3 388.2 249.5 360 c 1
 248.7 356 l 1
 231.6 323.8 212.9 309 183.2 302 c 1
 179.2 302 l 1
 149.4 309 138.3 322.5 136.7 356 c 1
EndSplineSet
Colour: ff00ff
EndChar

StartChar: less
Encoding: 60 60 19
Width: 487
VWidth: 999
Flags: HW
HStem: 73 331
DStem2: 49 263 122 239 0.940425 0.34<60.4911 397.706> 122 239 49 215 0.939653 -0.34213<0 337.557>
LayerCount: 2
Fore
SplineSet
172.8 239 m 1
 465.1 123 l 1
 454.5 73 l 1
 94.7 215 l 1
 104.9 263 l 1
 524.9 404 l 1
 514.2 354 l 1
 172.8 239 l 1
EndSplineSet
EndChar

StartChar: equal
Encoding: 61 61 20
Width: 527
VWidth: 999
Flags: HW
HStem: 144 49<66 461> 269 49<66 461>
LayerCount: 2
Back
SplineSet
-58 257 m 25
 565 257 l 25
0 572 m 1
 527 572 l 1
 527 0 l 1
 0 0 l 1
 0 572 l 1
EndSplineSet
Fore
SplineSet
502 193 m 1
 491.6 144 l 1
 96.6 144 l 1
 107 193 l 1
 502 193 l 1
528.6 318 m 1
 518.2 269 l 1
 123.2 269 l 1
 133.6 318 l 1
 528.6 318 l 1
EndSplineSet
AlternateSubs2: "'aalt' Alle Alternativen zeigen 1" equal.superior
Substitution2: "'sinf' Wissenschaftliche Indices 1" equal.inferior
Substitution2: "'sups' Hochgestellte 1" equal.superior
EndChar

StartChar: greater
Encoding: 62 62 21
Width: 487
VWidth: 999
Flags: HW
HStem: 71 331
DStem2: 366 236 439 260 0.939653 -0.34213<-337.557 0> 439 212 366 236 0.940425 0.34<-397.706 -60.4911>
LayerCount: 2
Fore
SplineSet
416.2 236 m 1
 123.8 352 l 1
 134.4 402 l 1
 494.3 260 l 1
 484.1 212 l 1
 64.1 71 l 1
 74.7 121 l 1
 416.2 236 l 1
EndSplineSet
Colour: ff00ff
EndChar

StartChar: question
Encoding: 63 63 22
Width: 405
VWidth: 487
Flags: HW
HStem: -10 112<143.368 217.353> 619 40<136.736 250.119>
VStem: 124 112<6.28114 82.4613> 167 26<174.002 289.255> 294 75<434.552 577.274>
LayerCount: 2
Back
SplineSet
497.5 375.775 m 0
 511.406 395.306 532.124 412.618 559.648 427.71 c 0
 578.589 437.771 600.186 454.344 624.453 477.426 c 128
 647.236 498.73 658.491 522.847 658.188 549.78 c 0
 657.891 581.152 651.089 603.936 637.773 618.14 c 128
 616.763 640.034 594.414 650.986 570.742 650.986 c 0
 545.298 650.986 522.358 640.776 501.938 620.361 c 128
 485.662 603.789 475.896 585.293 472.644 564.873 c 1
 435.357 564.873 l 1
 435.357 615.918 l 1
 442.459 625.684 459.622 639.004 486.849 655.869 c 128
 508.154 669.487 537.451 676.289 574.741 676.289 c 0
 626.528 676.289 664.106 661.787 687.485 632.788 c 128
 706.431 609.116 715.898 581.597 715.898 550.225 c 0
 715.898 520.928 704.653 492.222 682.163 464.109 c 128
 662.93 440.139 633.335 416.465 593.384 393.086 c 0
 571.187 380.065 554.766 364.678 544.111 346.922 c 0
 534.048 330.646 529.019 314.221 529.019 297.65 c 0
 529.019 282.261 533.604 269.685 542.778 259.919 c 0
 555.796 246.307 571.777 239.352 590.718 239.056 c 0
 611.138 238.76 637.471 242.459 669.731 250.152 c 1
 669.731 237.281 l 1
 662.632 231.066 652.275 224.852 638.657 218.637 c 0
 623.569 212.127 605.225 208.724 583.618 208.428 c 0
 552.246 207.836 525.469 215.974 503.271 232.842 c 0
 481.667 249.117 471.167 271.756 471.756 300.758 c 8
 472.345 327.095 480.933 352.101 497.5 375.775 c 0
EndSplineSet
Fore
SplineSet
133.4 44 m 1
 134.2 48 l 1
 149.1 74.5 166.8 89.8 199.7 102 c 1
 203.7 102 l 1
 230.5 91.5 243 76.2 246.2 48 c 1
 245.4 44 l 1
 228.3 11.8 209.6 -3 179.9 -10 c 1
 175.9 -10 l 1
 146.1 -3 135 10.5 133.4 44 c 1
326.6 619 m 0
 270.6 619 219.2 570 183.6 525 c 1
 170.8 526 l 1
 169 593 l 1
 172.9 597 l 1
 201.8 617.5 271.6 659 344.1 659 c 0
 446.1 659 496.3 599 477 508 c 0
 460.2 429 391.5 385.5 337.6 351 c 0
 311 334 287.6 318 275 301 c 0
 256.7 276 246.6 252 241.5 228 c 2
 232.1 184 l 2
 230.6 177 225 174 217 174 c 0
 209 174 204.6 177 206.1 184 c 2
 215.9 230 l 2
 225.1 273 240 331.4 317.1 391 c 0
 365 428 391.1 457 401.1 504 c 0
 414.9 569 383.6 619 326.6 619 c 0
EndSplineSet
Colour: ff80cc
EndChar

StartChar: at
Encoding: 64 64 23
Width: 895
VWidth: 999
Flags: HMW
HStem: -158 33<366.698 569.227> 27 43<368.151 451.044> 27 35<536.5 668.322> 379 31<449.098 547.769> 581 30<366.475 546.302>
VStem: 59 80<106.897 345.058> 273 73<90.7683 252.641> 760 79<177.345 388.516>
LayerCount: 2
Back
SplineSet
658.691 46.875 m 0xbf
 658.691 35.6445 668.945 33.2031 671.387 33.2031 c 0
 791.992 33.2031 872.07 77.1484 872.07 289.062 c 0
 872.07 551.758 671.387 648.926 523.926 648.926 c 0
 345.215 648.926 142.09 521.484 142.09 242.676 c 0
 142.09 100.098 220.215 -187.988 534.18 -187.988 c 0
 634.277 -187.988 707.52 -159.668 770.996 -109.863 c 1
 786.621 -131.348 l 1
 715.82 -184.57 645.02 -226.562 512.207 -226.562 c 0
 245.605 -226.562 58.5938 -22.9492 58.5938 228.027 c 0
 58.5938 481.445 250.977 684.57 524.414 684.57 c 0
 776.855 684.57 948.242 505.859 948.242 285.156 c 0
 948.242 151.367 882.324 -5.37109 626.953 -5.37109 c 0xdf
 592.773 -5.37109 584.473 20.9961 584.473 40.0391 c 0
 584.473 58.5938 589.355 83.4961 599.121 114.746 c 1
 530.273 14.6484 474.121 -2.92969 442.871 -2.92969 c 0
 325.684 -2.92969 305.176 92.7734 305.176 139.16 c 0
 305.176 308.105 448.73 441.895 573.242 441.895 c 0
 612.793 441.895 652.344 421.875 664.062 391.602 c 1
 669.922 419.922 l 1
 726.074 434.57 l 1
 744.141 428.711 l 1
 674.316 125 l 2
 666.992 93.2617 658.691 56.6406 658.691 46.875 c 0xbf
647.949 334.961 m 0
 647.949 378.418 618.164 411.133 576.66 411.133 c 0
 556.152 411.133 506.836 410.645 464.355 363.77 c 0
 407.227 302.246 385.742 222.656 385.742 150.391 c 0
 385.742 94.2383 404.297 39.0625 478.027 39.0625 c 0xbf
 509.766 39.0625 582.031 103.516 612.793 183.105 c 0
 626.953 220.703 647.949 306.152 647.949 334.961 c 0
EndSplineSet
Fore
SplineSet
598.7 74 m 0
 596.6 64 605.2 62 607.2 62 c 0
 709.2 62 783.2 109 818.5 275 c 0
 862.3 481 707.5 581 582.5 581 c 0
 430.5 581 240.6 478 190.2 241 c 0
 158.3 91 188.4 -125 446.4 -125 c 0
 531.4 -125 598.4 -102 661.5 -59 c 1
 670.6 -77 l 1
 600.8 -123 533.4 -158 420.4 -158 c 0
 181.4 -158 61.1 10 106.4 223 c 0
 152.1 438 373.9 611 598.9 611 c 0
 813.9 611 938.6 469 898.9 282 c 0
 874.7 168 774.7 27 556.7 27 c 0
 527.7 27 526.1 52 529.5 68 c 0
 532.7 83 544.5 106 557.8 131 c 1
 556.1 132 l 1
 496.4 58 436.2 29 401.2 29 c 0
 301.2 29 297 113 305.5 153 c 0
 335.9 296 487.1 410 593.1 410 c 0
 626.1 410 656.5 393 661 367 c 1
 671.1 391 l 1
 726.9 404 l 1
 740.8 399 l 1
 626 141 l 2
 614.3 114 600.1 80.5 598.7 74 c 0
636.2 316 m 0
 644.3 354 620.6 379 584.6 379 c 0
 567.6 379 522.7 370 486.1 339 c 0
 424.3 288 393.6 224 380.4 162 c 0
 370.2 114 375.9 70 438.9 70 c 0
 473.9 70 535 127 581.5 200 c 0
 601.1 231 629 282 636.2 316 c 0
EndSplineSet
EndChar

StartChar: A
Encoding: 65 65 24
Width: 633
Flags: HW
HStem: -3 21G<23.6812 91.3496 91.6812 128.71 503.221 513.181 600.096 606.181> 230 44<246.182 481.982> 638 20G<381.269 503.587>
AnchorPoint: "unten_punkt" 247 -108 basechar 0
AnchorPoint: "unten_anhang" 59.7 8 basechar 0
AnchorPoint: "top_akzent" 491.6 798 basechar 0
AnchorPoint: "top_punkt" 470.8 700 basechar 0
LayerCount: 2
Back
SplineSet
132 79 m 6
 121.979 53.5967 134.54 31.583 172 29 c 6
 201 27 l 6
 204.991 26.7246 209 24 209 19 c 6
 209 0 l 5
 207 -2 l 5
 207 -2 98 0 74 0 c 4
 48 0 -16 -2 -16 -2 c 5
 -18 0 l 5
 -18 19 l 6
 -18 24 -14.9883 26.6562 -10 27 c 4
 33.5 30 59.1699 37.7783 86.9834 102 c 6
 309.333 622.333 l 6
 318.036 642.698 331.667 658 344 658 c 4
 355 658 362.389 648.121 370 628 c 6
 575 86 l 6
 589 47 609.193 31.6191 649 28 c 6
 660 27 l 6
 664.98 26.5469 670 24 670 19 c 6
 670 0 l 5
 667 -2 l 5
 667 -2 590 0 551 0 c 4
 516 0 418 -2 418 -2 c 5
 417 0 l 5
 417 19 l 6
 417 24 419.013 26.6436 424 27 c 6
 452 29 l 6
 489.772 31.6982 503.995 44.3066 494 72 c 6
 433 241 l 5
 225 241 l 6
 201 241 195.06 236.649 190 224 c 6
 132 79 l 6
243 283 m 6
 417 283 l 5
 319 550 l 5
 318 550 l 5
 217.826 296.333 l 6
 213.576 285.571 226.965 283 243 283 c 6
EndSplineSet
Fore
SplineSet
467.9 275.5 m 1
 455.9 345.2 439.9 427.4 418.9 521.8 c 1
 416.9 521.8 l 1
 259.3 275.9 l 1
 291 275.5 334.3 274 363.2 274 c 0
 392.9 274 434.9 274.7 467.9 275.5 c 1
229.5 228.3 m 1
 175.2 140.8 126.8 58.3 97.4 -3 c 1
 86 0 64 0 53 0 c 0
 42 0 30 0 17.4 -3 c 1
 165.4 218 309.7 436 452.9 658 c 1
 480.9 658 l 1
 526.4 439 585.9 98 614.4 -3 c 1
 598 0 572 0 555 0 c 0
 538 0 522 0 504.4 -3 c 1
 503 19.2 497 97.2 475.8 228.3 c 1
 438.3 229.2 396.9 230 358.9 230 c 0
 324.4 230 267.7 229.2 229.5 228.3 c 1
EndSplineSet
Position2: "'cpsp' Versalabstaende 1" dx=2 dy=0 dh=5 dv=0
Substitution2: "'c2sc' Versale nach Kapitaelchen 1" a.sc
EndChar

StartChar: B
Encoding: 66 66 25
Width: 582
VWidth: 999
Flags: HW
HStem: -3 44<171.13 393.675> 327 44<189 355.197> 604 44<169.378 351.471>
VStem: 103 86<49.3073 327 371 597.325> 395 87<424.724 562.128> 442 99<97.3818 255.662>
AnchorPoint: "unten_punkt" 245 -108 basechar 0
AnchorPoint: "unten_anhang" 250 0 basechar 0
AnchorPoint: "top_punkt" 430.8 700 basechar 0
AnchorPoint: "top_akzent" 450.6 798 basechar 0
LayerCount: 2
Fore
SplineSet
283.1 645 m 0
 330.3 645 369.7 648 404.7 648 c 0
 590.7 648 601 560 586.8 493 c 0
 575.1 438 521.8 385 465.5 360 c 1
 547.2 335 600.5 280 580.1 184 c 0
 561.8 98 487.4 -3 288.4 -3 c 0
 199.4 -3 201.8 0 146 0 c 0
 111 0 93.4 -3 93.4 -3 c 1
 93 0 l 1
 112.5 54 129.6 125 145.5 200 c 2
 197.6 445 l 2
 213.5 520 226 588 230.1 645 c 1
 232.7 648 l 1
 232.7 648 249.1 645 283.1 645 c 0
258.5 327 m 1
 207.7 88 l 2
 200.7 55 208.7 41 278.7 41 c 0
 430.7 41 461.6 92 477.1 165 c 0
 496.2 255 462.5 327 345.5 327 c 2
 258.5 327 l 1
307.8 559 m 2
 267.9 371 l 1
 339.9 371 l 2
 422.9 371 479.1 396 497.2 481 c 0
 518.9 583 458.4 604 402.4 604 c 0
 321.4 604 314.9 592.3 307.8 559 c 2
EndSplineSet
Position2: "'cpsp' Versalabstaende 1" dx=2 dy=0 dh=5 dv=0
Substitution2: "'c2sc' Versale nach Kapitaelchen 1" b.sc
EndChar

StartChar: C
Encoding: 67 67 26
Width: 650
VWidth: 999
Flags: HW
HStem: -10 51<269.467 470.143> 611 47<271.061 460.844>
VStem: 37 103<195.742 435.455>
AnchorPoint: "unten_punkt" 345.6 -110 basechar 0
AnchorPoint: "unten_anhang" 360.5 -7 basechar 0
AnchorPoint: "top_punkt" 514.8 700 basechar 0
AnchorPoint: "top_akzent" 535.6 798 basechar 0
LayerCount: 2
Back
SplineSet
572.754 645.508 m 5
 591.797 471.68 l 5
 562.012 468.75 l 5
 554.688 511.719 519.043 606.445 467.285 606.445 c 6
EndSplineSet
Fore
SplineSet
504.9 658 m 0
 626.9 658 713.3 613 713.3 613 c 1
 714.7 610 l 1
 692.5 560.7 685.5 550 671.1 499 c 1
 660.9 498 l 1
 637.3 580 570.9 611 480.9 611 c 0
 398.9 611 254.1 537 211 334 c 0
 180 188 213.7 41 368.7 41 c 0
 461.7 41 534.2 62 621.8 140 c 1
 641.6 125 l 1
 554.7 36 445.9 -10 348.9 -10 c 0
 133.9 -10 69.8 154 104 315 c 0
 145.9 512 335.9 658 504.9 658 c 0
EndSplineSet
Position2: "'cpsp' Versalabstaende 1" dx=2 dy=0 dh=5 dv=0
Substitution2: "'c2sc' Versale nach Kapitaelchen 1" c.sc
EndChar

StartChar: D
Encoding: 68 68 27
Width: 698
VWidth: 999
Flags: HW
HStem: -2 44<168.537 432.266> 604 44<169.393 389.698>
VStem: 101 86<49.3073 594.385> 552 103<179.784 425.325>
AnchorPoint: "unten_punkt" 256.3 -107 basechar 0
AnchorPoint: "unten_anhang" 279.9 4 basechar 0
AnchorPoint: "top_punkt" 454.8 700 basechar 0
AnchorPoint: "top_akzent" 475.6 798 basechar 0
LayerCount: 2
Fore
SplineSet
281.1 645 m 0
 345.1 645 382.7 648 446.7 648 c 0
 638.7 648 760 494 720.5 308 c 0
 668.2 62 467.6 -2 326.6 -2 c 0
 223.6 -2 215 0 144 0 c 0
 109 0 91.4 -3 91.4 -3 c 1
 91 0 l 1
 110.5 54 127.6 125 143.5 200 c 2
 195.6 445 l 2
 211.5 520 224 588 228.1 645 c 1
 230.7 648 l 1
 230.7 648 247.1 645 281.1 645 c 0
204.4 82 m 2
 197.6 50 206.9 42 304.9 42 c 0
 445.9 42 569.5 82 612.4 284 c 0
 645.1 438 615.4 604 399.4 604 c 0
 350.4 604 314.3 599 306.9 564 c 2
 204.4 82 l 2
EndSplineSet
Position2: "'cpsp' Versalabstaende 1" dx=2 dy=0 dh=5 dv=0
Substitution2: "'c2sc' Versale nach Kapitaelchen 1" d.sc
EndChar

StartChar: E
Encoding: 69 69 28
Width: 522
VWidth: 999
Flags: HW
HStem: 0 54<186.656 409.594> 321 42<182 388.188> 596 49<186.656 403.188>
VStem: 96 86<55.2087 321 363 594.385>
AnchorPoint: "unten_anhang" 279.9 4 basechar 0
AnchorPoint: "unten_punkt" 256.3 -107 basechar 0
AnchorPoint: "top_punkt" 428.8 700 basechar 0
AnchorPoint: "top_akzent" 454.1 805 basechar 0
LayerCount: 2
Back
SplineSet
98 150 m 6x3d
 98 510 l 6
 98 614 96 629 37 636 c 6
 21 638 l 5
 15 642 17 660 23 663 c 5x3b
 66 661 100 660 141 660 c 6
 329 660 l 6x3d
 393 660 452 660 464 663 c 5x3b
 470 646 476 574 480 530 c 5
 476 524 460 522 455 528 c 5
 440 575 431 610 379 623 c 4
 358 628 326 629 282 629 c 6
 210 629 l 6
 180 629 180 627 180 589 c 6
 180 389 l 6
 180 361 183 361 213 361 c 6
 271 361 l 6
 313 361 344 363 356 367 c 4
 368 371 375 377 380 402 c 6
 388 443 l 5
 393 449 410 449 414 442 c 5
 414 418 410 379 410 341 c 4
 410 305 414 267 414 245 c 5
 410 238 393 238 388 244 c 5
 379 283 l 6
 375 301 368 316 348 321 c 4
 334 325 310 326 271 326 c 6
 213 326 l 6
 183 326 180 325 180 299 c 6
 180 158 l 6
 180 105 183 71 199 54 c 4
 211 42 232 31 320 31 c 4
 397 31 426 35 448 46 c 4
 466 56 493 91 519 143 c 5
 526 148 540 145 544 136 c 5
 537 101 512 24 499 -3 c 5
 409 -1 320 0 231 0 c 6
 141 0 l 6x3d
 98 0 64 -1 5 -3 c 5x9d
 -1 0 -3 16 3 22 c 5
 36 25 l 6x5d
 93 30 98 45 98 150 c 6x3d
EndSplineSet
Fore
SplineSet
224.5 200 m 2
 220.9 183 199.6 78 201.5 54 c 1
 335.5 54 486 66 486 66 c 1
 487.2 62 l 1
 484.5 54 480.3 39 478.2 29 c 0
 476.1 19 476 14 474 0 c 1
 471.4 -3 l 1
 455.8 -1 433 0 412 0 c 2
 139 0 l 2
 104 0 86.4 -3 86.4 -3 c 1
 86 0 l 1
 105.5 54 122.6 125 138.5 200 c 2
 190.6 445 l 2
 206.5 520 219 588 223.1 645 c 1
 225.7 648 l 1
 225.7 648 242.1 645 276.1 645 c 0
 306.1 645 539.1 645 539.1 645 c 2
 560.1 645 583.3 646 599.7 648 c 1
 601.1 645 l 1
 597.1 631 594.2 622 592.5 614 c 0
 590.6 605 589.7 596 589 588 c 1
 586.1 584 l 1
 586.1 584 450.7 596 316.7 596 c 1
 304.6 572 280.2 462 276.6 445 c 2
 259.2 363 l 1
 377.2 363 424.2 368 484.3 373 c 1
 486.6 370 l 1
 482.7 361 479.6 351 477.7 342 c 0
 475.8 333 474.6 323 474.7 314 c 1
 471.1 311 l 1
 403.6 318 298.2 321 250.2 321 c 1
 224.5 200 l 2
EndSplineSet
Position2: "'cpsp' Versalabstaende 1" dx=2 dy=0 dh=5 dv=0
Substitution2: "'c2sc' Versale nach Kapitaelchen 1" e.sc
EndChar

StartChar: F
Encoding: 70 70 29
Width: 477
VWidth: 999
Flags: HW
HStem: -3 21G<88 141 141 194> 321 42<184 390.196> 596 49<188.662 405.195>
VStem: 98 86<2.67992 321 363 594.385>
AnchorPoint: "unten_anhang" 144.8 -1 basechar 0
AnchorPoint: "unten_punkt" 177.4 -111 basechar 0
AnchorPoint: "top_punkt" 435.8 700 basechar 0
AnchorPoint: "top_akzent" 455.6 798 basechar 0
LayerCount: 2
Fore
SplineSet
538.1 645 m 2
 562.1 645 585.3 646 601.7 648 c 1
 603.1 645 l 1
 599.1 631 596.2 622 594.5 614 c 0
 592.6 605 591.7 596 591 588 c 1
 588.1 584 l 1
 588.1 584 452.7 596 318.7 596 c 1
 306.6 572 282.2 462 278.6 445 c 2
 261.2 363 l 1
 379.2 363 426.2 368 486.3 373 c 1
 488.6 370 l 1
 484.7 361 481.6 351 479.7 342 c 0
 477.8 333 476.6 323 476.7 314 c 1
 473.1 311 l 1
 405.6 318 300.2 321 252.2 321 c 1
 226.5 200 l 2
 210.6 125 198.1 57 194 0 c 1
 191.4 -3 l 1
 191.4 -3 175 0 141 0 c 0
 106 0 88.4 -3 88.4 -3 c 1
 88 0 l 1
 107.5 54 124.6 125 140.5 200 c 2
 192.6 445 l 2
 208.5 520 221 588 225.1 645 c 1
 227.7 648 l 1
 227.7 648 244.1 645 278.1 645 c 2
 538.1 645 l 2
EndSplineSet
Position2: "'cpsp' Versalabstaende 1" dx=2 dy=0 dh=5 dv=0
Substitution2: "'c2sc' Versale nach Kapitaelchen 1" f.sc
EndChar

StartChar: G
Encoding: 71 71 30
Width: 699
VWidth: 999
Flags: HMW
HStem: -10 46<295.106 519.78> 611 47<271.555 476.844>
VStem: 32 103<213.43 430.807> 546 86<83.5114 304.327>
AnchorPoint: "unten_anhang" 371.4 2 basechar 0
AnchorPoint: "unten_punkt" 347.4 -111 basechar 0
AnchorPoint: "top_punkt" 517.8 700 basechar 0
AnchorPoint: "top_akzent" 538.6 798 basechar 0
LayerCount: 2
Back
SplineSet
593.262 612.793 m 5
 596.309 558.179 605.469 509.766 615.234 458.496 c 5
 584.961 453.613 l 5
 559.082 539.551 501.465 621.094 362.793 621.094 c 4
EndSplineSet
Fore
SplineSet
570.9 117 m 1
 585.4 192 597.2 250 601.3 307 c 1
 603.9 310 l 1
 603.9 310 620.3 307 654.3 307 c 0
 689.3 307 706.9 310 706.9 310 c 1
 707.3 307 l 1
 688 254 677.3 211.9 661.1 137 c 2
 659.8 131 l 2
 657.5 120 653.2 93.7 659.6 83 c 1
 659 80 l 1
 579.5 23.4 490.4 -10 373.9 -10 c 0
 172.9 -10 60.5 134 97.3 307 c 0
 144.1 527 348.9 658 520.9 658 c 0
 642.9 658 729.3 613 729.3 613 c 1
 730.7 610 l 1
 708.5 560.7 701.5 550 687.1 499 c 1
 676.9 498 l 1
 653.3 580 586.9 611 496.9 611 c 0
 361.9 611 241.7 502 204.5 327 c 0
 176.4 195 228.7 36 406.7 36 c 0
 460.7 36 520.9 42 561.7 74 c 1
 570.9 117 l 1
EndSplineSet
Position2: "'cpsp' Versalabstaende 1" dx=2 dy=0 dh=5 dv=0
Substitution2: "'c2sc' Versale nach Kapitaelchen 1" g.sc
EndChar

StartChar: grave
Encoding: 96 96 31
Width: 392
VWidth: 999
Flags: HW
LayerCount: 2
Fore
SplineSet
326.6 699 m 1
 369.8 573 l 2
 372.7 563 372.2 556 370.7 549 c 0
 369.6 544 361.4 538 353.4 538 c 0
 347.4 538 341.4 543 328.6 558 c 2
 237.8 667 l 1
 242.1 678 l 1
 251.4 684 278 701 312 701 c 0
 317 701 322.8 700 326.6 699 c 1
EndSplineSet
Substitution2: "'case' Versalformen 1" grave.cap
Colour: ff00ff
EndChar

StartChar: ograve
Encoding: 242 242 32
Width: 490
VWidth: 999
Flags: HW
HStem: -12 36<200 296> 409 33<249 355>
VStem: 78 84<61 275> 384 81<165 381>
LayerCount: 2
Back
SplineSet
-90.8203 672.852 m 5
 528.32 672.852 l 5
 528.32 510.254 l 5
 -90.8203 510.254 l 5
 -90.8203 672.852 l 5
EndSplineSet
Fore
SplineSet
324.6 398 m 0
 238.6 398 193 315 174.5 228 c 0
 170.1 207.4 167.1 183.8 167.1 160.2 c 0
 167.1 95.5 189.4 31 265.6 31 c 0
 310.6 31 377.3 63 403.7 187 c 0
 412.3 227.3 416.6 261.3 416.6 289.5 c 0
 416.6 364.3 386.3 398 324.6 398 c 0
79.6 205 m 0
 108.7 342 214.3 439 340.3 439 c 0
 463.4 439 506 359.6 506 274.2 c 0
 506 254.2 503.7 233.8 499.5 214 c 0
 476.8 107 380.9 -10 242.9 -10 c 0
 130 -10 74.3 65.6 74.3 155.7 c 0
 74.3 171.8 76.1 188.3 79.6 205 c 0
362.5 671 m 1
 405.7 545 l 2
 408.6 535 408.1 528 406.6 521 c 0
 405.5 516 397.3 510 389.3 510 c 0
 383.3 510 377.3 515 364.5 530 c 2
 273.7 639 l 1
 278 650 l 1
 287.3 656 313.9 673 347.9 673 c 0
 352.9 673 358.7 672 362.5 671 c 1
EndSplineSet
Substitution2: "'smcp' Gemeine nach Kapitaelchen 1" ograve.sc
AlternateSubs2: "'aalt' Alle Alternativen zeigen 1" ograve.sc
Colour: ff00ff
EndChar

StartChar: oacute
Encoding: 243 243 33
Width: 490
VWidth: 999
Flags: HW
HStem: -12 36<200 296> 409 33<249 355>
VStem: 78 84<61 275> 384 81<165 381>
LayerCount: 2
Back
SplineSet
-90.8203 672.852 m 5
 528.32 672.852 l 5
 528.32 510.254 l 5
 -90.8203 510.254 l 5
 -90.8203 672.852 l 5
EndSplineSet
Fore
SplineSet
324.6 398 m 0
 238.6 398 193 315 174.5 228 c 0
 170.1 207.4 167.1 183.8 167.1 160.2 c 0
 167.1 95.5 189.4 31 265.6 31 c 0
 310.6 31 377.3 63 403.7 187 c 0
 412.3 227.3 416.6 261.3 416.6 289.5 c 0
 416.6 364.3 386.3 398 324.6 398 c 0
79.6 205 m 0
 108.7 342 214.3 439 340.3 439 c 0
 463.4 439 506 359.6 506 274.2 c 0
 506 254.2 503.7 233.8 499.5 214 c 0
 476.8 107 380.9 -10 242.9 -10 c 0
 130 -10 74.3 65.6 74.3 155.7 c 0
 74.3 171.8 76.1 188.3 79.6 205 c 0
388.5 666 m 1
 391.7 667 397.9 668 402.9 668 c 0
 409.3 668 434.7 667 453 645 c 1
 453.7 634 l 1
 315.5 525 l 2
 297.3 510 288.5 506 281.5 506 c 0
 274.5 506 268.7 512 270.2 519 c 0
 272.6 530.2 276.7 534.2 287.6 547 c 2
 388.5 666 l 1
EndSplineSet
Substitution2: "'smcp' Gemeine nach Kapitaelchen 1" oacute.sc
AlternateSubs2: "'aalt' Alle Alternativen zeigen 1" oacute.sc
Colour: ff00ff
EndChar

StartChar: ocircumflex
Encoding: 244 244 34
Width: 490
VWidth: 999
Flags: HW
HStem: -12 36<200 296> 409 33<249 355>
VStem: 78 84<61 275> 384 81<165 381>
LayerCount: 2
Back
SplineSet
151.855 645.508 m 1
 180.664 598.633 217.285 555.664 252.93 515.625 c 1
 232.422 502.441 l 1
 193.359 531.25 159.668 556.152 125.977 592.285 c 1
 88.8672 554.199 56.1523 529.297 19.043 502.441 c 1
 -0.488281 515.625 l 1
 34.668 555.176 72.7539 599.609 102.051 645.508 c 1
 151.855 645.508 l 1
-90.5762 664.062 m 1
 528.076 664.062 l 1
 528.076 500.732 l 1
 -90.5762 500.732 l 1
 -90.5762 664.062 l 1
EndSplineSet
Fore
SplineSet
324.6 398 m 0
 238.6 398 193 315 174.5 228 c 0
 170.1 207.4 167.1 183.8 167.1 160.2 c 0
 167.1 95.5 189.4 31 265.6 31 c 0
 310.6 31 377.3 63 403.7 187 c 0
 412.3 227.3 416.6 261.3 416.6 289.5 c 0
 416.6 364.3 386.3 398 324.6 398 c 0
79.6 205 m 0
 108.7 342 214.3 439 340.3 439 c 0
 463.4 439 506 359.6 506 274.2 c 0
 506 254.2 503.7 233.8 499.5 214 c 0
 476.8 107 380.9 -10 242.9 -10 c 0
 130 -10 74.3 65.6 74.3 155.7 c 0
 74.3 171.8 76.1 188.3 79.6 205 c 0
398 653 m 1
 417 606 444.1 564 471.6 524 c 1
 447.6 510 l 1
 414.8 539 387 564 360.7 600 c 1
 315.6 562 278.3 537 234.6 510 c 1
 217.6 524 l 1
 262.1 564 309.2 607 348 653 c 1
 398 653 l 1
EndSplineSet
Substitution2: "'smcp' Gemeine nach Kapitaelchen 1" ocircumflex.sc
AlternateSubs2: "'aalt' Alle Alternativen zeigen 1" ocircumflex.sc
Colour: ff00ff
EndChar

StartChar: otilde
Encoding: 245 245 35
Width: 490
VWidth: 999
Flags: HW
HStem: -10 41<207.887 327.054> 398 41<259.734 387.619> 526 44<369.353 453.597> 574 46<248.457 335.123>
VStem: 74.3 92.9<70.8712 260.274> 204.1 296.1 416.6 89.4<166.716 366.847>
LayerCount: 2
Back
SplineSet
-87.8906 622.07 m 5
 531.25 622.07 l 5
 531.25 525.391 l 5
 -87.8906 525.391 l 5
 -87.8906 622.07 l 5
EndSplineSet
Fore
SplineSet
324.6 398 m 0
 238.6 398 193 315 174.5 228 c 0
 170.1 207.4 167.2 183.8 167.2 160.2 c 0
 167.2 95.5 189.4 31 265.6 31 c 0
 310.6 31 377.3 63 403.7 187 c 0
 412.3 227.3 416.6 261.3 416.6 289.5 c 0
 416.6 364.3 386.3 398 324.6 398 c 0
79.6 205 m 0
 108.7 342 214.3 439 340.3 439 c 0
 463.4 439 506 359.6 506 274.2 c 0
 506 254.2 503.7 233.8 499.5 214 c 0
 476.8 107 380.9 -10 242.9 -10 c 0
 130 -10 74.3 65.6 74.3 155.7 c 0
 74.3 171.8 76.1 188.3 79.6 205 c 0
416.4 570 m 0
 438.4 570 454.5 580 477.4 622 c 1
 500.2 616 l 1
 475.4 556 440 526 394 526 c 0
 372 526 353.5 538 335.5 552 c 0
 319.8 563 303.2 574 286.2 574 c 0
 260.2 574 244 559 227 526 c 1
 204.1 531 l 1
 230.6 590 260 620 303 620 c 0
 333 620 352 606 369 592 c 0
 382.4 580 397.4 570 416.4 570 c 0
EndSplineSet
Substitution2: "'smcp' Gemeine nach Kapitaelchen 1" otilde.sc
AlternateSubs2: "'aalt' Alle Alternativen zeigen 1" otilde.sc
Colour: ff00ff
EndChar

StartChar: odieresis
Encoding: 246 246 36
Width: 490
VWidth: 999
Flags: HW
HStem: -10 35<199.842 295.783 199.842 295.783> 406 33<249.303 355.467 249.303 355.467> 527 92<201.933 269.223 201.933 269.223 361.933 429.223 361.933 429.223>
VStem: 78 84<59.8814 274.021 59.8814 274.021> 189.6 92<539.849 606.151 539.849 606.151> 349.6 92<539.849 606.151 539.849 606.151> 384 81<164.708 379.418 164.708 379.418>
LayerCount: 2
Back
SplineSet
-90.8203 617.676 m 5
 528.32 617.676 l 5
 528.32 526.855 l 5
 -90.8203 526.855 l 5
 -90.8203 617.676 l 5
EndSplineSet
Fore
SplineSet
395.2 575 m 0
 400.5 600 426 621 451 621 c 0
 476 621 492.5 600 487.2 575 c 0
 481.9 550 456.4 529 431.4 529 c 0
 406.4 529 389.9 550 395.2 575 c 0
235.2 575 m 0
 240.5 600 266 621 291 621 c 0
 316 621 332.5 600 327.2 575 c 0
 321.9 550 296.4 529 271.4 529 c 0
 246.4 529 229.9 550 235.2 575 c 0
324.6 398 m 0
 238.6 398 193 315 174.5 228 c 0
 170.1 207.4 167.1 183.8 167.1 160.2 c 0
 167.1 95.5 189.4 31 265.6 31 c 0
 310.6 31 377.3 63 403.7 187 c 0
 412.3 227.3 416.6 261.3 416.6 289.5 c 0
 416.6 364.3 386.3 398 324.6 398 c 0
79.6 205 m 0
 108.7 342 214.3 439 340.3 439 c 0
 463.4 439 506 359.6 506 274.2 c 0
 506 254.2 503.7 233.8 499.5 214 c 0
 476.8 107 380.9 -10 242.9 -10 c 0
 130 -10 74.3 65.6 74.3 155.7 c 0
 74.3 171.8 76.1 188.3 79.6 205 c 0
EndSplineSet
Substitution2: "'smcp' Gemeine nach Kapitaelchen 1" odieresis.sc
AlternateSubs2: "'aalt' Alle Alternativen zeigen 1" odieresis.sc
Colour: ff00ff
EndChar

StartChar: divide
Encoding: 247 247 37
Width: 527
VWidth: 999
Flags: HW
HStem: 53.6 93.9<234.492 296.502> 208 49<66 461> 321.6 93.9<234.492 296.502>
VStem: 218.3 93.9<67.2645 131.114> 218.3 93.9<335.264 399.114>
LayerCount: 2
Back
SplineSet
-58.1055 256.836 m 29
 565.43 256.836 l 29
0 572.012 m 5
 527.344 572.012 l 5
 527.344 0 l 5
 0 0 l 5
 0 572.012 l 5
EndSplineSet
Fore
SplineSet
515.6 257 m 1
 505.2 208 l 1
 110.2 208 l 1
 120.6 257 l 1
 515.6 257 l 1
239.3 98.9 m 1
 240 102.2 l 1
 252.5 124.4 267.4 137.2 294.9 147.5 c 1
 298.2 147.5 l 1
 320.6 138.7 331.2 125.9 333.9 102.2 c 1
 333.1 98.9 l 1
 318.8 71.9 303.2 59.5 278.3 53.6 c 1
 274.9 53.6 l 1
 250 59.5 240.7 70.8 239.3 98.9 c 1
296.2 366.9 m 1
 297 370.2 l 1
 309.5 392.4 324.3 405.2 351.8 415.5 c 1
 355.2 415.5 l 1
 377.6 406.7 388.1 393.9 390.8 370.2 c 1
 390.1 366.9 l 1
 375.8 339.9 360.1 327.5 335.2 321.6 c 1
 331.9 321.6 l 1
 307 327.5 297.6 338.8 296.2 366.9 c 1
EndSplineSet
Colour: ff00ff
EndChar

StartChar: ugrave
Encoding: 249 249 38
Width: 521
VWidth: 999
Flags: HW
HStem: -12 52<166 263 407 467> 385 57<169 241> 510 163<335 411>
VStem: 268 158<521 639>
DStem2: 127 135 206 149 0.247598 0.968863<33.0628 181.431> 376 96 452 125 0.218267 0.975889<44.7379 342.236>
LayerCount: 2
Back
SplineSet
-90.8203 672.852 m 5
 528.32 672.852 l 5
 528.32 510.254 l 5
 -90.8203 510.254 l 5
 -90.8203 672.852 l 5
EndSplineSet
Fore
SplineSet
363.6 64 m 1
 294.8 4 250.9 -10 209.9 -10 c 0
 110.9 -10 96.2 57 110.8 126 c 2
 136.9 249 l 2
 153 325 162.1 372 165.2 429 c 1
 167.8 432 l 1
 167.8 432 181.2 429 215.2 429 c 0
 250.2 429 264.8 432 264.8 432 c 1
 265.2 429 l 1
 244.9 376 232.8 324 216.9 249 c 2
 195.9 150 l 2
 177 61 217.6 45 247.6 45 c 0
 292.4 45 342.7 88.2 375.3 119 c 1
 402.9 249 l 2
 419 325 428.1 372 431.2 429 c 1
 433.8 432 l 1
 433.8 432 447.2 429 481.2 429 c 0
 516.2 429 530.8 432 530.8 432 c 1
 531.2 429 l 1
 510.9 376 498.8 324 482.9 249 c 2
 470.8 192 l 2
 454.9 117 448.1 43 447 0 c 1
 444.4 -3 l 1
 431.8 -1 413.1 0 400.5 0 c 0
 386 0 379.1 -1.3 365.4 -3 c 0
 359.4 -3 356.6 -2 357 0 c 2
 365.6 64 l 1
 363.6 64 l 1
369.5 671 m 1
 412.7 545 l 2
 415.6 535 415.1 528 413.6 521 c 0
 412.5 516 404.3 510 396.3 510 c 0
 390.3 510 384.3 515 371.5 530 c 2
 280.7 639 l 1
 285 650 l 1
 294.3 656 320.9 673 354.9 673 c 0
 359.9 673 365.7 672 369.5 671 c 1
EndSplineSet
Substitution2: "'smcp' Gemeine nach Kapitaelchen 1" ugrave.sc
AlternateSubs2: "'aalt' Alle Alternativen zeigen 1" ugrave.sc
Colour: ff00ff
EndChar

StartChar: uacute
Encoding: 250 250 39
Width: 521
VWidth: 999
Flags: HW
HStem: -12 52<166 263 407 467> 385 57<169 241> 515 149<348 448>
VStem: 333 174<527 621>
DStem2: 127 135 206 149 0.247598 0.968863<33.0628 181.431> 376 96 452 125 0.218267 0.975889<44.7379 342.236>
LayerCount: 2
Back
SplineSet
-90.8203 672.852 m 5
 528.32 672.852 l 5
 528.32 510.254 l 5
 -90.8203 510.254 l 5
 -90.8203 672.852 l 5
EndSplineSet
Fore
SplineSet
363.6 64 m 1
 294.8 4 250.9 -10 209.9 -10 c 0
 110.9 -10 96.2 57 110.8 126 c 2
 136.9 249 l 2
 153 325 162.1 372 165.2 429 c 1
 167.8 432 l 1
 167.8 432 181.2 429 215.2 429 c 0
 250.2 429 264.8 432 264.8 432 c 1
 265.2 429 l 1
 244.9 376 232.8 324 216.9 249 c 2
 195.9 150 l 2
 177 61 217.6 45 247.6 45 c 0
 292.4 45 342.7 88.2 375.3 119 c 1
 402.9 249 l 2
 419 325 428.1 372 431.2 429 c 1
 433.8 432 l 1
 433.8 432 447.2 429 481.2 429 c 0
 516.2 429 530.8 432 530.8 432 c 1
 531.2 429 l 1
 510.9 376 498.8 324 482.9 249 c 2
 470.8 192 l 2
 454.9 117 448.1 43 447 0 c 1
 444.4 -3 l 1
 431.8 -1 413.1 0 400.5 0 c 0
 386 0 379.1 -1.3 365.4 -3 c 0
 359.4 -3 356.6 -2 357 0 c 2
 365.6 64 l 1
 363.6 64 l 1
431.5 666 m 1
 434.7 667 440.9 668 445.9 668 c 0
 452.3 668 477.7 667 496 645 c 1
 496.7 634 l 1
 358.5 525 l 2
 340.3 510 331.5 506 324.5 506 c 0
 317.5 506 311.7 512 313.2 519 c 0
 315.6 530.2 319.7 534.2 330.6 547 c 2
 431.5 666 l 1
EndSplineSet
Substitution2: "'smcp' Gemeine nach Kapitaelchen 1" uacute.sc
AlternateSubs2: "'aalt' Alle Alternativen zeigen 1" uacute.sc
Colour: ff00ff
EndChar

StartChar: ucircumflex
Encoding: 251 251 40
Width: 521
VWidth: 999
Flags: HW
HStem: -12 52<166 263 407 467> 385 57<169 241> 510 143<428 476>
VStem: 246 253<523 523>
DStem2: 127 135 206 149 0.247598 0.968863<33.0628 181.431> 376 96 452 125 0.218267 0.975889<44.7379 342.236>
LayerCount: 2
Fore
SplineSet
363.6 64 m 1
 294.8 4 250.9 -10 209.9 -10 c 0
 110.9 -10 96.2 57 110.8 126 c 2
 136.9 249 l 2
 153 325 162.1 372 165.2 429 c 1
 167.8 432 l 1
 167.8 432 181.2 429 215.2 429 c 0
 250.2 429 264.8 432 264.8 432 c 1
 265.2 429 l 1
 244.9 376 232.8 324 216.9 249 c 2
 195.9 150 l 2
 177 61 217.6 45 247.6 45 c 0
 292.4 45 342.7 88.2 375.3 119 c 1
 402.9 249 l 2
 419 325 428.1 372 431.2 429 c 1
 433.8 432 l 1
 433.8 432 447.2 429 481.2 429 c 0
 516.2 429 530.8 432 530.8 432 c 1
 531.2 429 l 1
 510.9 376 498.8 324 482.9 249 c 2
 470.8 192 l 2
 454.9 117 448.1 43 447 0 c 1
 444.4 -3 l 1
 431.8 -1 413.1 0 400.5 0 c 0
 386 0 379.1 -1.3 365.4 -3 c 0
 359.4 -3 356.6 -2 357 0 c 2
 365.6 64 l 1
 363.6 64 l 1
416 653 m 1
 435 606 462.1 564 489.6 524 c 1
 465.6 510 l 1
 432.8 539 405 564 378.7 600 c 1
 333.6 562 296.3 537 252.6 510 c 1
 235.6 524 l 1
 280.1 564 327.2 607 366 653 c 1
 416 653 l 1
EndSplineSet
Substitution2: "'smcp' Gemeine nach Kapitaelchen 1" ucircumflex.sc
AlternateSubs2: "'aalt' Alle Alternativen zeigen 1" ucircumflex.sc
Colour: ff00ff
EndChar

StartChar: ebreve
Encoding: 277 277 41
Width: 441
VWidth: 999
Flags: HW
HStem: -12 49<195 327> 238 39<122 316> 408 34<193 288> 500 57<167 304>
VStem: 42 76<126 275 277 312> 101 27<598 636> 320 80<262 362> 344 26<597 636>
LayerCount: 2
Fore
SplineSet
183.3 197.5 m 1
 182.6 190.1 181.5 175.1 181.5 165.9 c 0
 181.5 77.1 220.5 38 265 38 c 0
 312.9 38 372 89 400.4 139 c 1
 406.5 138 l 1
 409 125 411 98 416.4 87.2 c 1
 377 32 312.2 -10 228.1 -10 c 0
 144 -10 93 60.9 93 142.8 c 0
 93 269.2 176.9 439 353.5 439 c 0
 427.5 439 455 410.4 455 367.4 c 0
 455 329 447.5 248.2 183.3 197.5 c 1
380 368.6 m 0
 380 395.4 364.6 403 330.5 403 c 0
 283.1 403 224.1 374.1 188.4 232 c 1
 267.7 238.8 380 280.3 380 368.6 c 0
251.7 648 m 1
 251.4 595 286.6 558 340.6 558 c 0
 392.6 558 445.4 590 467.7 648 c 1
 492.1 636 l 1
 461.8 550 387.4 501 328.4 501 c 0
 258.4 501 218 551 222.1 636 c 1
 251.7 648 l 1
EndSplineSet
Colour: ff00ff
EndChar

StartChar: Edotaccent
Encoding: 278 278 42
Width: 522
VWidth: 999
Flags: HW
HStem: 0 54<186.656 409.594> 321 42<182 388.188> 596 49<186.656 403.188> 688 104<238.25 321.469>
VStem: 96 86<55.2087 321 363 594.385> 228 104<698.542 781.752>
LayerCount: 2
Fore
SplineSet
224.5 200 m 2
 220.9 183 199.6 78 201.5 54 c 1
 335.5 54 486 66 486 66 c 1
 487.2 62 l 1
 484.5 54 480.3 39 478.2 29 c 0
 476.1 19 476 14 474 0 c 1
 471.4 -3 l 1
 455.8 -1 433 0 412 0 c 2
 139 0 l 2
 104 0 86.4 -3 86.4 -3 c 1
 86 0 l 1
 105.5 54 122.6 125 138.5 200 c 2
 190.6 445 l 2
 206.5 520 219 588 223.1 645 c 1
 225.7 648 l 1
 225.7 648 242.1 645 276.1 645 c 0
 306.1 645 539.1 645 539.1 645 c 2
 560.1 645 583.3 646 599.7 648 c 1
 601.1 645 l 1
 597.1 631 594.2 622 592.5 614 c 0
 590.6 605 589.7 596 589 588 c 1
 586.1 584 l 1
 586.1 584 450.7 596 316.7 596 c 1
 304.6 572 280.2 462 276.6 445 c 2
 259.2 363 l 1
 377.2 363 424.2 368 484.3 373 c 1
 486.6 370 l 1
 482.7 361 479.6 351 477.7 342 c 0
 475.8 333 474.6 323 474.7 314 c 1
 471.1 311 l 1
 403.6 318 298.2 321 250.2 321 c 1
 224.5 200 l 2
386.3 740 m 0
 392 767 421.1 791 448.1 791 c 0
 475.1 791 494 767 488.3 740 c 0
 482.6 713 453.5 689 426.5 689 c 0
 399.5 689 380.6 713 386.3 740 c 0
EndSplineSet
Position2: "'cpsp' Versalabstaende 1" dx=2 dy=0 dh=5 dv=0
Colour: ff00ff
EndChar

StartChar: edotaccent
Encoding: 279 279 43
Width: 441
VWidth: 999
Flags: HW
HStem: -12 48<200 307> 411 31<262 358> 522 96<306 378>
VStem: 83 83<72 230> 294 97<534 606> 365 69<308 407>
LayerCount: 2
Back
SplineSet
-98.3887 618.652 m 5
 520.264 618.652 l 5
 520.508 522.949 l 5
 -98.6328 522.949 l 5
 -98.3887 618.652 l 5
510.742 502.441 m 5
 481.934 549.316 444.336 594.727 409.668 632.324 c 5
 430.176 645.508 l 5
 469.238 616.699 501.465 591.309 535.645 555.176 c 5
 572.754 593.262 606.445 618.652 643.555 645.508 c 5
 662.598 632.324 l 5
 627.93 592.773 589.844 548.34 560.547 502.441 c 5
 510.742 502.441 l 5
-210.449 647.949 m 5
 -208.496 596.68 -162.109 556.152 -101.562 556.152 c 4
 -55.6641 556.152 3.90625 585.938 6.34766 647.949 c 5
 32.7148 634.277 l 5
 22.9492 533.691 -51.7578 499.023 -101.562 499.023 c 4
 -179.199 499.023 -229.98 556.641 -237.305 634.277 c 5
 -210.449 647.949 l 5
144.043 645.508 m 5
 172.852 598.633 209.473 555.664 245.117 515.625 c 5
 224.609 502.441 l 5
 185.547 531.25 151.855 556.152 118.164 592.285 c 5
 81.0547 554.199 48.3398 529.297 11.2305 502.441 c 5
 -8.30078 515.625 l 5
 26.8555 555.176 64.9414 599.609 94.2383 645.508 c 5
 144.043 645.508 l 5
-98.3887 664.062 m 5
 520.264 664.062 l 5
 520.264 500.732 l 5
 -98.3887 500.732 l 5
 -98.3887 664.062 l 5
438.477 662.598 m 21
 441.895 664.062 448.242 665.039 453.125 665.039 c 4
 481.123 665.039 493.569 654.214 501.953 646.704 c 4
 504.258 644.639 506.309 642.856 508.301 641.602 c 5
 510.742 630.859 l 5
 395.996 521.973 l 6
 380.371 507.324 373.535 502.441 367.188 502.441 c 4
 359.375 502.441 352.539 507.974 352.539 514.487 c 4
 352.539 519.858 352.631 527.246 358.887 537.109 c 6
 438.477 662.598 l 21
-98.3887 616.211 m 5
 520.264 616.211 l 5
 520.508 525.391 l 5
 -98.6328 525.391 l 5
 -98.3887 616.211 l 5
80.0781 570.801 m 4
 80.0781 595.703 100.586 616.211 125.488 616.211 c 4
 150.391 616.211 170.898 595.703 170.898 570.801 c 4
 170.898 545.898 150.391 525.391 125.488 525.391 c 4
 100.586 525.391 80.0781 545.898 80.0781 570.801 c 4
240.723 570.801 m 4
 240.723 595.703 261.23 616.211 286.133 616.211 c 4
 311.035 616.211 331.543 595.703 331.543 570.801 c 4
 331.543 545.898 311.035 525.391 286.133 525.391 c 4
 261.23 525.391 240.723 545.898 240.723 570.801 c 4
EndSplineSet
Fore
SplineSet
183.3 197.5 m 1
 182.6 190.1 181.5 175.1 181.5 165.9 c 0
 181.5 77.1 220.5 38 265 38 c 0
 312.9 38 372 89 400.4 139 c 1
 406.5 138 l 1
 409 125 411 98 416.4 87.2 c 1
 377 32 312.2 -10 228.1 -10 c 0
 144 -10 93 60.9 93 142.8 c 0
 93 269.2 176.9 439 353.5 439 c 0
 427.5 439 455 410.4 455 367.4 c 0
 455 329 447.5 248.2 183.3 197.5 c 1
380 368.6 m 0
 380 395.4 364.6 403 330.5 403 c 0
 283.1 403 224.1 374.1 188.4 232 c 1
 267.7 238.8 380 280.3 380 368.6 c 0
279 571 m 0
 284.7 598 313.9 622 340.9 622 c 0
 367.9 622 386.7 598 381 571 c 0
 375.3 544 346.2 520 319.2 520 c 0
 292.2 520 273.3 544 279 571 c 0
EndSplineSet
Colour: ff00ff
EndChar

StartChar: Eogonek
Encoding: 280 280 44
Width: 522
VWidth: 999
Flags: HW
HStem: -224 39<325.188 408.938> 0 25<394.25 430.875> 0 54<186.656 409.594> 321 42<182 388.188> 596 49<186.656 403.188>
VStem: 96 86<55.2087 321 363 594.385> 251 60<-173.091 -74.5789>
LayerCount: 2
Fore
SplineSet
296.4 -224 m 0
 243.4 -224 210 -193 221.5 -139 c 0
 231.6 -91.5 283.9 -33.4 351.2 -0 c 1
 139 0 l 2
 104 0 86.4 -3 86.4 -3 c 1
 86 0 l 1
 105.5 54 122.6 125 138.5 200 c 2
 190.6 445 l 2
 206.5 520 219 588 223.1 645 c 1
 225.7 648 l 1
 225.7 648 242.1 645 276.1 645 c 0
 306.1 645 539.1 645 539.1 645 c 2
 560.1 645 583.3 646 599.7 648 c 1
 601.1 645 l 1
 597.1 631 594.2 622 592.5 614 c 0
 590.6 605 589.7 596 589 588 c 1
 586.1 584 l 1
 586.1 584 450.7 596 316.7 596 c 1
 304.6 572 280.2 462 276.6 445 c 2
 259.2 363 l 1
 377.2 363 424.2 368 484.3 373 c 1
 486.6 370 l 1
 482.7 361 479.6 351 477.7 342 c 0
 475.8 333 474.6 323 474.7 314 c 1
 471.1 311 l 1
 403.6 318 298.2 321 250.2 321 c 1
 224.5 200 l 2
 220.9 183 199.6 78 201.5 54 c 1
 335.5 54 486 66 486 66 c 1
 487.2 62 l 1
 484.5 54 480.3 39 478.2 29 c 0
 476.1 19 476 14 474 0 c 1
 471.4 -3 l 1
 461.6 -1.7 449 -0.9 435.7 -0.4 c 1
 360 -6.4 294.6 -77.2 284.2 -126 c 0
 277.4 -158 293.7 -185 329.7 -185 c 0
 359.7 -185 382.8 -170 407.3 -149 c 1
 420.6 -157 l 1
 386.6 -204 332.4 -224 296.4 -224 c 0
EndSplineSet
Position2: "'cpsp' Versalabstaende 1" dx=2 dy=0 dh=5 dv=0
Substitution2: "'c2sc' Versale nach Kapitaelchen 1" eogonek.sc
Colour: ff80cc
EndChar

StartChar: eogonek
Encoding: 281 281 45
Width: 437
VWidth: 999
Flags: HW
HStem: -208 39<240 322> -12 48<201 289> 411 31<276 393>
VStem: 75 83<82 212> 171 61<-162 -77> 398 69<311 404>
LayerCount: 2
Back
SplineSet
311.768 -193.359 m 4
 258.057 -193.359 218.506 -162.598 218.506 -107.91 c 4
 218.506 -42.9688 293.213 41.5039 392.334 56.1523 c 5
 413.33 30.7617 l 5
 333.13 30.7617 278.564 -43.9453 278.564 -95.7031 c 4
 278.564 -127.441 300.537 -153.809 336.67 -153.809 c 4
 366.455 -153.809 386.963 -139.404 406.25 -118.652 c 5
 421.387 -126.221 l 5
 397.705 -173.34 347.21 -193.359 311.768 -193.359 c 4
EndSplineSet
Fore
SplineSet
468 370 m 0
 468 332 433 219 159 185 c 1
 158 177 158 170 158 165 c 0
 158 74 212 36 257 36 c 0
 305 36 349 64 402 122 c 1
 424 106 l 1
 399 71 372 44 342 24 c 1
 302 -7 232 -69 232 -125 c 0
 232 -148 251 -170 284 -170 c 0
 314 -170 333 -156 358 -134 c 1
 372 -141 l 1
 335 -186 295 -208 254 -208 c 0
 206 -208 171 -186 171 -142 c 0
 171 -93 212 -46 255 -10 c 1
 244 -11 233 -12 221 -12 c 0
 119 -12 75 57 75 142 c 0
 75 269 189 442 360 442 c 0
 441 442 468 405 468 370 c 0
164 211 m 1
 240 218 398 260 398 371 c 0
 398 400 373 411 338 411 c 0
 289 411 198 363 164 211 c 1
EndSplineSet
AlternateSubs2: "'aalt' Alle Alternativen zeigen 1" eogonek.sc
Substitution2: "'smcp' Gemeine nach Kapitaelchen 1" eogonek.sc
Colour: ff00ff
EndChar

StartChar: Ecaron
Encoding: 282 282 46
Width: 522
VWidth: 999
Flags: HW
HStem: 0 54<186.656 409.594> 321 42<182 388.188> 596 49<186.656 403.188>
VStem: 96 86<55.2087 321 363 594.385>
LayerCount: 2
Fore
SplineSet
224.5 200 m 2
 220.9 183 199.6 78 201.5 54 c 1
 335.5 54 486 66 486 66 c 1
 487.2 62 l 1
 484.5 54 480.3 39 478.2 29 c 0
 476.1 19 476 14 474 0 c 1
 471.4 -3 l 1
 455.8 -1 433 0 412 0 c 2
 139 0 l 2
 104 0 86.4 -3 86.4 -3 c 1
 86 0 l 1
 105.5 54 122.6 125 138.5 200 c 2
 190.6 445 l 2
 206.5 520 219 588 223.1 645 c 1
 225.7 648 l 1
 225.7 648 242.1 645 276.1 645 c 0
 306.1 645 539.1 645 539.1 645 c 2
 560.1 645 583.3 646 599.7 648 c 1
 601.1 645 l 1
 597.1 631 594.2 622 592.5 614 c 0
 590.6 605 589.7 596 589 588 c 1
 586.1 584 l 1
 586.1 584 450.7 596 316.7 596 c 1
 304.6 572 280.2 462 276.6 445 c 2
 259.2 363 l 1
 377.2 363 424.2 368 484.3 373 c 1
 486.6 370 l 1
 482.7 361 479.6 351 477.7 342 c 0
 475.8 333 474.6 323 474.7 314 c 1
 471.1 311 l 1
 403.6 318 298.2 321 250.2 321 c 1
 224.5 200 l 2
416.2 697 m 1
 394.1 734 365.3 764 335.3 792 c 1
 355.6 812 l 1
 391 795 420.9 776 448.6 751 c 1
 491.1 777 527.2 796 568.6 812 c 1
 579.3 792 l 1
 535.1 763 496.4 731 459.2 697 c 1
 416.2 697 l 1
EndSplineSet
Position2: "'cpsp' Versalabstaende 1" dx=2 dy=0 dh=5 dv=0
Substitution2: "'c2sc' Versale nach Kapitaelchen 1" ecaron.sc
Colour: ff00ff
EndChar

StartChar: ecaron
Encoding: 283 283 47
Width: 441
VWidth: 999
Flags: HW
HStem: -12 48<200 307> 411 31<262 358>
VStem: 83 83<72 230> 365 69<308 407>
LayerCount: 2
Back
SplineSet
518.555 502.441 m 5
 489.746 549.316 452.148 594.727 417.48 632.324 c 5
 437.988 645.508 l 5
 477.051 616.699 509.277 591.309 543.457 555.176 c 5
 580.566 593.262 614.258 618.652 651.367 645.508 c 5
 670.41 632.324 l 5
 635.742 592.773 597.656 548.34 568.359 502.441 c 5
 518.555 502.441 l 5
-202.637 647.949 m 5
 -200.684 596.68 -154.297 556.152 -93.75 556.152 c 4
 -47.8516 556.152 11.7188 585.938 14.1602 647.949 c 5
 40.5273 634.277 l 5
 30.7617 533.691 -43.9453 499.023 -93.75 499.023 c 4
 -171.387 499.023 -222.168 556.641 -229.492 634.277 c 5
 -202.637 647.949 l 5
151.855 645.508 m 5
 180.664 598.633 217.285 555.664 252.93 515.625 c 5
 232.422 502.441 l 5
 193.359 531.25 159.668 556.152 125.977 592.285 c 5
 88.8672 554.199 56.1523 529.297 19.043 502.441 c 5
 -0.488281 515.625 l 5
 34.668 555.176 72.7539 599.609 102.051 645.508 c 5
 151.855 645.508 l 5
-90.5762 664.062 m 5
 528.076 664.062 l 5
 528.076 500.732 l 5
 -90.5762 500.732 l 5
 -90.5762 664.062 l 5
446.289 662.598 m 21
 449.707 664.062 456.055 665.039 460.938 665.039 c 4
 488.936 665.039 501.382 654.214 509.766 646.704 c 4
 512.07 644.639 514.121 642.856 516.113 641.602 c 5
 518.555 630.859 l 5
 403.809 521.973 l 6
 388.184 507.324 381.348 502.441 375 502.441 c 4
 367.188 502.441 360.352 507.974 360.352 514.487 c 4
 360.352 519.858 360.443 527.246 366.699 537.109 c 6
 446.289 662.598 l 21
-90.5762 616.211 m 5
 528.076 616.211 l 5
 528.076 525.635 l 5
 -90.5762 525.635 l 5
 -90.5762 616.211 l 5
87.8906 570.801 m 4
 87.8906 595.703 108.398 616.211 133.301 616.211 c 4
 158.203 616.211 178.711 595.703 178.711 570.801 c 4
 178.711 545.898 158.203 525.391 133.301 525.391 c 4
 108.398 525.391 87.8906 545.898 87.8906 570.801 c 4
248.535 570.801 m 4
 248.535 595.703 269.043 616.211 293.945 616.211 c 4
 318.848 616.211 339.355 595.703 339.355 570.801 c 4
 339.355 545.898 318.848 525.391 293.945 525.391 c 4
 269.043 525.391 248.535 545.898 248.535 570.801 c 4
EndSplineSet
Fore
SplineSet
183.3 197.5 m 1
 182.6 190.1 181.5 175.1 181.5 165.9 c 0
 181.5 77.1 220.5 38 265 38 c 0
 312.9 38 372 89 400.4 139 c 1
 406.5 138 l 1
 409 125 411 98 416.4 87.2 c 1
 377 32 312.2 -10 228.1 -10 c 0
 144 -10 93 60.9 93 142.8 c 0
 93 269.2 176.9 439 353.5 439 c 0
 427.5 439 455 410.4 455 367.4 c 0
 455 329 447.5 248.2 183.3 197.5 c 1
380 368.6 m 0
 380 395.4 364.6 403 330.5 403 c 0
 283.1 403 224.1 374.1 188.4 232 c 1
 267.7 238.8 380 280.3 380 368.6 c 0
292.1 501 m 1
 273.1 548 245.6 593 218.7 631 c 1
 241.5 644 l 1
 274.3 615 302.1 590 328.4 554 c 1
 373.5 592 412.8 617 455.5 644 c 1
 471.7 631 l 1
 428.4 592 380.9 547 342.1 501 c 1
 292.1 501 l 1
EndSplineSet
AlternateSubs2: "'aalt' Alle Alternativen zeigen 1" ecaron.sc
Substitution2: "'smcp' Gemeine nach Kapitaelchen 1" ecaron.sc
Colour: ff00ff
EndChar

StartChar: Gcircumflex
Encoding: 284 284 48
Width: 699
VWidth: 999
Flags: HW
HStem: -10 46<295.106 519.78> 611 47<271.555 476.844>
VStem: 32 103<213.43 430.807> 546 86<83.5114 304.327>
LayerCount: 2
Fore
SplineSet
570.9 117 m 1
 585.4 192 597.2 250 601.3 307 c 1
 603.9 310 l 1
 603.9 310 620.3 307 654.3 307 c 0
 689.3 307 706.9 310 706.9 310 c 1
 707.3 307 l 1
 688 254 677.3 211.9 661.1 137 c 2
 659.8 131 l 2
 657.5 120 653.2 93.7 659.6 83 c 1
 659 80 l 1
 579.5 23.4 490.4 -10 373.9 -10 c 0
 172.9 -10 60.5 134 97.3 307 c 0
 144.1 527 348.9 658 520.9 658 c 0
 642.9 658 729.3 613 729.3 613 c 1
 730.7 610 l 1
 708.5 560.7 701.5 550 687.1 499 c 1
 676.9 498 l 1
 653.3 580 586.9 611 496.9 611 c 0
 361.9 611 241.7 502 204.5 327 c 0
 176.4 195 228.7 36 406.7 36 c 0
 460.7 36 520.9 42 561.7 74 c 1
 570.9 117 l 1
556.1 805 m 1
 578.4 769 606.8 738 637.1 711 c 1
 616.7 690 l 1
 581.5 708 551.5 727 523.8 752 c 1
 481.1 725 445.3 707 403.7 690 c 1
 394.1 711 l 1
 437.1 739 474.9 771 513.1 805 c 1
 556.1 805 l 1
EndSplineSet
Position2: "'cpsp' Versalabstaende 1" dx=2 dy=0 dh=5 dv=0
Colour: ff00ff
EndChar

StartChar: gcircumflex
Encoding: 285 285 49
Width: 479
VWidth: 999
Flags: HW
HStem: -238 43<141.427 314.366> -15 62<137.607 251.772> -12 66<172.809 355.253> 136 44<169.974 279.135> 395 44<163.808 275.455>
VStem: 32 66<-157.208 -57.419> 59 78<215.424 363.363> 64 56<55.5258 149.891> 103 253<516 516> 308 76<209.668 361.501> 392 61<-135.741 -44.0939>
LayerCount: 2
Fore
SplineSet
367.3 279 m 0
 383.2 354 358 395 298 395 c 0
 246 395 210.8 347 201.2 302 c 0
 187.6 238 199.3 180 265.3 180 c 0
 300.3 180 352.2 208 367.3 279 c 0
445.4 289 m 0
 424.6 191 334.9 136 250.9 136 c 0
 213.9 136 190.4 143 170.4 157 c 1
 155.8 140 145.3 119 141 99 c 0
 131.9 56 160 47 188 47 c 0
 193 47 203.2 48 217.4 49 c 0
 241 52 264.5 54 281.5 54 c 0
 316.5 54 384.8 53 415.5 21 c 0
 438.4 -2.9 445.3 -36 438.5 -68 c 0
 415.5 -176 262.4 -238 133.4 -238 c 0
 60.4 -238 -12.9 -211 5.6 -124 c 0
 14.7 -81 51.6 -35 109.4 -3 c 1
 87.2 10 72 38 79.7 74 c 0
 86.9 108 111.1 151 143.2 175 c 1
 121.9 202 108.5 233 120 287 c 0
 139.6 379 231.3 439 316.3 439 c 0
 337.8 439 357.1 436 373.8 430.4 c 1
 449.2 434.3 486.7 444.9 535.4 449 c 1
 537.8 446 l 1
 533.9 437 531.2 429 529.3 420 c 0
 527.4 411 526.6 403 526.7 394 c 1
 523.1 391 l 1
 482.8 395.2 450.6 399 421 401.4 c 1
 446.1 375 455.4 336.1 445.4 289 c 0
144.2 -13.7 m 1
 101.2 -42.9 82.9 -70.9 75.9 -104 c 0
 61.5 -172 136.6 -195 170.6 -195 c 0
 256.6 -195 359.7 -152 372.7 -91 c 0
 378.2 -65 374.7 -50.8 341.8 -29 c 0
 317.7 -13 280.4 -12 232.4 -12 c 0
 218.6 -12 192.3 -15 162.8 -15 c 0
 156.9 -15 150.4 -14.5 144.2 -13.7 c 1
392.1 645 m 1
 411.1 598 438.2 556 465.7 516 c 1
 441.7 502 l 1
 408.9 531 381.1 556 354.8 592 c 1
 309.7 554 272.4 529 228.7 502 c 1
 211.7 516 l 1
 256.2 556 303.3 599 342.1 645 c 1
 392.1 645 l 1
EndSplineSet
Colour: ff00ff
EndChar

StartChar: Gbreve
Encoding: 286 286 50
Width: 699
VWidth: 999
Flags: HW
HStem: -10 46<295.106 519.78> 611 47<271.555 476.844> 693 52<293 449>
VStem: 32 103<213.43 430.807> 236 28<766 804> 480 27<768 806> 546 86<83.5114 304.327>
LayerCount: 2
Fore
SplineSet
570.9 117 m 1
 585.4 192 597.2 250 601.3 307 c 1
 603.9 310 l 1
 603.9 310 620.3 307 654.3 307 c 0
 689.3 307 706.9 310 706.9 310 c 1
 707.3 307 l 1
 688 254 677.3 211.9 661.1 137 c 2
 659.8 131 l 2
 657.5 120 653.2 93.7 659.6 83 c 1
 659 80 l 1
 579.5 23.4 490.4 -10 373.9 -10 c 0
 172.9 -10 60.5 134 97.3 307 c 0
 144.1 527 348.9 658 520.9 658 c 0
 642.9 658 729.3 613 729.3 613 c 1
 730.7 610 l 1
 708.5 560.7 701.5 550 687.1 499 c 1
 676.9 498 l 1
 653.3 580 586.9 611 496.9 611 c 0
 361.9 611 241.7 502 204.5 327 c 0
 176.4 195 228.7 36 406.7 36 c 0
 460.7 36 520.9 42 561.7 74 c 1
 570.9 117 l 1
679.3 806 m 1
 658.2 735 585.3 693 519.3 693 c 0
 446.3 693 397.4 736 407.3 806 c 1
 435.3 806 l 1
 435 767 477.4 745 530.4 745 c 0
 579.4 745 636 767 651.3 806 c 1
 679.3 806 l 1
EndSplineSet
Position2: "'cpsp' Versalabstaende 1" dx=2 dy=0 dh=5 dv=0
Substitution2: "'c2sc' Versale nach Kapitaelchen 1" gbreve.sc
Colour: ff00ff
EndChar

StartChar: gbreve
Encoding: 287 287 51
Width: 479
VWidth: 999
Flags: HW
HStem: -238 43<141.427 314.366> -15 62<137.607 251.772> -12 66<172.809 355.253> 136 44<169.974 279.135> 395 44<163.808 275.455> 497 57<150.968 287.898>
VStem: 32 66<-157.208 -57.419> 59 78<215.424 363.363> 64 56<55.5258 149.891> 85 26<603.805 635.769> 308 76<209.668 361.501> 328 27<605.333 635.63> 392 61<-135.741 -44.0939>
LayerCount: 2
Fore
SplineSet
367.3 279 m 0
 383.2 354 358 395 298 395 c 0
 246 395 210.8 347 201.2 302 c 0
 187.6 238 199.3 180 265.3 180 c 0
 300.3 180 352.2 208 367.3 279 c 0
445.4 289 m 0
 424.6 191 334.9 136 250.9 136 c 0
 213.9 136 190.4 143 170.4 157 c 1
 155.8 140 145.3 119 141 99 c 0
 131.9 56 160 47 188 47 c 0
 193 47 203.2 48 217.4 49 c 0
 241 52 264.5 54 281.5 54 c 0
 316.5 54 384.8 53 415.5 21 c 0
 438.4 -2.9 445.3 -36 438.5 -68 c 0
 415.5 -176 262.4 -238 133.4 -238 c 0
 60.4 -238 -12.9 -211 5.6 -124 c 0
 14.7 -81 51.6 -35 109.4 -3 c 1
 87.2 10 72 38 79.7 74 c 0
 86.9 108 111.1 151 143.2 175 c 1
 121.9 202 108.5 233 120 287 c 0
 139.6 379 231.3 439 316.3 439 c 0
 337.8 439 357.1 436 373.8 430.4 c 1
 449.2 434.3 486.7 444.9 535.4 449 c 1
 537.8 446 l 1
 533.9 437 531.2 429 529.3 420 c 0
 527.4 411 526.6 403 526.7 394 c 1
 523.1 391 l 1
 482.8 395.2 450.6 399 421 401.4 c 1
 446.1 375 455.4 336.1 445.4 289 c 0
144.2 -13.7 m 1
 101.2 -42.9 82.9 -70.9 75.9 -104 c 0
 61.5 -172 136.6 -195 170.6 -195 c 0
 256.6 -195 359.7 -152 372.7 -91 c 0
 378.2 -65 374.7 -50.8 341.8 -29 c 0
 317.7 -13 280.4 -12 232.4 -12 c 0
 218.6 -12 192.3 -15 162.8 -15 c 0
 156.9 -15 150.4 -14.5 144.2 -13.7 c 1
248.9 644 m 1
 248.6 591 283.8 554 337.8 554 c 0
 389.8 554 442.6 586 464.9 644 c 1
 489.3 632 l 1
 459 546 384.6 497 325.6 497 c 0
 255.6 497 215.2 547 219.3 632 c 1
 248.9 644 l 1
EndSplineSet
AlternateSubs2: "'aalt' Alle Alternativen zeigen 1" gbreve.sc
Substitution2: "'smcp' Gemeine nach Kapitaelchen 1" gbreve.sc
Colour: ff00ff
EndChar

StartChar: Gdotaccent
Encoding: 288 288 52
Width: 699
VWidth: 999
Flags: HW
HStem: -10 46<295.106 519.78> 611 47<271.555 476.844> 701 104<333.248 416.458>
VStem: 32 103<213.43 430.807> 323 104<711.542 794.752> 546 86<83.5114 304.327>
LayerCount: 2
Fore
SplineSet
570.9 117 m 1
 585.4 192 597.2 250 601.3 307 c 1
 603.9 310 l 1
 603.9 310 620.3 307 654.3 307 c 0
 689.3 307 706.9 310 706.9 310 c 1
 707.3 307 l 1
 688 254 677.3 211.9 661.1 137 c 2
 659.8 131 l 2
 657.5 120 653.2 93.7 659.6 83 c 1
 659 80 l 1
 579.5 23.4 490.4 -10 373.9 -10 c 0
 172.9 -10 60.5 134 97.3 307 c 0
 144.1 527 348.9 658 520.9 658 c 0
 642.9 658 729.3 613 729.3 613 c 1
 730.7 610 l 1
 708.5 560.7 701.5 550 687.1 499 c 1
 676.9 498 l 1
 653.3 580 586.9 611 496.9 611 c 0
 361.9 611 241.7 502 204.5 327 c 0
 176.4 195 228.7 36 406.7 36 c 0
 460.7 36 520.9 42 561.7 74 c 1
 570.9 117 l 1
484.1 753 m 0
 489.8 780 518.9 804 545.9 804 c 0
 572.9 804 591.8 780 586.1 753 c 0
 580.4 726 551.2 702 524.2 702 c 0
 497.2 702 478.4 726 484.1 753 c 0
EndSplineSet
Position2: "'cpsp' Versalabstaende 1" dx=2 dy=0 dh=5 dv=0
Colour: ff00ff
EndChar

StartChar: gdotaccent
Encoding: 289 289 53
Width: 479
VWidth: 999
Flags: HW
HStem: -238 43<141.427 314.366> -15 62<137.607 251.772> -12 66<172.809 355.253> 136 44<169.974 279.135> 395 44<163.808 275.455> 518 104<183.248 266.458>
VStem: 32 66<-157.208 -57.419> 59 78<215.424 363.363> 64 56<55.5258 149.891> 173 104<528.542 611.752> 308 76<209.668 361.501> 392 61<-135.741 -44.0939>
LayerCount: 2
Back
SplineSet
-98.3887 618.652 m 5
 520.264 618.652 l 5
 520.508 522.949 l 5
 -98.6328 522.949 l 5
 -98.3887 618.652 l 5
510.742 502.441 m 5
 481.934 549.316 444.336 594.727 409.668 632.324 c 5
 430.176 645.508 l 5
 469.238 616.699 501.465 591.309 535.645 555.176 c 5
 572.754 593.262 606.445 618.652 643.555 645.508 c 5
 662.598 632.324 l 5
 627.93 592.773 589.844 548.34 560.547 502.441 c 5
 510.742 502.441 l 5
-210.449 647.949 m 5
 -208.496 596.68 -162.109 556.152 -101.562 556.152 c 4
 -55.6641 556.152 3.90625 585.938 6.34766 647.949 c 5
 32.7148 634.277 l 5
 22.9492 533.691 -51.7578 499.023 -101.562 499.023 c 4
 -179.199 499.023 -229.98 556.641 -237.305 634.277 c 5
 -210.449 647.949 l 5
144.043 645.508 m 5
 172.852 598.633 209.473 555.664 245.117 515.625 c 5
 224.609 502.441 l 5
 185.547 531.25 151.855 556.152 118.164 592.285 c 5
 81.0547 554.199 48.3398 529.297 11.2305 502.441 c 5
 -8.30078 515.625 l 5
 26.8555 555.176 64.9414 599.609 94.2383 645.508 c 5
 144.043 645.508 l 5
-98.3887 664.062 m 5
 520.264 664.062 l 5
 520.264 500.732 l 5
 -98.3887 500.732 l 5
 -98.3887 664.062 l 5
438.477 662.598 m 21
 441.895 664.062 448.242 665.039 453.125 665.039 c 4
 481.123 665.039 493.569 654.214 501.953 646.704 c 4
 504.258 644.639 506.309 642.856 508.301 641.602 c 5
 510.742 630.859 l 5
 395.996 521.973 l 6
 380.371 507.324 373.535 502.441 367.188 502.441 c 4
 359.375 502.441 352.539 507.974 352.539 514.487 c 4
 352.539 519.858 352.631 527.246 358.887 537.109 c 6
 438.477 662.598 l 21
-98.3887 616.211 m 5
 520.264 616.211 l 5
 520.508 525.391 l 5
 -98.6328 525.391 l 5
 -98.3887 616.211 l 5
80.0781 570.801 m 4
 80.0781 595.703 100.586 616.211 125.488 616.211 c 4
 150.391 616.211 170.898 595.703 170.898 570.801 c 4
 170.898 545.898 150.391 525.391 125.488 525.391 c 4
 100.586 525.391 80.0781 545.898 80.0781 570.801 c 4
240.723 570.801 m 4
 240.723 595.703 261.23 616.211 286.133 616.211 c 4
 311.035 616.211 331.543 595.703 331.543 570.801 c 4
 331.543 545.898 311.035 525.391 286.133 525.391 c 4
 261.23 525.391 240.723 545.898 240.723 570.801 c 4
EndSplineSet
Fore
SplineSet
367.3 279 m 0
 383.2 354 358 395 298 395 c 0
 246 395 210.8 347 201.2 302 c 0
 187.6 238 199.3 180 265.3 180 c 0
 300.3 180 352.2 208 367.3 279 c 0
445.4 289 m 0
 424.6 191 334.9 136 250.9 136 c 0
 213.9 136 190.4 143 170.4 157 c 1
 155.8 140 145.3 119 141 99 c 0
 131.9 56 160 47 188 47 c 0
 193 47 203.2 48 217.4 49 c 0
 241 52 264.5 54 281.5 54 c 0
 316.5 54 384.8 53 415.5 21 c 0
 438.4 -2.9 445.3 -36 438.5 -68 c 0
 415.5 -176 262.4 -238 133.4 -238 c 0
 60.4 -238 -12.9 -211 5.6 -124 c 0
 14.7 -81 51.6 -35 109.4 -3 c 1
 87.2 10 72 38 79.7 74 c 0
 86.9 108 111.1 151 143.2 175 c 1
 121.9 202 108.5 233 120 287 c 0
 139.6 379 231.3 439 316.3 439 c 0
 337.8 439 357.1 436 373.8 430.4 c 1
 449.2 434.3 486.7 444.9 535.4 449 c 1
 537.8 446 l 1
 533.9 437 531.2 429 529.3 420 c 0
 527.4 411 526.6 403 526.7 394 c 1
 523.1 391 l 1
 482.8 395.2 450.6 399 421 401.4 c 1
 446.1 375 455.4 336.1 445.4 289 c 0
144.2 -13.7 m 1
 101.2 -42.9 82.9 -70.9 75.9 -104 c 0
 61.5 -172 136.6 -195 170.6 -195 c 0
 256.6 -195 359.7 -152 372.7 -91 c 0
 378.2 -65 374.7 -50.8 341.8 -29 c 0
 317.7 -13 280.4 -12 232.4 -12 c 0
 218.6 -12 192.3 -15 162.8 -15 c 0
 156.9 -15 150.4 -14.5 144.2 -13.7 c 1
295.2 570 m 0
 300.9 597 330 621 357 621 c 0
 384 621 402.9 597 397.2 570 c 0
 391.5 543 362.3 519 335.3 519 c 0
 308.3 519 289.5 543 295.2 570 c 0
EndSplineSet
Colour: ff00ff
EndChar

StartChar: Gcommaaccent
Encoding: 290 290 54
Width: 699
VWidth: 999
Flags: HW
HStem: -231 17<330 351.215> -134 81<329.998 402.485> -10 46<295.106 519.78> 611 47<271.555 476.844>
VStem: 32 103<213.43 430.807> 405 32<-177.598 -107.5> 546 86<83.5114 304.327>
LayerCount: 2
Fore
SplineSet
570.9 117 m 1
 585.4 192 597.2 250 601.3 307 c 1
 603.9 310 l 1
 603.9 310 620.3 307 654.3 307 c 0
 689.3 307 706.9 310 706.9 310 c 1
 707.3 307 l 1
 688 254 677.3 211.9 661.1 137 c 2
 659.8 131 l 2
 657.5 120 653.2 93.7 659.6 83 c 1
 659 80 l 1
 579.5 23.4 490.4 -10 373.9 -10 c 0
 172.9 -10 60.5 134 97.3 307 c 0
 144.1 527 348.9 658 520.9 658 c 0
 642.9 658 729.3 613 729.3 613 c 1
 730.7 610 l 1
 708.5 560.7 701.5 550 687.1 499 c 1
 676.9 498 l 1
 653.3 580 586.9 611 496.9 611 c 0
 361.9 611 241.7 502 204.5 327 c 0
 176.4 195 228.7 36 406.7 36 c 0
 460.7 36 520.9 42 561.7 74 c 1
 570.9 117 l 1
361.8 -62 m 0
 399.8 -62 416.6 -96 405.5 -148 c 0
 392.7 -208 337.4 -238 278.5 -247 c 1
 273.8 -241 273.7 -232 275.6 -223 c 1
 326.9 -212 358.1 -188 361.9 -170 c 0
 366.2 -150 354 -146 336.4 -144 c 1
 320 -141 297 -132 302.7 -105 c 0
 307.8 -81 332.8 -62 361.8 -62 c 0
EndSplineSet
Position2: "'cpsp' Versalabstaende 1" dx=2 dy=0 dh=5 dv=0
Colour: ff00ff
EndChar

StartChar: gcommaaccent
Encoding: 291 291 55
Width: 479
VWidth: 999
Flags: HW
HStem: -238 43<141.427 314.366> -15 62<137.607 251.772> -12 66<172.809 355.253> 136 44<169.974 279.135> 395 44<163.808 275.455> 511 82<199.561 272.708> 673 17<251.498 273>
VStem: 32 66<-157.208 -57.419> 59 78<215.424 363.363> 64 56<55.5258 149.891> 166 32<584 635.93> 308 76<209.668 361.501> 392 61<-135.741 -44.0939>
LayerCount: 2
Back
SplineSet
518.555 502.441 m 5
 489.746 549.316 452.148 594.727 417.48 632.324 c 5
 437.988 645.508 l 5
 477.051 616.699 509.277 591.309 543.457 555.176 c 5
 580.566 593.262 614.258 618.652 651.367 645.508 c 5
 670.41 632.324 l 5
 635.742 592.773 597.656 548.34 568.359 502.441 c 5
 518.555 502.441 l 5
-202.637 647.949 m 5
 -200.684 596.68 -154.297 556.152 -93.75 556.152 c 4
 -47.8516 556.152 11.7188 585.938 14.1602 647.949 c 5
 40.5273 634.277 l 5
 30.7617 533.691 -43.9453 499.023 -93.75 499.023 c 4
 -171.387 499.023 -222.168 556.641 -229.492 634.277 c 5
 -202.637 647.949 l 5
151.855 645.508 m 5
 180.664 598.633 217.285 555.664 252.93 515.625 c 5
 232.422 502.441 l 5
 193.359 531.25 159.668 556.152 125.977 592.285 c 5
 88.8672 554.199 56.1523 529.297 19.043 502.441 c 5
 -0.488281 515.625 l 5
 34.668 555.176 72.7539 599.609 102.051 645.508 c 5
 151.855 645.508 l 5
-90.5762 664.062 m 5
 528.076 664.062 l 5
 528.076 500.732 l 5
 -90.5762 500.732 l 5
 -90.5762 664.062 l 5
446.289 662.598 m 21
 449.707 664.062 456.055 665.039 460.938 665.039 c 4
 488.936 665.039 501.382 654.214 509.766 646.704 c 4
 512.07 644.639 514.121 642.856 516.113 641.602 c 5
 518.555 630.859 l 5
 403.809 521.973 l 6
 388.184 507.324 381.348 502.441 375 502.441 c 4
 367.188 502.441 360.352 507.974 360.352 514.487 c 4
 360.352 519.858 360.443 527.246 366.699 537.109 c 6
 446.289 662.598 l 21
-90.5762 616.211 m 5
 528.076 616.211 l 5
 528.076 525.635 l 5
 -90.5762 525.635 l 5
 -90.5762 616.211 l 5
87.8906 570.801 m 4
 87.8906 595.703 108.398 616.211 133.301 616.211 c 4
 158.203 616.211 178.711 595.703 178.711 570.801 c 4
 178.711 545.898 158.203 525.391 133.301 525.391 c 4
 108.398 525.391 87.8906 545.898 87.8906 570.801 c 4
248.535 570.801 m 4
 248.535 595.703 269.043 616.211 293.945 616.211 c 4
 318.848 616.211 339.355 595.703 339.355 570.801 c 4
 339.355 545.898 318.848 525.391 293.945 525.391 c 4
 269.043 525.391 248.535 545.898 248.535 570.801 c 4
EndSplineSet
Fore
SplineSet
367.3 279 m 0
 383.2 354 358 395 298 395 c 0
 246 395 210.8 347 201.2 302 c 0
 187.6 238 199.3 180 265.3 180 c 0
 300.3 180 352.2 208 367.3 279 c 0
445.4 289 m 0
 424.6 191 334.9 136 250.9 136 c 0
 213.9 136 190.4 143 170.4 157 c 1
 155.8 140 145.3 119 141 99 c 0
 131.9 56 160 47 188 47 c 0
 193 47 203.2 48 217.4 49 c 0
 241 52 264.5 54 281.5 54 c 0
 316.5 54 384.8 53 415.5 21 c 0
 438.4 -2.9 445.3 -36 438.5 -68 c 0
 415.5 -176 262.4 -238 133.4 -238 c 0
 60.4 -238 -12.9 -211 5.6 -124 c 0
 14.7 -81 51.6 -35 109.4 -3 c 1
 87.2 10 72 38 79.7 74 c 0
 86.9 108 111.1 151 143.2 175 c 1
 121.9 202 108.5 233 120 287 c 0
 139.6 379 231.3 439 316.3 439 c 0
 337.8 439 357.1 436 373.8 430.4 c 1
 449.2 434.3 486.7 444.9 535.4 449 c 1
 537.8 446 l 1
 533.9 437 531.2 429 529.3 420 c 0
 527.4 411 526.6 403 526.7 394 c 1
 523.1 391 l 1
 482.8 395.2 450.6 399 421 401.4 c 1
 446.1 375 455.4 336.1 445.4 289 c 0
144.2 -13.7 m 1
 101.2 -42.9 82.9 -70.9 75.9 -104 c 0
 61.5 -172 136.6 -195 170.6 -195 c 0
 256.6 -195 359.7 -152 372.7 -91 c 0
 378.2 -65 374.7 -50.8 341.8 -29 c 0
 317.7 -13 280.4 -12 232.4 -12 c 0
 218.6 -12 192.3 -15 162.8 -15 c 0
 156.9 -15 150.4 -14.5 144.2 -13.7 c 1
336.6 511 m 0
 297.6 511 282.4 548 290.1 584 c 0
 295.2 608 306.9 630 327.2 650 c 0
 348.6 671.1 380.2 688 419.3 693 c 1
 422.4 689 421.6 680 420.1 673 c 1
 360.5 661 333.7 629 328.8 606 c 0
 324.6 586.4 330.8 593 355 593 c 0
 395 593 399.9 569 396.3 552 c 0
 392.9 536 371.6 511 336.6 511 c 0
EndSplineSet
Colour: ff00ff
EndChar

StartChar: Hcircumflex
Encoding: 292 292 56
Width: 700
VWidth: 999
Flags: HW
HStem: -3 21<93 146 146 199 501 554 554 607> 321 42<187 513> 628 20<93 146 146 199 501 554 554 607>
VStem: 103 86<2.67992 642.32> 511 86<2.67992 642.32>
LayerCount: 2
Fore
SplineSet
538.7 803 m 1
 561 767 589.4 736 619.7 709 c 1
 599.2 688 l 1
 564 706 534.1 725 506.4 750 c 1
 463.7 723 427.8 705 386.2 688 c 1
 376.7 709 l 1
 419.7 737 457.5 769 495.7 803 c 1
 538.7 803 l 1
605.6 445 m 2
 621.5 520 634 588 638.1 645 c 1
 640.7 648 l 1
 640.7 648 657.1 645 691.1 645 c 0
 726.1 645 743.7 648 743.7 648 c 1
 744.1 645 l 1
 724.8 592 707.5 520 691.6 445 c 2
 639.5 200 l 2
 623.6 125 611.1 57 607 0 c 1
 604.4 -3 l 1
 604.4 -3 588 0 554 0 c 0
 519 0 501.4 -3 501.4 -3 c 1
 501 0 l 1
 520.5 54 537.6 125 553.5 200 c 2
 579.2 321 l 1
 257.2 321 l 1
 231.5 200 l 2
 215.6 125 203.1 57 199 0 c 1
 196.4 -3 l 1
 196.4 -3 180 0 146 0 c 0
 111 0 93.4 -3 93.4 -3 c 1
 93 0 l 1
 112.5 54 129.6 125 145.5 200 c 2
 197.6 445 l 2
 213.5 520 226 588 230.1 645 c 1
 232.7 648 l 1
 232.7 648 249.1 645 283.1 645 c 0
 318.1 645 335.7 648 335.7 648 c 1
 336.1 645 l 1
 316.8 592 299.5 520 283.6 445 c 2
 266.2 363 l 1
 588.2 363 l 1
 605.6 445 l 2
EndSplineSet
Position2: "'cpsp' Versalabstaende 1" dx=2 dy=0 dh=5 dv=0
Colour: ff00ff
EndChar

StartChar: hcircumflex
Encoding: 293 293 57
Width: 520
VWidth: 999
Flags: HW
HStem: -3 21<73 123 123 173 348 398 398 448> 382 57<239.694 343.936> 678 20<151.465 167.167>
VStem: 83 80<2.66453 327.568 360 667.98> 358 80<2.66453 368.709>
LayerCount: 2
Fore
SplineSet
396.3 180 m 2
 418.6 285 l 2
 435.8 366 420.2 382 364.2 382 c 0
 335.2 382 286.7 356 228.7 309 c 1
 201.3 180 l 2
 185.1 103.8 176.6 57 173 0 c 1
 170.4 -3 l 1
 170.4 -3 157.3 0 123 0 c 0
 88 0 73.4 -3 73.4 -3 c 1
 73 0 l 1
 92.9 53.5 105.5 105.5 121.3 180 c 2
 185.2 481 l 2
 201.3 557 214 627.3 215.4 670 c 1
 218.1 673 l 1
 259.2 676 285.2 688 312.4 698 c 1
 318.7 698 320.7 695 319.2 688 c 0
 298.5 626.7 285.2 575 269.5 501 c 2
 239.5 360 l 1
 320.7 427 382.3 439 421.3 439 c 0
 493.3 439 520.3 387 498.4 284 c 2
 476.3 180 l 2
 460.1 103.8 451.6 57 448 0 c 1
 445.4 -3 l 1
 445.4 -3 432.3 0 398 0 c 0
 363 0 348.4 -3 348.4 -3 c 1
 348 0 l 1
 367.9 53.5 380.5 105.5 396.3 180 c 2
462.8 832 m 1
 485.1 796 513.6 765 543.9 738 c 1
 523.4 717 l 1
 488.2 735 458.3 754 430.6 779 c 1
 387.9 752 352 734 310.4 717 c 1
 300.9 738 l 1
 343.9 766 381.6 798 419.8 832 c 1
 462.8 832 l 1
EndSplineSet
Colour: ff00ff
EndChar

StartChar: Hbar
Encoding: 294 294 58
Width: 700
VWidth: 999
Flags: HW
HStem: -3 21<93 146 146 199 501 554 554 607> 321 42<187 513> 512 34<41 656> 628 20<93 146 146 199 501 554 554 607>
VStem: 103 86<2.67992 642.32> 511 86<2.67992 642.32>
LayerCount: 2
Fore
SplineSet
579.2 321 m 1
 257.2 321 l 1
 231.5 200 l 2
 215.6 125 203.1 57 199 0 c 1
 196.4 -3 l 1
 196.4 -3 180 0 146 0 c 0
 111 0 93.4 -3 93.4 -3 c 1
 93 0 l 1
 112.5 54 129.6 125 145.5 200 c 2
 197.6 445 l 2
 202.5 468 207 490.4 211.1 512 c 1
 149.8 512 l 1
 157.1 546 l 1
 217.3 546 l 1
 223.4 581.7 227.9 614.9 230.1 645 c 1
 232.7 648 l 1
 232.7 648 249.1 645 283.1 645 c 0
 318.1 645 335.7 648 335.7 648 c 1
 336.1 645 l 1
 325.8 616.6 316.1 582.8 306.8 546 c 1
 625.3 546 l 1
 631.4 581.7 635.9 614.9 638.1 645 c 1
 640.7 648 l 1
 640.7 648 657.1 645 691.1 645 c 0
 726.1 645 743.7 648 743.7 648 c 1
 744.1 645 l 1
 733.8 616.6 724.1 582.8 714.8 546 c 1
 772.1 546 l 1
 764.8 512 l 1
 706.5 512 l 1
 701.4 490.2 696.4 467.8 691.6 445 c 2
 639.5 200 l 2
 623.6 125 611.1 57 607 0 c 1
 604.4 -3 l 1
 604.4 -3 588 0 554 0 c 0
 519 0 501.4 -3 501.4 -3 c 1
 501 0 l 1
 520.5 54 537.6 125 553.5 200 c 2
 579.2 321 l 1
588.2 363 m 1
 605.6 445 l 2
 610.5 468 615 490.4 619.1 512 c 1
 298.5 512 l 1
 293.4 490.2 288.4 467.8 283.6 445 c 2
 266.2 363 l 1
 588.2 363 l 1
EndSplineSet
Position2: "'cpsp' Versalabstaende 1" dx=2 dy=0 dh=5 dv=0
Colour: ff80cc
EndChar

StartChar: hbar
Encoding: 295 295 59
Width: 520
VWidth: 999
Flags: HW
HStem: -3 21<73 123 123 173 348 398 398 448> 382 57<239.694 343.936> 530 39<26 341> 678 20<151.465 167.167>
VStem: 83 80<2.66453 327.568 360 667.98> 358 80<2.66453 368.709>
LayerCount: 2
Fore
SplineSet
396.3 180 m 2
 418.6 285 l 2
 435.8 366 420.2 382 364.2 382 c 0
 335.2 382 286.7 356 228.7 309 c 1
 201.3 180 l 2
 185.1 103.8 176.6 57 173 0 c 1
 170.4 -3 l 1
 170.4 -3 157.3 0 123 0 c 0
 88 0 73.4 -3 73.4 -3 c 1
 73 0 l 1
 92.9 53.5 105.5 105.5 121.3 180 c 2
 185.2 481 l 1
 195.3 530 l 1
 138.7 530 l 1
 146.9 569 l 1
 202.6 569 l 1
 209.8 609.4 214.6 644.6 215.4 670 c 1
 218.1 673 l 1
 259.2 676 285.2 688 312.4 698 c 1
 318.7 698 320.7 695 319.2 688 c 0
 305.4 647.2 294.9 610.7 284.8 569 c 1
 461.9 569 l 1
 453.7 530 l 1
 275.8 530 l 1
 269.5 501 l 1
 239.5 360 l 1
 320.7 427 382.3 439 421.3 439 c 0
 493.3 439 520.3 387 498.4 284 c 2
 476.3 180 l 2
 460.1 103.8 451.6 57 448 0 c 1
 445.4 -3 l 1
 445.4 -3 432.3 0 398 0 c 0
 363 0 348.4 -3 348.4 -3 c 1
 348 0 l 1
 367.9 53.5 380.5 105.5 396.3 180 c 2
EndSplineSet
Colour: ff80cc
EndChar

StartChar: Itilde
Encoding: 296 296 60
Width: 293
VWidth: 999
Flags: HW
HStem: -3 21<96 149 149 202> 628 20<96 149 149 202> 697 44<162 249> 745 46<44 135> 784 10
VStem: 106 86<2.67992 642.32>
LayerCount: 2
Fore
SplineSet
200.6 445 m 2
 216.5 520 229 588 233.1 645 c 1
 235.7 648 l 1
 235.7 648 252.1 645 286.1 645 c 0
 321.1 645 338.7 648 338.7 648 c 1
 339.1 645 l 1
 319.8 592 302.5 520 286.6 445 c 2
 234.5 200 l 2
 218.6 125 206.1 57 202 0 c 1
 199.4 -3 l 1
 199.4 -3 183 0 149 0 c 0
 114 0 96.4 -3 96.4 -3 c 1
 96 0 l 1
 115.5 54 132.6 125 148.5 200 c 2
 200.6 445 l 2
370.5 741 m 0
 392.5 741 408.7 751 431.6 793 c 1
 454.3 787 l 1
 429.5 727 394.2 697 348.2 697 c 0
 326.2 697 307.7 709 289.7 723 c 0
 274 734 257.4 745 240.4 745 c 0
 214.4 745 198.2 730 181.2 697 c 1
 158.2 702 l 1
 184.7 761 214.1 791 257.1 791 c 0
 287.1 791 306.2 777 323.2 763 c 0
 336.6 751 351.5 741 370.5 741 c 0
EndSplineSet
Position2: "'cpsp' Versalabstaende 1" dx=2 dy=0 dh=5 dv=0
Colour: ff00ff
EndChar

StartChar: itilde
Encoding: 297 297 61
Width: 268
VWidth: 999
Flags: HW
HStem: -3 21<84 134 134 184> 419 20<162.5 178> 526 44<149.2 227.5> 574 46<43 124.9> 613 10
VStem: 94 80<2.6647 408.973>
LayerCount: 2
Back
SplineSet
-87.8906 622.07 m 5
 531.25 622.07 l 5
 531.25 525.391 l 5
 -87.8906 525.391 l 5
 -87.8906 622.07 l 5
EndSplineSet
Fore
SplineSet
144 235 m 2
 159.9 310 170.3 368 171.4 411 c 1
 174 414 l 1
 214.6 417 241.2 429 268.3 439 c 1
 274.3 439 276.7 436 275.2 429 c 0
 254.2 368 243.3 326 227.4 251 c 2
 212.3 180 l 2
 196.1 104 188.1 57 184 0 c 1
 181.4 -3 l 1
 181.4 -3 168 0 134 0 c 0
 99 0 84.4 -3 84.4 -3 c 1
 84 0 l 1
 103.5 54 116.3 105 132.3 180 c 2
 144 235 l 2
316.3 570 m 0
 336.1 570 350.8 580 372.3 622 c 1
 392.6 616 l 1
 369 556 336.6 526 295.2 526 c 0
 275.4 526 259 538 243.1 552 c 0
 229.2 563 214.5 574 199.2 574 c 0
 175.8 574 160.9 559 144.9 526 c 1
 124.4 531 l 1
 149.5 590 176.6 620 215.3 620 c 0
 242.3 620 259.1 606 274.1 592 c 0
 286 580 299.2 570 316.3 570 c 0
EndSplineSet
Colour: ff00ff
EndChar

StartChar: Imacron
Encoding: 298 298 62
Width: 293
VWidth: 999
Flags: HW
HStem: -3 21<96 149 149 202> 628 20<96 149 149 202> 733 44<9.0876 287.515>
VStem: 8 281<733.205 777> 106 86<2.67992 642.32>
LayerCount: 2
Fore
SplineSet
200.6 445 m 2
 216.5 520 229 588 233.1 645 c 1
 235.7 648 l 1
 235.7 648 252.1 645 286.1 645 c 0
 321.1 645 338.7 648 338.7 648 c 1
 339.1 645 l 1
 319.8 592 302.5 520 286.6 445 c 2
 234.5 200 l 2
 218.6 125 206.1 57 202 0 c 1
 199.4 -3 l 1
 199.4 -3 183 0 149 0 c 0
 114 0 96.4 -3 96.4 -3 c 1
 96 0 l 1
 115.5 54 132.6 125 148.5 200 c 2
 200.6 445 l 2
420.8 733 m 2
 176.8 733 l 2
 167.8 733 165.5 741 167 748 c 0
 169.6 760 184.2 777 195.2 777 c 2
 440.2 777 l 2
 450.2 777 452.5 769 451.2 763 c 0
 448.6 751 433.8 733 420.8 733 c 2
EndSplineSet
Position2: "'cpsp' Versalabstaende 1" dx=2 dy=0 dh=5 dv=0
Colour: ff00ff
EndChar

StartChar: imacron
Encoding: 299 299 63
Width: 268
VWidth: 999
Flags: HW
HStem: -3 21<84 134 134 184> 419 20<162.5 178> 538 44<9.57884 260.164>
VStem: 8.6 252.9<538.205 582> 94 80<2.6647 408.973>
LayerCount: 2
Back
SplineSet
326.66 538.574 m 2
 -70.3125 538.574 l 2
 -78.2227 538.574 -81.2988 546.387 -81.2988 553.223 c 0
 -81.2988 564.941 -72.0703 582.52 -61.5234 582.52 c 2
 335.449 582.52 l 2
 344.238 582.52 347.754 574.707 347.754 567.871 c 0
 347.754 556.152 338.085 538.574 326.66 538.574 c 2
EndSplineSet
Fore
SplineSet
144 235 m 2
 159.9 310 170.3 368 171.4 411 c 1
 174 414 l 1
 214.6 417 241.2 429 268.3 439 c 1
 274.3 439 276.7 436 275.2 429 c 0
 254.2 368 243.3 326 227.4 251 c 2
 212.3 180 l 2
 196.1 104 188.1 57 184 0 c 1
 181.4 -3 l 1
 181.4 -3 168 0 134 0 c 0
 99 0 84.4 -3 84.4 -3 c 1
 84 0 l 1
 103.5 54 116.3 105 132.3 180 c 2
 144 235 l 2
354.3 538 m 2
 134.7 538 l 2
 126.6 538 124.6 546 126.1 553 c 0
 128.7 565 142.2 582 152.1 582 c 2
 372.6 582 l 2
 381.6 582 383.5 574 382.2 568 c 0
 379.6 556 366 538 354.3 538 c 2
EndSplineSet
Colour: ff00ff
EndChar

StartChar: Ibreve
Encoding: 300 300 64
Width: 293
VWidth: 999
Flags: HW
HStem: -3 21<96 149 149 202> 628 20<96 149 149 202> 692 52<70 226>
VStem: 13 28<765 803> 106 86<2.67992 642.32> 257 27<767 805>
LayerCount: 2
Fore
SplineSet
200.6 445 m 2
 216.5 520 229 588 233.1 645 c 1
 235.7 648 l 1
 235.7 648 252.1 645 286.1 645 c 0
 321.1 645 338.7 648 338.7 648 c 1
 339.1 645 l 1
 319.8 592 302.5 520 286.6 445 c 2
 234.5 200 l 2
 218.6 125 206.1 57 202 0 c 1
 199.4 -3 l 1
 199.4 -3 183 0 149 0 c 0
 114 0 96.4 -3 96.4 -3 c 1
 96 0 l 1
 115.5 54 132.6 125 148.5 200 c 2
 200.6 445 l 2
456.1 805 m 1
 435 734 362.1 692 296.1 692 c 0
 223.1 692 174.2 735 184.1 805 c 1
 212.1 805 l 1
 211.8 766 254.1 744 307.1 744 c 0
 356.1 744 412.8 766 428.1 805 c 1
 456.1 805 l 1
EndSplineSet
Position2: "'cpsp' Versalabstaende 1" dx=2 dy=0 dh=5 dv=0
Colour: ff00ff
EndChar

StartChar: ibreve
Encoding: 301 301 65
Width: 268
VWidth: 999
Flags: HW
HStem: -3 21<84 134 134 184> 419 20<162.5 178> 503 57<74.2712 197.508>
VStem: 14.9 23.4<609.805 641.769> 94 80<2.6647 408.973> 233.6 24.3<611.333 641.63>
LayerCount: 2
Fore
SplineSet
144 235 m 2
 159.9 310 170.3 368 171.4 411 c 1
 174 414 l 1
 214.6 417 241.2 429 268.3 439 c 1
 274.3 439 276.7 436 275.2 429 c 0
 254.2 368 243.3 326 227.4 251 c 2
 212.3 180 l 2
 196.1 104 188.1 57 184 0 c 1
 181.4 -3 l 1
 181.4 -3 168 0 134 0 c 0
 99 0 84.4 -3 84.4 -3 c 1
 84 0 l 1
 103.5 54 116.3 105 132.3 180 c 2
 144 235 l 2
177.4 650 m 1
 176 597 206.8 560 255.4 560 c 0
 302.2 560 350.5 592 371.8 650 c 1
 393.5 638 l 1
 364.4 552 296.4 503 243.3 503 c 0
 180.3 503 145 553 150.5 638 c 1
 177.4 650 l 1
EndSplineSet
Colour: ff00ff
EndChar

StartChar: Iogonek
Encoding: 302 302 66
Width: 293
VWidth: 999
Flags: HW
HStem: -225 39<73.1814 157.134> -3 21<96 149 149 202> -1 25<142.256 178.88> 628 20<96 149 149 202>
VStem: -1 60<-174.091 -75.5789> 106 86<2.67992 642.32>
LayerCount: 2
Fore
SplineSet
44.2 -225 m 0
 -8.8 -225 -42.3 -194 -30.8 -140 c 0
 -20.8 -93.2 30.3 -36 96.3 -2.4 c 1
 96 0 l 1
 115.5 54 132.6 125 148.5 200 c 2
 200.6 445 l 2
 216.5 520 229 588 233.1 645 c 1
 235.7 648 l 1
 235.7 648 252.1 645 286.1 645 c 0
 321.1 645 338.7 648 338.7 648 c 1
 339.1 645 l 1
 319.8 592 302.5 520 286.6 445 c 2
 234.5 200 l 2
 218.6 125 206.1 57 202 0 c 1
 199.4 -3 l 1
 199.4 -3 194.6 -2.1 184.8 -1.3 c 1
 108.5 -6.6 42.4 -77.9 32 -127 c 0
 25.2 -159 41.5 -186 77.5 -186 c 0
 107.5 -186 131.6 -171 155.1 -150 c 1
 168.4 -158 l 1
 134.4 -205 80.2 -225 44.2 -225 c 0
EndSplineSet
Position2: "'cpsp' Versalabstaende 1" dx=2 dy=0 dh=5 dv=0
Colour: ff80cc
EndChar

StartChar: iogonek
Encoding: 303 303 67
Width: 268
VWidth: 999
Flags: HW
HStem: -225 39<52.2133 135.045> -3 21<84 134 134 184> -1 25<119.395 156.6> 419 20<162.5 178> 518 104<92.248 175.458>
VStem: -23 60<-174.091 -75.5789> 82 104<528.542 611.752> 94 80<2.6647 408.973>
LayerCount: 2
Fore
SplineSet
204.2 570 m 0
 209.9 597 239 621 266 621 c 0
 293 621 311.9 597 306.2 570 c 0
 300.5 543 271.3 519 244.3 519 c 0
 217.3 519 198.5 543 204.2 570 c 0
22.2 -225 m 0
 -31.8 -225 -64.3 -194 -52.8 -140 c 0
 -42.3 -90.5 13.6 -29.4 85.1 3.1 c 1
 104 56 116.6 106.4 132.3 180 c 2
 144 235 l 2
 159.9 310 170.3 368 171.4 411 c 1
 174 414 l 1
 214.6 417 241.2 429 268.3 439 c 1
 274.3 439 276.7 436 275.2 429 c 0
 254.2 368 243.3 326 227.4 251 c 2
 212.3 180 l 2
 196.1 104 188.1 57 184 0 c 1
 181.4 -3 l 1
 181.4 -3 176.7 -2 165.9 -1.1 c 1
 88 -4.1 20.6 -77.1 10 -127 c 0
 3.2 -159 19.5 -186 55.5 -186 c 0
 84.5 -186 108.6 -171 132.1 -150 c 1
 146.4 -158 l 1
 112.4 -205 57.2 -225 22.2 -225 c 0
EndSplineSet
Colour: ff80cc
EndChar

StartChar: Idotaccent
Encoding: 304 304 68
Width: 293
VWidth: 999
Flags: HW
HStem: -3 21<96 149 149 202> 628 20<96 149 149 202> 698 104<104.248 187.458>
VStem: 94 104<708.542 791.752> 106 86<2.67992 642.32>
LayerCount: 2
Fore
SplineSet
200.6 445 m 2
 216.5 520 229 588 233.1 645 c 1
 235.7 648 l 1
 235.7 648 252.1 645 286.1 645 c 0
 321.1 645 338.7 648 338.7 648 c 1
 339.1 645 l 1
 319.8 592 302.5 520 286.6 445 c 2
 234.5 200 l 2
 218.6 125 206.1 57 202 0 c 1
 199.4 -3 l 1
 199.4 -3 183 0 149 0 c 0
 114 0 96.4 -3 96.4 -3 c 1
 96 0 l 1
 115.5 54 132.6 125 148.5 200 c 2
 200.6 445 l 2
254.4 750 m 0
 260.1 777 289.3 801 316.3 801 c 0
 343.3 801 362.1 777 356.4 750 c 0
 350.7 723 321.6 699 294.6 699 c 0
 267.6 699 248.7 723 254.4 750 c 0
EndSplineSet
Substitution2: "'c2sc' Versale nach Kapitaelchen 1" idotaccent.sc
Position2: "'cpsp' Versalabstaende 1" dx=2 dy=0 dh=5 dv=0
Colour: ff00ff
EndChar

StartChar: afii10057
Encoding: 1032 1032 69
Width: 385
VWidth: 999
Flags: HW
HStem: -10 60<57.8935 169.935> 628 20G<200 253 253 306>
VStem: 210 86<132.814 642.32>
AnchorPoint: "top_akzent" 423.3 806 basechar 0
AnchorPoint: "top_punkt" 404.7 723 basechar 0
LayerCount: 2
Back
SplineSet
208.019 94.2383 m 4
 186.861 0 136.831 -12.207 114.258 -12.207 c 4
 72.2656 -12.207 34.668 7.8125 34.668 41.9922 c 4
 34.668 63.4766 44.4336 82.5195 69.3359 82.5195 c 4
 86.9141 82.5195 101.9 71.8691 105.957 56.1523 c 4
 109.863 41.0156 117.676 32.7148 127.441 32.7148 c 4
 138.389 32.7148 147.876 44.2939 155.241 65.4297 c 4
EndSplineSet
Fore
SplineSet
264.8 258 m 2
 304.6 445 l 2
 320.5 520 333 588 337.1 645 c 1
 339.7 648 l 1
 339.7 648 356.1 645 390.1 645 c 0
 425.1 645 442.7 648 442.7 648 c 1
 443.1 645 l 1
 423.8 592 406.6 520 390.6 445 c 2
 355.5 280 l 2
 331.1 165.5 314.5 135.2 247 66 c 0
 194.4 12.1 135.9 -10 72.9 -10 c 0
 53.9 -10 36.7 -6 29.8 -1 c 1
 29.4 2 l 1
 44.4 21 62.2 57 74.9 84 c 1
 86.1 85 l 1
 92.8 65 107.6 50 136.6 50 c 0
 215.6 50 246.1 170 264.8 258 c 2
EndSplineSet
EndChar

StartChar: afii10061
Encoding: 1036 1036 70
Width: 632
VWidth: 999
Flags: HW
HStem: -3 21<96 149 149 202> -2 29<566 583> 323 43<187 280.713> 590 61<426.699 532.056> 628 20<96 149 149 202> 698 122
VStem: 106 86<2.67992 642.32> 288 201
LayerCount: 2
Fore
SplineSet
200.6 445 m 2
 216.5 520 229 588 233.1 645 c 1
 235.7 648 l 1
 235.7 648 252.1 645 286.1 645 c 0
 321.1 645 338.7 648 338.7 648 c 1
 339.1 645 l 1
 319.8 592 302.6 520 286.6 445 c 2
 267.9 357.1 l 1
 357.7 360.1 380.4 443.6 459.9 531 c 0
 516.4 593.1 588.9 658 666.9 658 c 0
 693.9 658 697.2 655 721.7 648 c 1
 725.5 642 l 1
 677.1 551 l 1
 664.5 548 l 1
 647.5 562 631.9 569 603.9 569 c 0
 580.9 569 540.9 550 494.7 502 c 0
 437.7 442.8 404.6 360 357.3 340 c 1
 356.6 337 l 1
 426 325 440 296.9 479.4 237 c 0
 543.4 139.8 530.9 89 596 0 c 1
 592.1 -4 l 1
 579.5 -2 541 0 516 0 c 0
 490 0 489.5 -2 466.1 -4 c 1
 434.5 73 423.8 117 406.9 169 c 0
 381.9 245.8 364.3 303.2 258.2 311.6 c 1
 234.5 200 l 2
 218.6 125 206.1 57 202 0 c 1
 199.4 -3 l 1
 199.4 -3 183 0 149 0 c 0
 114 0 96.4 -3 96.4 -3 c 1
 96 0 l 1
 115.5 54 132.6 125 148.5 200 c 2
 200.6 445 l 2
601.3 820 m 1
 627.1 806.7 644.1 789.3 652.2 768 c 1
 495.9 710 l 2
 473 701 460.4 698 451.4 698 c 0
 442.4 698 437.9 705 439.6 713 c 0
 441.1 720 444.1 725 459 734 c 2
 601.3 820 l 1
EndSplineSet
LCarets2: 1 0 
Colour: ff00ff
EndChar

StartChar: uni040D
Encoding: 1037 1037 71
Width: 700
VWidth: 999
Flags: HW
HStem: -2 29<20 52 242 274 427 459 649 682> 618 28<20 52 242 274 426 459 649 681>
VStem: 106 81<35.9534 78 134 609.354> 514 81<36.3852 505 561 608.905>
DStem2: 187 134 187 78 0.608002 0.793935<0 493.367>
LayerCount: 2
Fore
SplineSet
200.6 445 m 2
 216.5 520 229 588 233.1 645 c 1
 235.7 648 l 1
 235.7 648 252.1 645 286.1 645 c 0
 321.1 645 338.7 648 338.7 648 c 1
 339.1 645 l 1
 319.8 592 302.5 520 286.6 445 c 2
 234.5 200 l 2
 230.2 179.9 226.2 160.2 222.5 141.2 c 1
 627.9 555.5 l 1
 633.2 587.6 637.1 617.6 639.1 645 c 1
 641.7 648 l 1
 641.7 648 658.1 645 692.1 645 c 0
 727.1 645 744.7 648 744.7 648 c 1
 745.1 645 l 1
 725.8 592 708.5 520 692.6 445 c 2
 640.5 200 l 2
 624.6 125 612.1 57 608 0 c 1
 605.4 -3 l 1
 605.4 -3 589 0 555 0 c 0
 520 0 502.4 -3 502.4 -3 c 1
 502 0 l 1
 521.5 54 538.6 125 554.5 200 c 2
 606.6 445 l 2
 610.7 464.4 614.6 483.4 618.2 501.8 c 1
 212.9 87.5 l 1
 207.8 56.2 203.9 26.9 202 0 c 1
 199.4 -3 l 1
 199.4 -3 183 0 149 0 c 0
 114 0 96.4 -3 96.4 -3 c 1
 96 0 l 1
 115.5 54 132.6 125 148.5 200 c 2
 200.6 445 l 2
472.9 818 m 1
 576 734 l 2
 585.3 726 588.1 720 586.6 713 c 0
 584.9 705 576.4 698 568.4 698 c 0
 560.4 698 547 701 527.9 710 c 2
 387.3 773 l 1
 409.3 790.7 436.2 806.4 472.9 818 c 1
EndSplineSet
LCarets2: 1 0 
Colour: ff00ff
EndChar

StartChar: afii10062
Encoding: 1038 1038 72
Width: 580
VWidth: 999
Flags: HW
HStem: -22 62<133 229.447> 618 28<1 51.985 192 235 391 425 520.846 579> 697 31<266.536 357.309>
VStem: 187 70<735.681 802.162> 366 70<734.774 802.125>
DStem2: 170 575 88 559 0.41865 -0.908148<-32.5036 379.947> 283 136 342 161 0.370296 0.928914<-102.293 0 103.423 504.868>
LayerCount: 2
Fore
SplineSet
376.2 161 m 2
 305.4 54.1 239.3 -22 149.3 -22 c 0
 107.3 -22 66.2 1 73 33 c 0
 79 61 98.9 84 130.9 84 c 0
 144.9 84 165.4 77 172.8 65 c 0
 177.9 56 190.6 45 204.6 45 c 0
 247.3 45 271.2 81.1 308 138.3 c 1
 264.6 339.9 206.4 567.8 183.7 648 c 1
 200.1 645 226.1 645 243.1 645 c 0
 260.1 645 281.1 645 298.7 648 c 1
 300.9 618 324.1 470.1 374.8 242.5 c 1
 466.7 386.9 564.9 546.4 613.7 648 c 1
 625.1 645 652.1 645 663.1 645 c 0
 674.1 645 686.1 645 698.7 648 c 1
 376.2 161 l 2
466.7 728 m 0
 499.7 728 526.3 745 530 762 c 0
 531.1 767 531.3 773 531.7 775 c 0
 534.9 790 548.1 805 571.1 805 c 0
 598.1 805 605.1 791 601.1 772 c 0
 590 720 526.2 697 460.2 697 c 0
 394.2 697 340.1 720 351.1 772 c 0
 355.1 791 368.1 805 395.1 805 c 0
 418.1 805 424.9 790 421.7 775 c 0
 421.3 773 419.1 767 418 762 c 0
 414.4 745 433.7 728 466.7 728 c 0
EndSplineSet
LCarets2: 1 0 
Colour: ff00ff
EndChar

StartChar: afii10020
Encoding: 1043 1043 73
Width: 481
VWidth: 999
Flags: HW
HStem: -2 29<14 47 238 270> 605 40<184.437 406.492> 618 28<14 50>
VStem: 102 81<36.3415 603.635> 457 29<488.793 527.352>
LayerCount: 2
Fore
SplineSet
279.6 445 m 2
 227.5 200 l 2
 211.6 125 198.3 53 195 0 c 1
 193.4 -3 l 1
 193.4 -3 177 0 142 0 c 0
 108 0 89.4 -3 89.4 -3 c 1
 88 0 l 1
 108.1 57 125.6 125 141.5 200 c 2
 193.6 445 l 2
 209.5 520 222.6 591 226.1 645 c 1
 227.7 648 l 1
 227.7 648 245.1 645 279.1 645 c 2
 552.1 645 l 2
 573.1 645 596.3 646 612.7 648 c 1
 614.1 645 l 1
 610.1 631 608 626 605.9 616 c 0
 603.8 606 601.6 591 600.9 583 c 1
 598.1 579 l 1
 598.1 579 452.6 591 318.6 591 c 1
 306.5 567 283.2 462 279.6 445 c 2
EndSplineSet
Colour: ff00ff
EndChar

StartChar: afii10021
Encoding: 1044 1044 74
Width: 708
VWidth: 999
Flags: HW
HStem: 0 44<630 903> 601 44<632 819> 618 28<898 936>
VStem: 1024 27<-140 -94> 538 86<47 587> 479 36<-138 -60>
LayerCount: 2
Fore
SplineSet
178 0 m 2
 98 0 72.2 -65 45.7 -138 c 1
 43 -141 l 1
 11 -141 l 1
 9.7 -138 l 1
 29.3 11 l 2
 31.4 21 38.2 29 63.8 32 c 0
 84.4 34.4 104.8 32 122 47 c 0
 153.5 73 186.8 145 252 301 c 1
 298.2 415 332.1 518 345.5 581 c 0
 350.2 603 351.8 625 353.1 645 c 1
 354.7 648 l 1
 354.7 648 381.1 645 415.1 645 c 2
 641.1 645 l 2
 675.1 645 693.7 648 693.7 648 c 1
 694.1 645 l 1
 674.6 591 657.5 520 641.6 445 c 2
 589.5 200 l 2
 566.1 90 561.4 35 594.8 32 c 0
 619.4 29.8 622.4 21 620.3 11 c 2
 576.7 -138 l 1
 574 -141 l 1
 542 -141 l 1
 540.7 -138 l 1
 545.2 -65 547 0 467 0 c 2
 178 0 l 2
434.4 44 m 2
 452.4 44 460.6 50 465.5 59 c 0
 477.6 83 499.9 183 503.5 200 c 2
 555.6 445 l 2
 559.2 462 579.9 564 578 588 c 1
 572.9 597 569.7 601 554.7 601 c 2
 440.7 601 l 2
 413.7 601 401.6 591 394.3 566 c 0
 364.8 465 327.8 361 301.3 293 c 0
 254.4 176 208.4 77 203.9 56 c 0
 201.3 44 214.4 44 228.4 44 c 2
 434.4 44 l 2
EndSplineSet
EndChar

StartChar: afii10024
Encoding: 1046 1046 75
Width: 924
VWidth: 999
Flags: HW
HStem: -4 21G<35 44 147 181 743 777 880 889> -3 21<412 462 462 512> 312 45<364 424 500 560> 569 89<70 172 752 854> 628 20<412 462 462 512>
VStem: 421 82<3 642>
LayerCount: 2
Back
SplineSet
19.043 -0.976562 m 1xaa
 17.0898 0.976562 l 1x42
 17.0898 19.5312 l 2
 17.0898 24.9023 20.9961 27.832 24.9023 27.832 c 2
 33.6914 27.832 l 2
 66.4062 27.832 118.652 103.516 169.922 235.84 c 0
 193.344 296.293 219.238 358.398 281.25 358.398 c 1x92
 209.473 383.789 194.336 467.773 184.57 530.273 c 0
 180.176 559.57 161.621 587.402 141.113 587.402 c 0
 128.906 587.402 117.188 582.031 105.469 575.195 c 0
 94.2383 568.359 82.0312 562.5 70.3125 562.5 c 0
 51.2695 562.5 30.7617 580.566 30.7617 604.98 c 0
 30.7617 628.418 44.9219 652.344 92.2852 652.344 c 0
 155.762 652.344 211.426 599.609 219.238 541.992 c 0
 226.562 485.352 234.375 428.711 287.598 396.484 c 0
 311.523 381.836 355.957 381.348 389.16 381.348 c 1
 389.16 338.379 l 1
 282.715 338.379 261.719 281.25 224.609 179.688 c 0
 184.57 71.7773 156.25 0.976562 83.9844 0 c 2
 19.043 -0.976562 l 1xaa
836.914 -0.976562 m 1x82
 770.508 0 l 2
 698.242 0.976562 669.941 71.4258 630.859 179.688 c 0
 594.727 279.785 573.242 338.379 466.797 338.379 c 1
 466.797 381.348 l 1xa2
 500 381.348 542.969 381.836 566.895 396.484 c 0
 620.117 428.711 629.395 485.352 636.719 541.992 c 0
 644.531 599.609 700.195 652.344 763.672 652.344 c 0
 811.035 652.344 825.195 628.418 825.195 604.98 c 0
 825.195 580.566 804.688 562.5 785.645 562.5 c 0
 773.926 562.5 761.719 568.359 750.488 575.195 c 0
 738.77 582.031 727.051 587.402 714.844 587.402 c 0
 694.336 587.402 675.781 559.57 671.387 530.273 c 0
 661.621 467.773 646.484 383.789 574.707 358.398 c 1
 636.719 358.398 662.148 296.111 686.035 235.84 c 0
 738.281 104.004 789.551 27.832 822.266 27.832 c 2
 831.055 27.832 l 2x9a
 834.961 27.832 838.867 24.9023 838.867 19.5312 c 2
 838.867 0.976562 l 1x42
 836.914 -0.976562 l 1x82
EndSplineSet
Fore
SplineSet
284.9 169 m 0
 247.4 117.3 219.5 73 157.1 -4 c 1
 135.5 -2 136 0 111 0 c 0
 88 0 50.5 -2 37.1 -4 c 1
 35 0 l 1
 133.9 89 142.8 140 244.4 237 c 0
 307.2 297 331 325 402.6 337 c 1
 403.3 340 l 1
 366.6 360 369.1 443 339.7 502 c 0
 315.8 550 285.9 569 263.9 569 c 0
 236.9 569 219.5 562 197.5 548 c 1
 187.1 551 l 1
 178.5 642 l 1
 184.7 648 l 1
 211.2 655 214.9 658 240.9 658 c 0
 314.9 658 357 593 384.9 531 c 0
 424.2 443.7 411.4 360.3 494.9 357.1 c 1
 513.6 445 l 2
 529.5 520 542 588 546.1 645 c 1
 548.7 648 l 1
 548.7 648 565.1 645 599.1 645 c 0
 634.1 645 651.7 648 651.7 648 c 1
 652.1 645 l 1
 632.8 592 615.6 520 599.6 445 c 2
 580.9 357.1 l 1
 665.7 360.3 688.5 443.7 764.9 531 c 0
 819.1 593 888.9 658 962.9 658 c 0
 988.9 658 991.2 655 1014.7 648 c 1
 1018.5 642 l 1
 971.1 551 l 1
 959.5 548 l 1
 943.5 562 928.9 569 901.9 569 c 0
 879.9 569 841.9 550 797.7 502 c 0
 743.2 442.9 710.6 360 665.3 340 c 1
 664.6 337 l 1
 731 325 743.1 297 780.4 237 c 0
 840.7 140 827.9 89 889 0 c 1
 885.1 -4 l 1
 872.5 -2 836 0 813 0 c 0
 788 0 787.5 -2 765.1 -4 c 1
 735.5 73 725.8 117 710.9 169 c 0
 687.9 245.8 671.3 303.1 571.2 311.6 c 1
 547.5 200 l 2
 531.6 125 519.1 57 515 0 c 1
 512.4 -3 l 1
 512.4 -3 496 0 462 0 c 0
 427 0 409.4 -3 409.4 -3 c 1
 409 0 l 1
 428.5 54 445.6 125 461.5 200 c 2
 485.2 311.6 l 1
 381.5 303.1 340.6 245.8 284.9 169 c 0
EndSplineSet
Colour: ff80cc
EndChar

StartChar: afii10025
Encoding: 1047 1047 76
Width: 542
VWidth: 999
Flags: HW
HStem: -12 37<172.536 324.196> 336 37<158.005 306.843> 469 21G<49 91> 624 34<165.85 309.892>
VStem: 49 30<470.533 513.383> 375 80<432.684 569.184> 405 92<100.605 254.446>
LayerCount: 2
Back
SplineSet
257.324 -12.207 m 4
 171.387 -12.207 114.746 19.043 83.4961 43.457 c 4
 56.6406 64.4531 35.6445 95.2148 35.6445 122.07 c 4
 35.6445 147.949 48.3398 164.551 66.4062 164.551 c 4
 94.7266 164.551 106.445 152.344 117.188 119.629 c 4
 140.625 48.3398 195.801 21.4844 267.578 21.4844 c 4
68.3594 645.508 m 1
 49.3164 471.68 l 1
 79.1016 468.75 l 1
 86.4258 511.719 122.07 606.445 173.828 606.445 c 2
EndSplineSet
Fore
SplineSet
253.3 25 m 0
 323.3 25 419.4 68 442.4 176 c 0
 453.2 227 437.4 336 320.4 336 c 2
 247.4 336 l 2
 236.4 336 230.9 343 233.2 354 c 0
 235.5 365 244.3 373 255.3 373 c 2
 302.3 373 l 2
 421.3 373 470.9 451 482.6 506 c 0
 496.8 573 443.6 624 381.6 624 c 0
 258.6 624 219.9 550 178.7 469 c 1
 149.1 471 l 1
 206.3 646 l 1
 293.3 646 330.9 658 390.9 658 c 0
 483.9 658 584.9 611 564.7 516 c 0
 547.9 437 494.2 387 416.5 360 c 1
 483.2 340 560.5 299 537.8 192 c 0
 505.7 41 360.4 -12 242.4 -12 c 0
 161.4 -12 119 19 93.1 43 c 0
 70.6 64 55.4 91 61.1 118 c 0
 66.6 144 82.1 165 105.1 165 c 0
 133.1 165 140.3 152 144.5 120 c 0
 152.5 59 177.3 25 253.3 25 c 0
EndSplineSet
EndChar

StartChar: afii10026
Encoding: 1048 1048 77
Width: 700
VWidth: 999
Flags: HW
HStem: -3 21<96 149 149 202 502 555 555 608> 628 20<96 149 149 202 502 555 555 608>
VStem: 106 86<2.67992 642.32> 512 86<2.67992 642.32>
DStem2: 187 134 187 78 0.608002 0.793935<0 493.367>
LayerCount: 2
Fore
SplineSet
200.6 445 m 2
 216.5 520 229 588 233.1 645 c 1
 235.7 648 l 1
 235.7 648 252.1 645 286.1 645 c 0
 321.1 645 338.7 648 338.7 648 c 1
 339.1 645 l 1
 319.8 592 302.5 520 286.6 445 c 2
 234.5 200 l 2
 230.2 179.9 226.2 160.2 222.5 141.2 c 1
 627.9 555.5 l 1
 633.2 587.6 637.1 617.6 639.1 645 c 1
 641.7 648 l 1
 641.7 648 658.1 645 692.1 645 c 0
 727.1 645 744.7 648 744.7 648 c 1
 745.1 645 l 1
 725.8 592 708.5 520 692.6 445 c 2
 640.5 200 l 2
 624.6 125 612.1 57 608 0 c 1
 605.4 -3 l 1
 605.4 -3 589 0 555 0 c 0
 520 0 502.4 -3 502.4 -3 c 1
 502 0 l 1
 521.5 54 538.6 125 554.5 200 c 2
 606.6 445 l 2
 610.7 464.4 614.6 483.4 618.2 501.8 c 1
 212.9 87.5 l 1
 207.8 56.2 203.9 26.9 202 0 c 1
 199.4 -3 l 1
 199.4 -3 183 0 149 0 c 0
 114 0 96.4 -3 96.4 -3 c 1
 96 0 l 1
 115.5 54 132.6 125 148.5 200 c 2
 200.6 445 l 2
EndSplineSet
EndChar

StartChar: afii10027
Encoding: 1049 1049 78
Width: 700
VWidth: 999
Flags: HW
HStem: -2 29<20 52 242 274 427 459 649 682> 618 28<20 52 242 274 426 459 649 681> 697 31<305.536 396.309>
VStem: 106 81<35.9534 78 134 609.354> 226 70<735.681 802.162> 405 70<734.774 802.125> 514 81<36.3852 505 561 608.905>
DStem2: 187 134 187 78 0.608002 0.793935<0 493.367>
LayerCount: 2
Fore
SplineSet
200.6 445 m 2
 216.5 520 229 588 233.1 645 c 1
 235.7 648 l 1
 235.7 648 252.1 645 286.1 645 c 0
 321.1 645 338.7 648 338.7 648 c 1
 339.1 645 l 1
 319.8 592 302.5 520 286.6 445 c 2
 234.5 200 l 2
 230.2 179.9 226.2 160.2 222.5 141.2 c 1
 627.9 555.5 l 1
 633.2 587.6 637.1 617.6 639.1 645 c 1
 641.7 648 l 1
 641.7 648 658.1 645 692.1 645 c 0
 727.1 645 744.7 648 744.7 648 c 1
 745.1 645 l 1
 725.8 592 708.5 520 692.6 445 c 2
 640.5 200 l 2
 624.6 125 612.1 57 608 0 c 1
 605.4 -3 l 1
 605.4 -3 589 0 555 0 c 0
 520 0 502.4 -3 502.4 -3 c 1
 502 0 l 1
 521.5 54 538.6 125 554.5 200 c 2
 606.6 445 l 2
 610.7 464.4 614.6 483.4 618.2 501.8 c 1
 212.9 87.5 l 1
 207.8 56.2 203.9 26.9 202 0 c 1
 199.4 -3 l 1
 199.4 -3 183 0 149 0 c 0
 114 0 96.4 -3 96.4 -3 c 1
 96 0 l 1
 115.5 54 132.6 125 148.5 200 c 2
 200.6 445 l 2
505.7 728 m 0
 538.7 728 565.3 745 569 762 c 0
 570.1 767 570.3 773 570.7 775 c 0
 573.9 790 587.1 805 610.1 805 c 0
 637.1 805 644.1 791 640.1 772 c 0
 629 720 565.2 697 499.2 697 c 0
 433.2 697 379.1 720 390.1 772 c 0
 394.1 791 407.1 805 434.1 805 c 0
 457.1 805 463.9 790 460.7 775 c 0
 460.3 773 458.1 767 457 762 c 0
 453.4 745 472.7 728 505.7 728 c 0
EndSplineSet
LCarets2: 1 0 
Colour: ff00ff
EndChar

StartChar: afii10033
Encoding: 1055 1055 79
Width: 708
VWidth: 999
Flags: HW
HStem: -3 21<90 144 144 197 511 564 564 618> 601 44<195.326 512.674>
VStem: 101 86<2.67992 586.818> 521 86<2.67992 586.818>
LayerCount: 2
Fore
SplineSet
701.1 645 m 2
 735.1 645 753.7 648 753.7 648 c 1
 754.1 645 l 1
 734.6 591 717.5 520 701.6 445 c 2
 649.5 200 l 2
 633.6 125 622.1 57 618 0 c 1
 615.4 -3 l 1
 615.4 -3 598 0 564 0 c 0
 529 0 511.4 -3 511.4 -3 c 1
 511 0 l 1
 530.3 53 547.6 125 563.5 200 c 2
 615.6 445 l 2
 619.2 462 639.9 564 638 588 c 1
 632.9 597 629.7 601 614.7 601 c 2
 348.7 601 l 2
 333.7 601 328.9 597 320 588 c 1
 307.9 564 285.2 462 281.6 445 c 2
 229.5 200 l 2
 213.6 125 200.3 53 197 0 c 1
 195.4 -3 l 1
 195.4 -3 179 0 144 0 c 0
 110 0 91.4 -3 91.4 -3 c 1
 90 0 l 1
 110.1 57 127.6 125 143.5 200 c 2
 195.6 445 l 2
 211.5 520 224.6 591 228.1 645 c 1
 229.7 648 l 1
 229.7 648 247.1 645 281.1 645 c 2
 701.1 645 l 2
EndSplineSet
Colour: ff00ff
EndChar

StartChar: afii10034
Encoding: 1056 1056 80
Width: 522
VWidth: 999
Flags: HW
HStem: -3 21<93 146 146 199> 282 34<189.825 339.655> 618 34<171.719 345.938>
VStem: 103 86<2.67992 292 319.76 608.938> 401 97<393.808 563.368>
LayerCount: 2
Fore
SplineSet
197.6 445 m 2
 213.5 520 226 588 230.1 645 c 1
 232.7 648 l 1
 232.7 648 249.1 645 283.1 645 c 0
 313.1 645 388.6 652 414.6 652 c 0
 599.6 652 613.8 545 601.3 486 c 0
 583.2 401 504.9 282 322.9 282 c 0
 287.9 282 271.6 285 251.1 292 c 1
 231.5 200 l 2
 215.6 125 203.1 57 199 0 c 1
 196.4 -3 l 1
 196.4 -3 180 0 146 0 c 0
 111 0 93.4 -3 93.4 -3 c 1
 93 0 l 1
 112.5 54 129.6 125 145.5 200 c 2
 197.6 445 l 2
311 574 m 2
 258.3 326 l 1
 269.8 319 300.2 316 325.2 316 c 0
 422.2 316 477.5 360 500.5 468 c 0
 527.5 595 469.4 618 400.4 618 c 0
 328.4 618 317.2 603 311 574 c 2
EndSplineSet
Colour: ff00ff
EndChar

StartChar: afii10035
Encoding: 1057 1057 81
Width: 650
VWidth: 999
Flags: HW
HStem: -10 51<269.467 470.143> 611 47<271.061 460.844>
VStem: 37 103<195.742 435.455>
LayerCount: 2
Back
SplineSet
574.707 645.508 m 5
 593.75 471.68 l 5
 563.965 468.75 l 5
 556.641 511.719 520.996 606.445 469.238 606.445 c 6
EndSplineSet
Fore
SplineSet
504.9 658 m 0
 626.9 658 713.3 613 713.3 613 c 1
 714.7 610 l 1
 692.5 560.7 685.5 550 671.1 499 c 1
 660.9 498 l 1
 637.3 580 570.9 611 480.9 611 c 0
 398.9 611 254.1 537 211 334 c 0
 180 188 213.7 41 368.7 41 c 0
 461.7 41 534.2 62 621.8 140 c 1
 641.6 125 l 1
 554.7 36 445.9 -10 348.9 -10 c 0
 133.9 -10 69.8 154 104 315 c 0
 145.9 512 335.9 658 504.9 658 c 0
EndSplineSet
Colour: ff00ff
EndChar

StartChar: afii10036
Encoding: 1058 1058 82
Width: 540
VWidth: 999
Flags: HW
HStem: -3 21<217 270 270 323> 574 21<15 219 321 525> 586 59<17.7578 222.336 317.664 522.242>
VStem: 227 86<2.67992 584.82>
LayerCount: 2
Fore
SplineSet
321.6 445 m 2
 325.2 462 345.5 562 343.6 586 c 1
 209.6 586 139 574 139 574 c 1
 137.9 578 l 1
 143.1 593 148.1 617 152.1 645 c 1
 154.7 648 l 1
 170.3 646 193.1 645 214.1 645 c 2
 600.1 645 l 2
 621.1 645 644.3 646 660.7 648 c 1
 662.1 645 l 1
 654.1 617 649.1 593 647.9 578 c 1
 645 574 l 1
 645 574 579.6 586 445.6 586 c 1
 433.5 562 411.2 462 407.6 445 c 2
 355.5 200 l 2
 339.6 125 327.1 57 323 0 c 1
 320.4 -3 l 1
 320.4 -3 304 0 270 0 c 0
 235 0 217.4 -3 217.4 -3 c 1
 217 0 l 1
 236.5 54 253.6 125 269.5 200 c 2
 321.6 445 l 2
EndSplineSet
Colour: ff00ff
EndChar

StartChar: afii10037
Encoding: 1059 1059 83
Width: 580
VWidth: 999
Flags: HW
HStem: -22 67<133 228.079> 628 20G<54.5 65.8588 152.5 165.28 462.421 482 552.006 555>
DStem2: 278.595 138.281 342 161 0.410131 0.912027<-105.377 13.9628 113.393 328.053>
LayerCount: 2
Fore
SplineSet
376.2 161 m 2
 305.4 54.1 239.3 -22 149.3 -22 c 0
 107.3 -22 66.2 1 73 33 c 0
 79 61 98.9 84 130.9 84 c 0
 144.9 84 165.4 77 172.8 65 c 0
 177.9 56 190.6 45 204.6 45 c 0
 247.3 45 271.2 81.1 308 138.3 c 1
 264.6 339.9 206.4 567.8 183.7 648 c 1
 200.1 645 226.1 645 243.1 645 c 0
 260.1 645 281.1 645 298.7 648 c 1
 300.9 618 324.1 470.1 374.8 242.5 c 1
 466.7 386.9 564.9 546.4 613.7 648 c 1
 625.1 645 652.1 645 663.1 645 c 0
 674.1 645 686.1 645 698.7 648 c 1
 376.2 161 l 2
EndSplineSet
EndChar

StartChar: afii10039
Encoding: 1061 1061 84
Width: 571
VWidth: 999
Flags: HW
HStem: -2 28<4 61 169 190 398 420 570 617> 586 27<411 444 538 597>
DStem2: 122 99 155 73 0.593199 0.805056<-35.2356 230.04 328.87 586.289> 191 543 249 326 0.578967 -0.815351<-35.4928 216.477 291.97 559.314>
LayerCount: 2
Fore
SplineSet
553.4 -3 m 1
 536 0 514 0 496 0 c 0
 478 0 456 0 437.4 -3 c 1
 405.6 100.1 378.2 182.6 339.6 282.7 c 1
 263 194.9 182.6 98.1 106.4 -3 c 1
 96 0 77 0 65 0 c 0
 54 0 34 0 22.4 -3 c 1
 320.8 330.7 l 1
 287 415.3 244.6 514.7 185.7 648 c 1
 202.1 645 224.1 645 241.1 645 c 0
 258.1 645 280.1 645 298.7 648 c 1
 314.4 589.8 341.2 519.1 387.5 404.5 c 1
 487 514.7 519.2 551.7 591.7 648 c 1
 602.1 645 622.1 645 633.1 645 c 0
 644.1 645 664.1 645 675.7 648 c 1
 406.3 358.1 l 1
 553.4 -3 l 1
EndSplineSet
Colour: ff00ff
EndChar

StartChar: afii10040
Encoding: 1062 1062 85
Width: 639
VWidth: 999
Flags: HW
HStem: 0 44<183.144 451.533> 628 20G<78 132 132 185 448 501 501 555>
VStem: 89 86<60.1801 642.32> 458 86<46.9378 642.32> 566 36<-138 -59.6869>
LayerCount: 2
Back
SplineSet
428.711 36.6211 m 2
 464.355 36.6211 467.773 51.2695 467.773 83.4961 c 10
548.34 76.6602 m 18
 548.34 51.7578 564.453 27.832 589.517 27.832 c 0
 614.15 27.832 618.276 16.585 618.652 7.8125 c 2
 625 -140.625 l 1
 598.145 -140.625 l 1
 583.74 -70.3125 540.039 2.44141 462.891 2.44141 c 2
622.07 644.204 m 25
 622.07 -297.852 l 25
EndSplineSet
Fore
SplineSet
586.5 200 m 2
 563.1 90 557.7 35 590.8 32 c 0
 615.2 29.8 618.4 20.7 616.3 11 c 2
 572.7 -138 l 1
 570 -141 l 1
 538 -141 l 1
 536.7 -138 l 1
 541.2 -65.4 542.7 0 463 0 c 2
 132 0 l 2
 98 0 79.4 -3 79.4 -3 c 1
 79 0 l 1
 98.5 54 115.6 125 131.5 200 c 2
 183.6 445 l 2
 199.5 520 211 588 215.1 645 c 1
 217.7 648 l 1
 217.7 648 235.1 645 269.1 645 c 0
 304.1 645 321.7 648 321.7 648 c 1
 322.1 645 l 1
 302.8 592 285.5 520 269.6 445 c 2
 217.5 200 l 2
 213.9 183 193.6 83 195.5 59 c 0
 196.6 50 202.4 44 220.4 44 c 2
 431.4 44 l 2
 449.4 44 457.6 50 462.5 59 c 0
 474.6 83 496.9 183 500.5 200 c 2
 552.6 445 l 2
 568.5 520 581.8 592 585.1 645 c 1
 586.7 648 l 1
 586.7 648 603.1 645 638.1 645 c 0
 672.1 645 690.7 648 690.7 648 c 1
 692.1 645 l 1
 672 588 654.5 520 638.6 445 c 2
 586.5 200 l 2
EndSplineSet
EndChar

StartChar: afii10041
Encoding: 1063 1063 86
Width: 633
VWidth: 999
Flags: HW
HStem: -3 21<436 489 489 542> 244 64<213.903 364.049> 628 20G<84 137 137 190 436 489 489 542>
VStem: 94 86<340.66 642.32> 446 86<2.67992 642.32>
LayerCount: 2
Back
SplineSet
400.391 2.44141 m 6x78
 400.391 2.44141 202.911 3.44141 76.6602 2.44141 c 20x78
 -31.25 -0.976562 l 5
 -33.6914 0.976562 l 5
 -33.6914 17.5781 l 6
 -33.6914 23.4375 -29.541 27.832 -24.9023 27.832 c 6
 1.46484 27.832 l 6xb8
 34.1797 28.8086 41.0156 35.1562 41.0156 74.707 c 14
 41.0156 571.777 l 6
 41.0156 610.84 34.9121 617.676 1.46484 617.676 c 6
 -28.3203 617.676 l 6
 -31.7383 617.676 -33.6914 619.141 -33.6914 622.559 c 6
 -33.6914 644.531 l 5
 -31.7383 646.484 l 5
 76.6602 644.531 l 4
 193.848 646.484 l 5
 195.801 644.692 l 5
 195.801 623.047 l 6
 195.801 619.629 193.848 617.676 190.43 617.676 c 6
 160.645 617.676 l 6
 128.418 617.676 121.582 611.816 121.582 571.777 c 6
 121.582 83.4961 l 22
 121.582 41.9922 129.395 36.6211 160.645 36.6211 c 6
 373.047 36.6211 l 6x78
 408.691 36.6211 412.109 51.2695 412.109 83.4961 c 14
 412.109 571.777 l 6
 412.109 603.516 410.635 617.061 373.047 617.676 c 6
 343.262 617.676 l 6
 339.844 617.676 337.891 619.141 337.891 622.559 c 6
 337.891 644.287 l 5
 340.332 646.484 l 5
 447.754 644.531 l 4
 563.477 646.484 l 5
 566.406 644.287 l 5
 566.406 623.047 l 6
 566.406 619.629 564.453 617.676 560.547 617.676 c 6
 531.25 617.676 l 6
 494.639 617.065 492.676 605.469 492.676 571.777 c 6
 492.676 76.6602 l 22
 492.676 45.8984 495.117 27.832 528.32 27.832 c 6
 544.922 27.832 l 6xb8
 552.246 27.832 565.918 20.5078 565.918 7.8125 c 6
 566.162 -142.822 l 5
 553.467 -142.822 547.607 -142.822 538.818 -142.822 c 5
 524.414 -72.5098 477.539 2.44141 400.391 2.44141 c 6x78
EndSplineSet
Fore
SplineSet
274.6 445 m 2
 268.6 417 l 2
 251.2 335 285.5 308 357.5 308 c 0
 386 308 449.3 311.9 521 353 c 1
 540.6 445 l 2
 556.5 520 569 588 573.1 645 c 1
 575.7 648 l 1
 575.7 648 592.1 645 626.1 645 c 0
 661.1 645 678.7 648 678.7 648 c 1
 679.1 645 l 1
 659.8 592 642.5 520 626.6 445 c 2
 574.5 200 l 2
 558.6 125 546.1 57 542 0 c 1
 539.4 -3 l 1
 539.4 -3 523 0 489 0 c 0
 454 0 436.4 -3 436.4 -3 c 1
 436 0 l 1
 455.5 54 472.5 125 488.5 200 c 2
 511.7 308.9 l 1
 429.3 259.5 359.1 244 301.9 244 c 0
 187.9 244 162.7 323 183.7 422 c 2
 188.6 445 l 2
 204.5 520 217 588 221.1 645 c 1
 223.7 648 l 1
 223.7 648 240.1 645 274.1 645 c 0
 309.1 645 326.7 648 326.7 648 c 1
 327.1 645 l 1
 307.8 592 290.7 520 274.6 445 c 2
EndSplineSet
EndChar

StartChar: afii10042
Encoding: 1064 1064 87
Width: 960
VWidth: 999
Flags: HW
HStem: 0 44<197.144 430.533 531.144 766.533> 628 20G<92 146 146 199 426 480 480 533 763 816 816 870>
VStem: 103 86<60.1801 642.32> 437 86<60.1801 642.32> 773 86<47.6754 642.32>
LayerCount: 2
Fore
SplineSet
901.5 200 m 2
 885.9 125 873.1 57 869 0 c 1
 866.4 -3 l 1
 866.4 -3 850 0 816 0 c 2
 147 0 l 2
 112 0 93.4 -3 93.4 -3 c 1
 93 0 l 1
 112.5 54 129.6 125 145.5 200 c 2
 197.6 445 l 2
 213.5 520 225 588 229.1 645 c 1
 231.7 648 l 1
 231.7 648 249.1 645 283.1 645 c 0
 318.1 645 335.7 648 335.7 648 c 1
 336.1 645 l 1
 316.8 592 299.5 520 283.6 445 c 2
 231.5 200 l 2
 227.9 183 207.6 83 209.5 59 c 0
 210.6 50 216.4 44 234.4 44 c 2
 410.4 44 l 2
 428.4 44 436.6 50 441.5 59 c 0
 453.6 83 475.9 183 479.5 200 c 2
 531.6 445 l 2
 547.5 520 559 588 563.1 645 c 1
 565.7 648 l 1
 565.7 648 583.1 645 617.1 645 c 0
 652.1 645 669.7 648 669.7 648 c 1
 670.1 645 l 1
 650.8 592 633.5 520 617.6 445 c 2
 565.5 200 l 2
 561.9 183 541.6 83 543.5 59 c 0
 544.6 50 550.4 44 568.4 44 c 2
 746.4 44 l 2
 764.4 44 772.6 50 777.5 59 c 0
 789.6 83 811.9 183 815.5 200 c 2
 867.6 445 l 2
 883.5 520 896.8 592 900.1 645 c 1
 901.7 648 l 1
 901.7 648 918.1 645 953.1 645 c 0
 987.1 645 1005.7 648 1005.7 648 c 1
 1007.1 645 l 1
 987 588 969.5 520 953.6 445 c 2
 901.5 200 l 2
EndSplineSet
EndChar

StartChar: afii10043
Encoding: 1065 1065 88
Width: 948
VWidth: 999
Flags: HW
HStem: 0 44<197.144 430.533 531.144 766.533> 628 20G<92 146 146 199 426 480 480 533 763 816 816 870>
VStem: 103 86<60.1801 642.32> 437 86<60.1801 642.32> 773 86<46.9378 642.32> 881 36<-138 -59.6869>
LayerCount: 2
Back
SplineSet
732.422 36.6211 m 6
 768.066 36.6211 771.484 51.2695 771.484 83.4961 c 14
852.051 76.6602 m 22
 852.051 51.7578 868.164 27.832 893.228 27.832 c 4
 917.861 27.832 921.987 16.585 922.363 7.8125 c 6
 928.711 -140.625 l 5
 901.855 -140.625 l 5
 887.451 -70.3125 843.75 2.44141 766.602 2.44141 c 6
EndSplineSet
Fore
SplineSet
147 0 m 2
 112 0 93.4 -3 93.4 -3 c 1
 93 0 l 1
 112.5 54 129.6 125 145.5 200 c 2
 197.6 445 l 2
 213.5 520 225 588 229.1 645 c 1
 231.7 648 l 1
 231.7 648 249.1 645 283.1 645 c 0
 318.1 645 335.7 648 335.7 648 c 1
 336.1 645 l 1
 316.8 592 299.5 520 283.6 445 c 2
 231.5 200 l 2
 227.9 183 207.6 83 209.5 59 c 0
 210.6 50 216.4 44 234.4 44 c 2
 410.4 44 l 2
 428.4 44 436.6 50 441.5 59 c 0
 453.6 83 475.9 183 479.5 200 c 2
 531.6 445 l 2
 547.5 520 559 588 563.1 645 c 1
 565.7 648 l 1
 565.7 648 583.1 645 617.1 645 c 0
 652.1 645 669.7 648 669.7 648 c 1
 670.1 645 l 1
 650.8 592 633.5 520 617.6 445 c 2
 565.5 200 l 2
 561.9 183 541.6 83 543.5 59 c 0
 544.6 50 550.4 44 568.4 44 c 2
 746.4 44 l 2
 764.4 44 772.6 50 777.5 59 c 0
 789.6 83 811.9 183 815.5 200 c 2
 867.6 445 l 2
 883.5 520 896.8 592 900.1 645 c 1
 901.7 648 l 1
 901.7 648 918.1 645 953.1 645 c 0
 987.1 645 1005.7 648 1005.7 648 c 1
 1007.1 645 l 1
 987 588 969.5 520 953.6 445 c 2
 901.5 200 l 2
 878.1 90 872.7 35 905.8 32 c 0
 930.2 29.8 933.4 20.7 931.3 11 c 2
 887.7 -138 l 1
 885 -141 l 1
 853 -141 l 1
 851.7 -138 l 1
 856.2 -65.4 857.7 0 778 0 c 2
 147 0 l 2
EndSplineSet
EndChar

StartChar: afii10044
Encoding: 1066 1066 89
Width: 717
VWidth: 999
Flags: HW
HStem: -2 35<330.629 502.725> 329 44<348 522.728> 569 21G<50 254> 581 64<52.7551 257.32>
VStem: 262 86<37.7419 329 373 578.197> 587 94<103.061 266.903>
LayerCount: 2
Back
SplineSet
41.2598 645.508 m 5
 25.6348 471.68 l 5
 55.4199 468.75 l 5
 62.7441 511.719 94.9707 606.445 146.729 606.445 c 6
EndSplineSet
Fore
SplineSet
439.1 645 m 2
 477.1 645 494.7 648 494.7 648 c 1
 495.1 645 l 1
 475.8 592 460.6 520 442.6 445 c 1
 427.3 373 l 1
 485.3 373 l 2
 731.3 373 738.8 272 719.9 183 c 0
 684.4 16 523.6 -2 402.6 -2 c 0
 366.6 -2 336 0 307 0 c 0
 273 0 252.4 -3 252.4 -3 c 1
 252 0 l 1
 271.5 54 288.6 125 304.5 200 c 2
 356.6 445 l 2
 360 462 379.4 557 377.5 581 c 1
 243.5 581 172.9 569 172.9 569 c 1
 171.8 573 l 1
 177 588 183.1 617 187.1 645 c 1
 189.7 648 l 1
 205.3 646 228.1 645 249.1 645 c 2
 439.1 645 l 2
417.9 329 m 1
 365.9 84 l 2
 358.9 51 357 33 412 33 c 0
 564 33 612.7 121 625.9 183 c 0
 638.7 243 630.9 329 502.9 329 c 2
 417.9 329 l 1
EndSplineSet
EndChar

StartChar: afii10045
Encoding: 1067 1067 90
Width: 786
VWidth: 999
Flags: HW
HStem: -2 21<588 641 641 694> -2 30<19 51 194.478 332.526> 333 40<187 355.567> 618 28<19 51 241 274> 629 20<588 641 641 694>
VStem: 106 81<36.1947 333 373 608.615> 433 89<103.729 266.225> 598 86<3.67992 643.32>
LayerCount: 2
Back
SplineSet
592.759 599.272 m 22
 592.759 608.74 592.461 615.552 591.87 619.692 c 4
 590.684 627.983 586.987 634.341 580.771 638.779 c 4
 576.924 642.031 568.643 643.662 555.913 643.662 c 6
 527.949 644.106 l 6
 524.697 644.404 523.066 645.884 523.066 648.545 c 6
 523.066 664.082 l 5
 626.05 661.865 l 4
 733.472 664.082 l 5
 733.472 649.434 l 6
 733.472 646.182 731.694 644.404 728.145 644.106 c 6
 700.625 643.662 l 6
 687.896 643.662 679.614 642.031 675.767 638.779 c 4
 668.96 633.452 665.259 627.095 664.668 619.692 c 4
 664.077 613.179 663.779 606.377 663.779 599.272 c 14
 663.779 92.7939 l 6
 663.779 85.6914 664.077 78.8857 664.668 72.375 c 4
 665.259 64.9766 668.96 58.6133 675.767 53.2871 c 4
 679.614 50.3281 687.896 48.7002 700.625 48.4043 c 6
 728.145 47.9609 l 6
 731.694 47.9609 733.472 46.333 733.472 43.0771 c 6
 733.472 27.9854 l 5
 626.05 30.2051 l 4
 523.066 27.9854 l 5
 523.066 43.5215 l 6
 523.066 46.4805 524.697 47.9609 527.949 47.9609 c 6
 555.913 48.4043 l 6
 568.643 48.7002 576.924 50.3281 580.771 53.2871 c 4
 586.987 57.7266 590.684 64.0889 591.87 72.375 c 4
 592.456 76.5176 592.759 83.3242 592.759 92.7939 c 6
 592.759 599.272 l 22
197.693 597.5 m 14
 197.693 386.207 l 21
 250.96 386.207 l 6
 329.092 386.207 386.649 377.328 423.635 359.572 c 4
 492.29 326.725 526.616 274.789 526.616 203.767 c 4
 526.616 145.173 504.126 99.748 459.146 67.4922 c 4
 423.635 42.042 381.465 29.3174 332.637 29.3174 c 6
 56.9795 29.3174 l 5
 56.9795 44.8535 l 6
 56.9795 47.7607 58.6074 49.2402 61.8623 49.293 c 6
 89.8271 49.7363 l 6
 102.428 49.9365 110.714 51.5645 114.686 54.6191 c 4
 120.899 59.0586 124.6 65.4199 125.782 73.707 c 4
 126.375 77.8477 126.67 84.6533 126.67 94.125 c 14
 126.67 597.5 l 22
 126.67 606.968 126.375 613.779 125.782 617.92 c 4
 124.732 625.273 121.033 631.636 114.686 637.007 c 4
 111.082 640.054 102.797 641.68 89.8271 641.89 c 6
 61.8623 642.334 l 6
 58.6074 642.378 56.9795 643.862 56.9795 646.772 c 6
 56.9795 662.305 l 5
 159.962 660.088 l 4
 267.385 662.305 l 5
 267.385 647.661 l 6
 267.385 644.165 265.608 642.388 262.058 642.334 c 6
 234.536 641.89 l 6
 221.564 641.68 213.277 640.054 209.678 637.007 c 4
 202.873 631.68 199.172 625.317 198.581 617.92 c 4
 197.989 611.406 197.693 604.6 197.693 597.5 c 14
197.693 354.689 m 13
 197.693 61.7207 l 21
 238.235 54.0273 277.594 52.252 315.769 56.3945 c 4
 362.229 61.7207 397.149 80.2168 420.527 111.881 c 4
 438.283 135.555 447.16 166.628 447.16 205.099 c 4
 447.16 240.313 437.543 272.126 418.308 300.535 c 4
 393.746 336.639 349.356 354.689 285.14 354.689 c 6
 197.693 354.689 l 13
EndSplineSet
Fore
SplineSet
258.9 329 m 1
 206.9 84 l 2
 199.9 51 198 33 253 33 c 0
 405 33 453.7 121 466.9 183 c 0
 479.7 243 471.9 329 343.9 329 c 2
 258.9 329 l 1
148 0 m 0
 114 0 93.4 -3 93.4 -3 c 1
 93 0 l 1
 112.5 54 129.6 125 145.5 200 c 2
 197.6 445 l 2
 213.5 520 225 588 229.1 645 c 1
 231.7 648 l 1
 231.7 648 249.1 645 283.1 645 c 0
 318.1 645 335.7 648 335.7 648 c 1
 336.1 645 l 1
 316.8 592 299.5 520 283.6 445 c 2
 268.3 373 l 1
 326.3 373 l 2
 572.3 373 579.8 272 560.9 183 c 0
 525.4 16 364.6 -2 243.6 -2 c 0
 207.6 -2 177 0 148 0 c 0
692.8 446 m 2
 708.7 521 721.2 589 725.3 646 c 1
 727.9 649 l 1
 727.9 649 744.3 646 778.3 646 c 0
 813.3 646 830.9 649 830.9 649 c 1
 831.3 646 l 1
 812 593 794.7 521 778.8 446 c 2
 726.7 201 l 2
 710.8 126 698.3 58 694.2 1 c 1
 691.6 -2 l 1
 691.6 -2 675.2 1 641.2 1 c 0
 606.2 1 588.6 -2 588.6 -2 c 1
 588.2 1 l 1
 607.7 55 624.8 126 640.7 201 c 2
 692.8 446 l 2
EndSplineSet
Colour: ff00ff
EndChar

StartChar: afii10046
Encoding: 1068 1068 91
Width: 558
VWidth: 999
Flags: HW
HStem: -2 35<171.629 343.725> 329 44<189 363.728> 628 20G<92 146 146 199>
VStem: 103 86<37.7419 329 373 642.32> 428 94<103.061 266.903>
LayerCount: 2
Fore
SplineSet
258.9 329 m 1
 206.9 84 l 2
 199.9 51 198 33 253 33 c 0
 405 33 453.7 121 466.9 183 c 0
 479.7 243 471.9 329 343.9 329 c 2
 258.9 329 l 1
148 0 m 0
 114 0 93.4 -3 93.4 -3 c 1
 93 0 l 1
 112.5 54 129.6 125 145.5 200 c 2
 197.6 445 l 2
 213.5 520 225 588 229.1 645 c 1
 231.7 648 l 1
 231.7 648 249.1 645 283.1 645 c 0
 318.1 645 335.7 648 335.7 648 c 1
 336.1 645 l 1
 316.8 592 299.5 520 283.6 445 c 2
 268.3 373 l 1
 326.3 373 l 2
 572.3 373 579.8 272 560.9 183 c 0
 525.4 16 364.6 -2 243.6 -2 c 0
 207.6 -2 177 0 148 0 c 0
EndSplineSet
EndChar

StartChar: afii10047
Encoding: 1069 1069 92
Width: 604
VWidth: 999
Flags: HMW
HStem: -12 34<194 359> 273 56<309 422> 311 49<155 284> 621 37<189 346>
VStem: 472 89<186 307 344 460>
LayerCount: 2
Back
SplineSet
278.809 657.715 m 0x9c
 439.453 657.715 556.152 545.41 556.152 324.219 c 0
 556.152 143.066 434.082 -12.207 264.16 -12.207 c 0
 178.16 -12.207 120.117 19.043 88.8672 43.457 c 0
 62.0977 64.3711 43.457 91.1641 43.457 118.164 c 0
 43.457 144.043 60.0586 164.551 83.0078 164.551 c 0
 111.328 164.551 124.487 152.379 135.254 119.629 c 0
 158.691 48.3398 207.52 21.4844 279.297 21.4844 c 0
 406.738 21.4844 464.844 190.43 466.797 301.758 c 1x9c
 263.184 296.391 l 2xac
 247.494 296.02 225.374 292.479 205.866 292.479 c 0
 182.292 292.479 162.531 297.648 162.531 319.824 c 0
 162.531 344.693 180.365 350.412 202.663 350.412 c 0xcc
 220.644 350.412 241.526 346.693 258.301 346.297 c 2xac
 466.797 340.82 l 1
 460.938 563.477 349.609 621.094 270.508 621.094 c 0
 176.27 621.094 97.6562 539.551 71.7773 453.613 c 1
 41.5039 458.496 l 1
 51.2695 509.766 60.4297 558.179 63.4766 612.793 c 1
 121.094 616.211 173.828 657.715 278.809 657.715 c 0x9c
EndSplineSet
Fore
SplineSet
537.3 307 m 1
 475.1 273 431 273 418 273 c 0
 356 273 321.1 311 262.1 311 c 0
 224.1 311 204.7 295 196.7 295 c 0
 192.7 295 188.4 298 190.3 307 c 0
 195.6 332 264.5 360 323.5 360 c 0
 389.5 360 411.9 329 469.9 329 c 0
 498.9 329 523.2 335 544.1 344 c 1
 577.9 550 484 621 403 621 c 0
 308 621 212.8 540 168.5 454 c 1
 139.4 458 l 1
 161.7 511 179.6 558 193.3 613 c 1
 251.9 616 313.9 658 418.9 658 c 0
 583.9 658 677.9 550 631.8 333 c 0
 585 113 442.4 -12 272.4 -12 c 0
 186.4 -12 137 19 111.1 43 c 0
 88.6 64 74.2 95 79.9 122 c 0
 85.4 148 101.1 165 119.1 165 c 0
 148.1 165 157.3 152 160.5 120 c 0
 169.2 48 218.5 21 290.5 21 c 0
 417.5 21 507 169 537.3 307 c 1
EndSplineSet
EndChar

StartChar: afii10048
Encoding: 1070 1070 93
Width: 905
VWidth: 999
Flags: HW
HStem: -12 39<517.224 661.561> -3 21<96 149 149 202> 302 44<187 285> 619 39<495.321 644.165> 628 20<96 149 149 202>
VStem: 106 86<2.67992 642.32> 285 96<193.326 302 346 446.919> 770 96<190.805 458.298>
LayerCount: 2
Fore
SplineSet
200.6 445 m 2
 216.5 520 229 588 233.1 645 c 1
 235.7 648 l 1
 235.7 648 252.1 645 286.1 645 c 0
 321.1 645 338.7 648 338.7 648 c 1
 339.1 645 l 1
 319.8 592 302.6 520 286.6 445 c 2
 265.5 346 l 1
 359.5 346 l 1
 410.5 525 556.9 658 712.9 658 c 0
 880.9 658 978 527 935.9 329 c 0
 893.4 129 749.4 -12 571.4 -12 c 0
 413.4 -12 310 108 349.2 302 c 1
 256.2 302 l 1
 234.5 200 l 2
 218.6 125 206.1 57 202 0 c 1
 199.4 -3 l 1
 199.4 -3 183 0 149 0 c 0
 114 0 96.4 -3 96.4 -3 c 1
 96 0 l 1
 115.5 54 132.6 125 148.5 200 c 2
 200.6 445 l 2
693.6 619 m 0
 609.6 619 495.1 537 450.5 327 c 0
 409.7 135 489.7 27 597.7 27 c 0
 700.7 27 797.9 131 835.9 310 c 0
 880.1 518 818.6 619 693.6 619 c 0
EndSplineSet
EndChar

StartChar: afii10049
Encoding: 1071 1071 94
Width: 561
VWidth: 999
Flags: HW
HStem: -3 21G<0 11.833 112.333 127.333 369.833 422.833 422.833 475.833> 286 44<272.871 379.833> 613 39<216.489 397.534>
VStem: 70.8 97<391.208 564.52> 379.8 86<2.67992 286 330 603.161>
LayerCount: 2
Back
SplineSet
387.695 322.754 m 21
 281.25 322.754 266.602 281.738 230.469 179.688 c 4
 191.895 70.3125 163.085 1.07129 91.3086 0 c 6
 25.8789 -0.976562 l 5xa2
 24.4141 0.976562 l 5x62
 24.4141 19.5312 l 6
 24.4141 24.9023 27.832 27.832 31.7383 27.832 c 6xb2
 41.0156 27.832 l 6
 73.7305 27.832 125 102.539 176.758 235.84 c 4
 200.684 296.387 219.238 342.773 281.25 342.773 c 5
 263.021 350.424 84.1318 351.723 83.9844 504.395 c 5
 83.9844 562.5 117.676 646.484 303.711 646.484 c 4
 338.867 646.484 397.461 644.531 430.176 644.531 c 4
 461.914 644.531 558.594 646.484 558.594 646.484 c 5
 558.594 624.512 l 6
 558.594 620.605 556.763 617.676 551.27 617.676 c 6
 521.484 617.676 l 6
 479.98 617.676 468.262 607.939 468.262 573.73 c 6
 468.262 71.2891 l 6
 468.262 40.5273 483.398 27.832 522.949 27.832 c 6
 549.316 27.832 l 6
 553.711 27.832 557.617 24.9023 557.617 19.5312 c 6
 557.617 0.976562 l 5
 555.664 -0.976562 l 5
 555.664 -0.976562 468.75 0.976562 429.688 0.976562 c 4
 394.043 0.976562 300.781 -0.976562 300.781 -0.976562 c 5
 298.828 0.976562 l 5
 298.828 19.5312 l 6
 298.828 24.9023 301.758 27.832 306.641 27.832 c 6
 333.008 27.832 l 6
 374.023 27.832 387.695 43.457 387.695 71.2891 c 6
 387.695 322.754 l 21
387.695 575.195 m 6
 387.695 365.723 l 5
 310.059 365.723 l 6
 227.051 365.723 161.133 417.969 161.133 502.441 c 4
 161.133 594.727 240.723 611.328 296.875 611.328 c 4x36
 383.301 611.328 387.695 607.91 387.695 575.195 c 6
EndSplineSet
Fore
SplineSet
283 300 m 1
 263.9 305.1 250.3 311.3 238.6 318 c 0
 190.3 345 155.4 397 172.8 479 c 0
 183.4 529 209.2 570 252.4 604 c 0
 310 649 373.6 652 436.6 652 c 0
 461.6 652 530.1 645 560.1 645 c 0
 594.1 645 611.7 648 611.7 648 c 1
 613.1 645 l 1
 593 588 576.5 520 560.6 445 c 2
 508.5 200 l 2
 492.6 125 479.5 54 476 0 c 1
 474.4 -3 l 1
 474.4 -3 458 0 423 0 c 0
 389 0 371.4 -3 371.4 -3 c 1
 370 0 l 1
 390.1 57 406.5 125 422.5 200 c 2
 440.8 286 l 1
 415.9 286 394.2 286.6 375.1 287.6 c 1
 339.6 254.7 302.2 214.9 266.4 176 c 0
 200.2 103.9 139.6 31 121.4 -3 c 1
 103 0 73 0 54 0 c 0
 34 0 22 0 1.4 -3 c 1
 0 0 l 1
 62.1 56.7 201.3 215.9 283 300 c 1
427.3 613 m 0
 366.3 613 294.7 596 269.6 478 c 0
 243 353 305.1 330 402.1 330 c 2
 450.1 330 l 1
 500.9 569 l 2
 507.1 598 498.3 613 427.3 613 c 0
EndSplineSet
EndChar

StartChar: afii10089
Encoding: 1095 1095 95
Width: 510
VWidth: 999
Flags: HW
HStem: -3 21<323 373 373 423> 137 44<162.252 301.419> 412 20G<57 107 107 157 323 373 373 423>
VStem: 68 80<195.691 426.366> 333 80<2.66468 426.335>
LayerCount: 2
Back
SplineSet
664.062 430.664 m 5
 666.016 428.711 l 5
 666.016 410.156 l 6
 666.016 404.785 663.086 401.855 658.203 401.855 c 6
 631.836 401.855 l 6
 590.82 401.855 74.2188 401.855 34.668 401.855 c 6
 8.30078 401.855 l 6
 3.90625 401.855 0 404.785 0 410.156 c 6
 0 428.711 l 5
 1.95312 430.664 l 5
 664.062 430.664 l 5
-122.07 428.711 m 5
 785.156 428.711 l 5
-57.1289 0.976562 m 5
 990.234 0.976562 l 5
741.699 27.832 m 6
 768.066 27.832 l 6
 772.461 27.832 776.367 24.9023 776.367 19.5312 c 6
 776.367 0.976562 l 5
 774.414 -0.976562 l 5
 9.27734 -0.976562 l 5
 7.32422 0.976562 l 5
 7.32422 19.5312 l 6
 7.32422 24.9023 10.2539 27.832 15.1367 27.832 c 6
 41.5039 27.832 l 6
 82.5195 27.832 702.148 27.832 741.699 27.832 c 6
EndSplineSet
Fore
SplineSet
129.9 291 m 0
 145.9 366.5 144.9 376 148.2 429 c 1
 149.8 432 l 1
 149.8 432 163.2 429 198.2 429 c 0
 232.2 429 246.8 432 246.8 432 c 1
 248.2 429 l 1
 228.1 372 226.2 368 210.3 293 c 0
 193.7 215 193.5 181 255.5 181 c 0
 303.5 181 342.4 192.5 380.4 223 c 1
 386.1 250 l 2
 401.1 321 411.7 375 414.2 429 c 1
 415.8 432 l 1
 415.8 432 429.2 429 464.2 429 c 0
 498.2 429 512.8 432 512.8 432 c 1
 514.2 429 l 1
 493.1 372 483 325 466.1 250 c 2
 451 179 l 2
 435.1 104 426.1 57 423 0 c 1
 420.4 -3 l 1
 420.4 -3 407 0 373 0 c 0
 338 0 323.4 -3 323.4 -3 c 1
 323 0 l 1
 343.4 53.9 355.2 104.8 370.9 178.5 c 1
 326.8 150.5 292.1 137 233.1 137 c 0
 135.1 137 107.4 185 129.9 291 c 0
EndSplineSet
EndChar

StartChar: afii10090
Encoding: 1096 1096 96
Width: 807
VWidth: 999
Flags: HW
HStem: 0 41<185.326 354.674 451.326 622.533> 412 20G<87 137 137 187 353 403 403 453 619 670 670 720>
VStem: 97 80<55.1837 426.335> 363 80<55.1837 426.335> 629 80<43.5547 426.335>
CounterMasks: 1 38
LayerCount: 2
Fore
SplineSet
751.5 200 m 2
 735.7 125.5 722.5 54 719 0 c 1
 717.4 -3 l 1
 717.4 -3 700 0 666 0 c 2
 140 0 l 2
 106 0 87.4 -3 87.4 -3 c 1
 87 0 l 1
 106.5 54 123.6 125 139.5 200 c 2
 150.1 250 l 2
 166 325 175.1 372 178.2 429 c 1
 180.8 432 l 1
 180.8 432 194.2 429 228.2 429 c 0
 263.2 429 277.8 432 277.8 432 c 1
 278.2 429 l 1
 257.7 375 245.8 324 230.1 250 c 2
 219.5 200 l 2
 215.9 183 194.6 78 196.5 54 c 1
 201.6 45 204.7 41 219.7 41 c 2
 337.7 41 l 2
 352.7 41 357.6 45 366.5 54 c 1
 378.6 78 401.9 183 405.5 200 c 2
 416.1 250 l 2
 432 325 441.1 372 444.2 429 c 1
 446.8 432 l 1
 446.8 432 460.2 429 494.2 429 c 0
 529.2 429 543.8 432 543.8 432 c 1
 544.2 429 l 1
 523.7 375 511.8 324 496.1 250 c 2
 485.5 200 l 2
 481.9 183 460.6 78 462.5 54 c 1
 467.6 45 470.7 41 485.7 41 c 2
 617.7 41 l 2
 632.7 41 623.6 45 632.5 54 c 1
 644.6 78 667.9 183 671.5 200 c 2
 681.9 249 l 2
 698 325 706.6 372 710.2 429 c 1
 712.8 432 l 1
 712.8 432 726.9 429 761.2 429 c 0
 796.2 429 810.8 432 810.8 432 c 1
 811.2 429 l 1
 791.3 375.5 777.9 324.1 761.9 249 c 2
 751.5 200 l 2
EndSplineSet
EndChar

StartChar: afii10091
Encoding: 1097 1097 97
Width: 813
VWidth: 999
Flags: HW
HStem: 0 41<185.326 354.674 451.326 622.533> 412 20G<87 137 137 187 353 403 403 453 619 670 670 720>
VStem: 97 80<55.1837 426.335> 363 80<55.1837 426.335> 629 80<41.465 426.335> 731 36<-125 -51.0881>
LayerCount: 2
Back
SplineSet
496.094 31.7383 m 6
 463.379 31.7383 459.961 45.4102 459.961 75.1953 c 14
385.254 72.7539 m 22
 385.254 49.8047 370.605 27.832 347.168 27.832 c 4
 324.219 27.832 320.312 17.0898 320.312 9.27734 c 6
 314.453 -128.418 l 5
 339.355 -128.418 l 5
 352.539 -63.4766 393.066 3.90625 464.355 3.90625 c 6
601.562 35.6445 m 6
 634.277 35.6445 637.695 49.3164 637.695 79.1016 c 14
712.402 72.7539 m 22
 712.402 49.8047 727.051 27.832 750.488 27.832 c 4
 773.438 27.832 777.344 17.0898 777.344 9.27734 c 6
 783.203 -128.418 l 5
 758.301 -128.418 l 5
 745.117 -63.4766 704.59 3.90625 633.301 3.90625 c 6
EndSplineSet
Fore
SplineSet
140 0 m 2
 106 0 87.4 -3 87.4 -3 c 1
 87 0 l 1
 106.5 54 123.6 125 139.5 200 c 2
 150.1 250 l 2
 166 325 175.1 372 178.2 429 c 1
 180.8 432 l 1
 180.8 432 194.2 429 228.2 429 c 0
 263.2 429 277.8 432 277.8 432 c 1
 278.2 429 l 1
 257.7 375 245.8 324 230.1 250 c 2
 219.5 200 l 2
 215.9 183 194.6 78 196.5 54 c 1
 201.6 45 204.7 41 219.7 41 c 2
 337.7 41 l 2
 352.7 41 357.6 45 366.5 54 c 1
 378.6 78 401.9 183 405.5 200 c 2
 416.1 250 l 2
 432 325 441.1 372 444.2 429 c 1
 446.8 432 l 1
 446.8 432 460.2 429 494.2 429 c 0
 529.2 429 543.8 432 543.8 432 c 1
 544.2 429 l 1
 523.7 375 511.8 324 496.1 250 c 2
 485.5 200 l 2
 481.9 183 460.6 78 462.5 54 c 1
 467.6 45 470.7 41 485.7 41 c 2
 617.7 41 l 2
 632.7 41 623.6 45 632.5 54 c 1
 644.6 78 667.9 183 671.5 200 c 2
 681.9 249 l 2
 698 325 706.6 372 710.2 429 c 1
 712.8 432 l 1
 712.8 432 726.9 429 761.2 429 c 0
 796.2 429 810.8 432 810.8 432 c 1
 811.2 429 l 1
 791.3 375.5 777.9 324.1 761.9 249 c 2
 751.5 200 l 2
 728.2 90 722.7 35 755.8 32 c 0
 780.2 29.8 783.4 20.7 781.3 11 c 2
 740.4 -125 l 1
 737.8 -128 l 1
 705.8 -128 l 1
 704.4 -125 l 1
 708.9 -52.4 707.7 0 628 0 c 2
 140 0 l 2
EndSplineSet
EndChar

StartChar: afii10092
Encoding: 1098 1098 98
Width: 539
VWidth: 999
Flags: HW
HStem: -2 36<257.183 402.245> 219 37<273 402.262> 374 55<34.7075 190>
VStem: 193 80<40.3429 219 256 372.311> 428 80<60.92 197.087>
LayerCount: 2
Back
SplineSet
38.0859 429.688 m 9
 26.3672 277.832 l 25
 53.2227 275.391 l 17
 65.4297 332.52 79.5898 391.113 137.207 391.113 c 10
EndSplineSet
Fore
SplineSet
246.1 250 m 2
 261.2 321 269.5 374 269.5 374 c 1
 144.5 374 111.2 363 111.2 363 c 1
 109.8 366 l 1
 114.8 380 119.7 403 123.2 429 c 1
 125.6 431 l 1
 140.4 430 161.2 429 180.2 429 c 2
 324.2 429 l 2
 358.2 429 372.8 432 372.8 432 c 1
 374.2 429 l 1
 353.1 372 344.1 334 328.1 259 c 1
 327.4 256 l 1
 384.4 256 l 2
 480.4 256 556.9 230 536.9 136 c 0
 519 52 445.6 -2 334.6 -2 c 0
 294.8 -2 272.8 0 233 0 c 0
 198 0 183.4 -3 183.4 -3 c 1
 183 0 l 1
 203.5 54 215.3 105 231 179 c 2
 246.1 250 l 2
454.8 126 m 0
 466.1 179 457.6 219 386.6 219 c 2
 319.6 219 l 1
 289.8 79 l 2
 282.4 44 297.2 34 343.2 34 c 0
 393.2 34 437.4 44 454.8 126 c 0
EndSplineSet
EndChar

StartChar: afii10093
Encoding: 1099 1099 99
Width: 681
VWidth: 999
Flags: HW
HStem: -3 21<496 546 546 596> -2 36<165.183 310.245> 219 37<181 310.262> 412 20<91 141 141 191 496 546 546 596>
VStem: 101 80<40.3429 219 256 426.342> 336 80<60.92 197.087> 506 80<2.66468 426.335>
LayerCount: 2
Fore
SplineSet
236.1 259 m 1
 235.4 256 l 1
 292.4 256 l 2
 388.4 256 464.9 230 444.9 136 c 0
 427 52 353.6 -2 242.6 -2 c 0
 202.8 -2 180.8 0 141 0 c 0
 106 0 91.4 -3 91.4 -3 c 1
 91 0 l 1
 111.5 54 123.3 105 139 179 c 2
 154.1 250 l 2
 169.2 321 179.7 375 182.2 429 c 1
 183.8 432 l 1
 183.8 432 197.2 429 232.2 429 c 0
 266.2 429 280.8 432 280.8 432 c 1
 282.2 429 l 1
 261.1 372 252.1 334 236.1 259 c 1
362.8 126 m 0
 374.1 179 365.6 219 294.6 219 c 2
 227.6 219 l 1
 197.8 79 l 2
 190.4 44 205.2 34 251.2 34 c 0
 301.2 34 345.4 44 362.8 126 c 0
559.1 250 m 2
 574.2 321 584.7 375 587.2 429 c 1
 588.8 432 l 1
 588.8 432 602.2 429 637.2 429 c 0
 671.2 429 685.8 432 685.8 432 c 1
 687.2 429 l 1
 666.1 372 656 325 639.1 250 c 2
 624 179 l 2
 608.1 104 599.1 57 596 0 c 1
 593.4 -3 l 1
 593.4 -3 580 0 546 0 c 0
 511 0 496.4 -3 496.4 -3 c 1
 496 0 l 1
 516.5 54 528.3 105 544 179 c 2
 559.1 250 l 2
EndSplineSet
Colour: ff00ff
EndChar

StartChar: afii10094
Encoding: 1100 1100 100
Width: 447
VWidth: 999
Flags: HW
HStem: -2 36<165.183 310.245> 219 37<181 310.262> 412 20G<91 141 141 191>
VStem: 101 80<40.3429 219 256 426.342> 336 80<60.92 197.087>
LayerCount: 2
Back
SplineSet
180.664 357.422 m 6
 180.664 385.742 190.918 401.367 223.633 401.367 c 6
 242.676 401.367 l 6
 247.07 401.367 250.977 404.297 250.977 409.668 c 6
 250.977 428.223 l 5
 249.023 430.176 l 5
 249.023 430.176 180.664 428.223 141.602 428.223 c 4
 105.957 428.223 38.0859 430.176 38.0859 430.176 c 5
 36.1328 428.223 l 5
 36.1328 409.668 l 6
 36.1328 404.297 39.0625 401.367 43.9453 401.367 c 6
 62.9883 401.367 l 6
 96.6797 401.367 105.957 385.742 105.957 357.422 c 6
 105.957 108.398 l 2
 105.957 55.1758 97.168 46.875 83.4961 46.875 c 0
 70.3125 46.875 58.5938 48.3398 41.5039 51.7578 c 1
 36.6211 24.4141 l 1
 100.146 13.8271 112.061 9.0332 140.625 -4.45605 c 0
 151.082 -9.39453 158.317 -12.6953 165.527 -12.6953 c 2
 180.664 -12.6953 l 1
 180.664 357.422 l 6
EndSplineSet
Fore
SplineSet
236.1 259 m 1
 235.4 256 l 1
 292.4 256 l 2
 388.4 256 464.9 230 444.9 136 c 0
 427 52 353.6 -2 242.6 -2 c 0
 202.8 -2 180.8 0 141 0 c 0
 106 0 91.4 -3 91.4 -3 c 1
 91 0 l 1
 111.5 54 123.3 105 139 179 c 2
 154.1 250 l 2
 169.2 321 179.7 375 182.2 429 c 1
 183.8 432 l 1
 183.8 432 197.2 429 232.2 429 c 0
 266.2 429 280.8 432 280.8 432 c 1
 282.2 429 l 1
 261.1 372 252.1 334 236.1 259 c 1
362.8 126 m 0
 374.1 179 365.6 219 294.6 219 c 2
 227.6 219 l 1
 197.8 79 l 2
 190.4 44 205.2 34 251.2 34 c 0
 301.2 34 345.4 44 362.8 126 c 0
EndSplineSet
EndChar

StartChar: afii10095
Encoding: 1101 1101 101
Width: 434
VWidth: 999
Flags: HMW
HStem: -10 31<133.489 237.744> 180 49<160.832 302.074> 207 41<92.6331 188.46> 408 31<122.738 236.146>
VStem: 314 77<116.594 208 230.421 318.818>
LayerCount: 2
Back
SplineSet
136.23 390.625 m 6
 105.957 390.625 76.6602 377.93 58.1055 294.434 c 5
 31.7383 298.828 l 5
 63.4766 451.172 l 5
 86.9141 446.777 l 5
 87.6465 432.129 91.9902 429.688 107.91 429.688 c 6
309.03 207.447 m 1
 204.102 204.59 l 2
 192.383 204.59 175.781 201.66 161.133 201.66 c 0
 143.555 201.66 128.906 205.566 128.906 222.168 c 0
 128.906 241.211 142.09 245.117 158.691 245.117 c 0
 172.363 245.117 187.988 242.676 200.684 242.188 c 2
 307.162 239.663 l 1
 298.34 375 228.516 410.645 182.129 410.645 c 0
 101.562 410.645 79.5898 354.004 65.4297 287.598 c 1
 39.5508 291.992 l 1
 45.5518 336.016 48.9209 387.496 51.2695 441.865 c 1
 63.9648 441.895 l 1
 73.4863 441.895 77.3926 430.664 84.9609 430.664 c 1
 115.723 430.664 132.324 441.895 192.383 441.895 c 0
 315.43 441.895 385.742 330.566 385.742 220.215 c 0
 385.742 62.9883 271.973 -12.207 183.105 -12.207 c 0
 92.2852 -12.207 36.6211 24.4141 36.6211 84.4727 c 0
 36.6211 98.1445 48.8281 113.281 66.8945 113.281 c 0
 77.6367 113.281 103.027 109.375 107.91 76.1719 c 0
 112.863 42.4912 131.836 18.5547 182.617 18.5547 c 0
 234.276 18.5547 305.664 58.5938 309.03 207.447 c 1
EndSplineSet
Fore
SplineSet
363.2 236 m 1
 371.7 309 358.7 408 268.7 408 c 0
 188.7 408 155.6 351 128.6 290 c 1
 102.5 294 l 1
 117.9 338 128.1 372 141.8 427 c 1
 211.8 427 214.3 439 285.3 439 c 0
 408.3 439 462.2 335 438.8 225 c 0
 405.4 68 281.9 -10 175.9 -10 c 0
 93.9 -10 44.2 34 55.3 86 c 0
 58.3 100 73.4 115 91.4 115 c 0
 102.4 115 123.6 111 121.6 78 c 0
 120.4 44 146.5 21 189.5 21 c 0
 283.5 21 341.6 130 358.2 208 c 1
 333.6 196 297.3 180 266.3 180 c 0
 222.3 180 199 207 164 207 c 0
 152 207 140.9 202 132.9 202 c 0
 126.9 202 127.9 211 128.7 215 c 0
 131.9 230 180.7 248 223.7 248 c 0
 268.7 248 281.7 229 319.7 229 c 0
 335.7 229 350.1 231 363.2 236 c 1
EndSplineSet
EndChar

StartChar: afii10096
Encoding: 1102 1102 102
Width: 686
VWidth: 999
Flags: HW
HStem: -10 35<422.78 523.403> -2 29<29 54 214 240> 198 39<171 268> 402 29<29 54 214 240> 406 33<403.08 503.112>
VStem: 97 74<33.7976 198 237 394.785> 268 80<113.871 198 237 323.327> 569 80<107.111 329.997>
LayerCount: 2
Fore
SplineSet
146.1 250 m 2
 161.2 321 171.7 375 174.2 429 c 1
 175.8 432 l 1
 175.8 432 189.2 429 224.2 429 c 0
 258.2 429 272.8 432 272.8 432 c 1
 274.2 429 l 1
 253.1 372 243 325 226.1 250 c 1
 223.4 237 l 1
 319.4 237 l 1
 354.7 356 437.3 439 552.3 439 c 0
 696.3 439 717.2 321 695.1 217 c 0
 673.8 117 594.9 -10 455.9 -10 c 0
 327.9 -10 290.6 97 310.1 198 c 1
 215.1 198 l 1
 211 179 l 2
 195.1 104 186.1 57 183 0 c 1
 180.4 -3 l 1
 180.4 -3 167 0 133 0 c 0
 98 0 83.4 -3 83.4 -3 c 1
 83 0 l 1
 103.5 54 115.3 105 131 179 c 2
 146.1 250 l 2
534.2 401 m 0
 460.2 401 419.5 313 401 226 c 0
 384.6 149 387.4 30 481.4 30 c 0
 522.4 30 575.2 53 603.3 185 c 0
 634.3 331 612.2 401 534.2 401 c 0
EndSplineSet
EndChar

StartChar: afii10097
Encoding: 1103 1103 103
Width: 429
VWidth: 999
Flags: HW
HStem: -3 30<10 25> 195 35<206.934 268> 204 26<157.163 165> 402 30<151.259 285.062>
VStem: 38 85<253.842 371.816> 268 80<2.65817 195 230 398.777>
LayerCount: 2
Back
SplineSet
287.598 243.652 m 1xe8
 287.598 210.449 l 1
 204.102 210.449 186.035 172.363 164.062 112.793 c 4
 148.926 72.2656 122.559 0.976562 77.6367 0 c 6
 12.6953 -0.976562 l 5
 10.2539 0.976562 l 5
 10.2539 19.5312 l 6
 10.2539 26.8555 16.1133 27.832 20.5078 27.832 c 6
 27.832 27.832 l 6
 61.0352 27.832 97.168 119.141 111.328 156.738 c 4
 129.395 205.566 164.551 226.562 212.891 226.562 c 1
 173.34 234.375 153.32 274.902 140.137 318.359 c 0
 130.371 348.633 116.699 370.605 106.934 370.605 c 0
 99.1211 370.605 93.75 368.164 89.3555 363.77 c 0
 83.9844 357.91 71.7773 354.492 62.9883 354.492 c 0
 45.8984 354.492 28.3203 373.047 28.3203 393.066 c 0
 28.3203 417.48 38.0859 437.5 75.1953 437.5 c 0
 118.164 437.5 146.973 383.789 163.086 337.402 c 0
 182.129 281.738 208.496 243.652 269.531 243.652 c 2
 287.598 243.652 l 1xe8
EndSplineSet
Fore
SplineSet
401.4 251 m 2
 385.8 178 l 2
 370.9 108 360.5 54 358 0 c 1
 356.4 -3 l 1
 356.4 -3 343 0 308 0 c 0
 274 0 259.4 -3 259.4 -3 c 1
 258 0 l 1
 279.1 57 288.2 95 303.9 169 c 2
 309.4 195 l 1
 284.4 195 l 2
 244.4 195 210.5 144.7 176.9 84 c 0
 154.2 43 118.2 1 83 0 c 2
 9.4 -3 l 1
 7 0 l 1
 11 19 l 2
 12.5 26 18.7 27 22.7 27 c 2
 31 28 l 2
 58.6 31 106.8 98 128.9 136 c 0
 153.6 177 179.1 198 208.4 204 c 1
 153.4 204 88.8 239 103.9 310 c 0
 110.1 339 147.8 432 308.8 432 c 0
 345.8 432 363.2 429 399.2 429 c 0
 434.2 429 448.8 432 448.8 432 c 1
 449.2 429 l 1
 428.7 375 417 324 401.4 251 c 2
316.9 230 m 1
 345.8 366 l 2
 352.6 398 338.4 402 299.4 402 c 0
 225.4 402 201.2 368 191.2 321 c 0
 180.6 271 194.9 230 251.9 230 c 2
 316.9 230 l 1
EndSplineSet
EndChar

StartChar: uni04AE
Encoding: 1198 1198 104
Width: 591
VWidth: 999
Flags: HW
HStem: -3 21<242.42 247 334 339.566> 628 20<24.5 36 121.5 157.5 454.375 486 503.5 557.5>
LayerCount: 2
Fore
SplineSet
395 285.6 m 1
 374.8 186.5 347.5 44.9 341.4 -3 c 1
 326 0 305 0 290 0 c 0
 275 0 255 0 238.4 -3 c 1
 255.9 52.5 283.5 177.5 304.4 275.1 c 1
 280.2 340.2 180.9 588 153.7 648 c 1
 170.1 645 193.1 645 210.1 645 c 0
 227.1 645 250.1 645 267.7 648 c 1
 299 542.6 337.4 448.7 377.5 340.2 c 1
 454.6 431.1 544.9 543.2 617.7 648 c 1
 629.1 645 646.1 645 659.1 645 c 0
 671.1 645 688.1 645 701.7 648 c 1
 541.8 463.5 453 365.5 395 285.6 c 1
EndSplineSet
Colour: ff00ff
EndChar

StartChar: uni04C0
Encoding: 1216 1216 105
Width: 293
VWidth: 999
Flags: HW
HStem: -3 21<96 149 149 202> 628 20<96 149 149 202>
VStem: 106 86<2.67992 642.32>
LayerCount: 2
Fore
SplineSet
200.6 445 m 2
 216.5 520 229 588 233.1 645 c 1
 235.7 648 l 1
 235.7 648 252.1 645 286.1 645 c 0
 321.1 645 338.7 648 338.7 648 c 1
 339.1 645 l 1
 319.8 592 302.5 520 286.6 445 c 2
 234.5 200 l 2
 218.6 125 206.1 57 202 0 c 1
 199.4 -3 l 1
 199.4 -3 183 0 149 0 c 0
 114 0 96.4 -3 96.4 -3 c 1
 96 0 l 1
 115.5 54 132.6 125 148.5 200 c 2
 200.6 445 l 2
EndSplineSet
Colour: ff00ff
EndChar

StartChar: uni04D0
Encoding: 1232 1232 106
Width: 633
VWidth: 999
Flags: HW
HStem: -3 21<24 68.5 92 115.444 500.087 513.5 590 606.5> 230 44<188.935 310> 638 20<265 387> 698 31<285.536 376.309>
VStem: 206 70<736.681 803.162> 385 70<735.774 803.125>
LayerCount: 2
Fore
SplineSet
467.9 275.5 m 1
 455.9 345.2 439.9 427.4 418.9 521.8 c 1
 416.9 521.8 l 1
 259.3 275.9 l 1
 291 275.5 334.3 274 363.2 274 c 0
 392.9 274 434.9 274.7 467.9 275.5 c 1
229.5 228.3 m 1
 175.2 140.8 126.8 58.3 97.4 -3 c 1
 86 0 64 0 53 0 c 0
 42 0 30 0 17.4 -3 c 1
 165.4 218 309.7 436 452.9 658 c 1
 480.9 658 l 1
 526.4 439 585.9 98 614.4 -3 c 1
 598 0 572 0 555 0 c 0
 538 0 522 0 504.4 -3 c 1
 503 19.2 497 97.2 475.8 228.3 c 1
 438.3 229.2 396.9 230 358.9 230 c 0
 324.4 230 267.7 229.2 229.5 228.3 c 1
486 729 m 0
 519 729 545.5 746 549.2 763 c 0
 550.3 768 550.5 774 550.9 776 c 0
 554.1 791 567.3 806 590.3 806 c 0
 617.3 806 624.3 792 620.3 773 c 0
 609.2 721 545.4 698 479.4 698 c 0
 413.4 698 359.3 721 370.3 773 c 0
 374.3 792 387.3 806 414.3 806 c 0
 437.3 806 444.1 791 440.9 776 c 0
 440.5 774 438.3 768 437.2 763 c 0
 433.6 746 453 729 486 729 c 0
EndSplineSet
LCarets2: 1 0 
Colour: ff00ff
EndChar

StartChar: uni04D1
Encoding: 1233 1233 107
Width: 461
VWidth: 999
Flags: HW
HStem: -10 51<138.029 242.029 327.75 409.627> 394 45<147.355 264.803> 489 31<171.971 246.548>
VStem: 42 81<56.8026 162.817> 88 73<526.553 605.612> 257 73<526.548 606.379> 293 79.1<81.0426 223 264.049 363.451>
DStem2: 199 243 212 202 0.972687 0.232119<-72.5363 85.8176>
LayerCount: 2
Fore
SplineSet
384.2 76 m 0
 379.9 56 382.6 45 393.6 45 c 0
 407.6 45 423.5 59 434 66 c 1
 436.6 64 l 1
 448.1 43 l 1
 408.6 3 379.9 -10 348.9 -10 c 0
 301.9 -10 299.8 32 301.2 48 c 1
 299.2 48 l 1
 239.6 3 209.9 -10 157.9 -10 c 0
 87.9 -10 47.1 24 62.8 98 c 0
 77.3 166 149.8 220 250.7 243 c 2
 343.1 264 l 2
 346.3 265 350.2 269 351.7 276 c 0
 375.7 389 320.7 394 286.7 394 c 0
 241.7 394 190.4 350 154.8 305 c 1
 142 306 l 1
 140.3 373 l 1
 144.1 377 l 1
 172.6 398 233.3 439 305.3 439 c 0
 377.3 439 459.4 412 430.9 277 c 0
 428.6 266 390.4 105 384.2 76 c 0
339.4 223 m 1
 254.9 202 l 2
 177 182.6 154.3 147 144.7 102 c 0
 138.1 71 155.7 41 197.7 41 c 0
 225.7 41 262.4 63 292.9 84 c 0
 302.2 90 309.6 97 312.4 110 c 2
 339.4 223 l 1
452.6 577 m 0
 440.9 522 375.9 489 311.9 489 c 0
 246.9 489 198.9 522 210.4 576 c 0
 214.2 594 233.4 609 256.4 609 c 0
 278.4 609 287.5 595 284.1 579 c 0
 283.5 576 283 574 281.4 571 c 0
 279.8 568 279.1 565 278.7 563 c 0
 274 541 289.5 520 319.5 520 c 0
 348.5 520 373.8 540 378.5 562 c 0
 379.1 565 379.8 568 379.4 571 c 0
 378.8 573 379.3 575 379.9 578 c 0
 383.5 595 403.4 609 421.4 609 c 0
 445.4 609 456.6 596 452.6 577 c 0
EndSplineSet
LCarets2: 1 0 
Colour: ff00ff
EndChar

StartChar: uni04D2
Encoding: 1234 1234 108
Width: 633
VWidth: 999
Flags: HW
HStem: -3 21<24 68.5 92 115.444 500.087 513.5 590 606.5> 230 44<188.935 310> 638 20<265 387> 712 92<210.347 287.653 370.347 447.653>
VStem: 203 92<719.347 796.653> 363 92<719.347 796.653>
LayerCount: 2
Fore
SplineSet
467.9 275.5 m 1
 455.9 345.2 439.9 427.4 418.9 521.8 c 1
 416.9 521.8 l 1
 259.3 275.9 l 1
 291 275.5 334.3 274 363.2 274 c 0
 392.9 274 434.9 274.7 467.9 275.5 c 1
229.5 228.3 m 1
 175.2 140.8 126.8 58.3 97.4 -3 c 1
 86 0 64 0 53 0 c 0
 42 0 30 0 17.4 -3 c 1
 165.4 218 309.7 436 452.9 658 c 1
 480.9 658 l 1
 526.4 439 585.9 98 614.4 -3 c 1
 598 0 572 0 555 0 c 0
 538 0 522 0 504.4 -3 c 1
 503 19.2 497 97.2 475.8 228.3 c 1
 438.3 229.2 396.9 230 358.9 230 c 0
 324.4 230 267.7 229.2 229.5 228.3 c 1
524.1 758 m 0
 529.4 783 554.9 804 579.9 804 c 0
 604.9 804 621.4 783 616.1 758 c 0
 610.8 733 585.3 712 560.3 712 c 0
 535.3 712 518.8 733 524.1 758 c 0
364.1 758 m 0
 369.4 783 394.9 804 419.9 804 c 0
 444.9 804 461.4 783 456.1 758 c 0
 450.8 733 425.3 712 400.3 712 c 0
 375.3 712 358.8 733 364.1 758 c 0
EndSplineSet
LCarets2: 1 0 
Colour: ff00ff
EndChar

StartChar: uni04D3
Encoding: 1235 1235 109
Width: 461
VWidth: 999
Flags: HW
HStem: -10 51<138.029 242.029 327.75 409.627> 394 45<147.355 264.803> 527 92<94.3474 171.653 254.347 331.653>
VStem: 42 81<56.8026 162.817> 87 92<534.347 611.653> 247 92<534.347 611.653> 293 79.1<81.0426 223 264.049 363.451>
DStem2: 199 243 212 202 0.972687 0.232119<-72.5363 85.8176>
LayerCount: 2
Fore
SplineSet
384.2 76 m 0
 379.9 56 382.6 45 393.6 45 c 0
 407.6 45 423.5 59 434 66 c 1
 436.6 64 l 1
 448.1 43 l 1
 408.6 3 379.9 -10 348.9 -10 c 0
 301.9 -10 299.8 32 301.2 48 c 1
 299.2 48 l 1
 239.6 3 209.9 -10 157.9 -10 c 0
 87.9 -10 47.1 24 62.8 98 c 0
 77.3 166 149.8 220 250.7 243 c 2
 343.1 264 l 2
 346.3 265 350.2 269 351.7 276 c 0
 375.7 389 320.7 394 286.7 394 c 0
 241.7 394 190.4 350 154.8 305 c 1
 142 306 l 1
 140.3 373 l 1
 144.1 377 l 1
 172.6 398 233.3 439 305.3 439 c 0
 377.3 439 459.4 412 430.9 277 c 0
 428.6 266 390.4 105 384.2 76 c 0
339.4 223 m 1
 254.9 202 l 2
 177 182.6 154.3 147 144.7 102 c 0
 138.1 71 155.7 41 197.7 41 c 0
 225.7 41 262.4 63 292.9 84 c 0
 302.2 90 309.6 97 312.4 110 c 2
 339.4 223 l 1
368.8 573 m 0
 374.1 598 399.6 619 424.6 619 c 0
 449.6 619 466.1 598 460.8 573 c 0
 455.5 548 430 527 405 527 c 0
 380 527 363.5 548 368.8 573 c 0
208.8 573 m 0
 214.1 598 239.6 619 264.6 619 c 0
 289.6 619 306.1 598 300.8 573 c 0
 295.5 548 270 527 245 527 c 0
 220 527 203.5 548 208.8 573 c 0
EndSplineSet
LCarets2: 1 0 
Colour: ff00ff
EndChar

StartChar: uni04D4
Encoding: 1236 1236 110
Width: 802
VWidth: 999
Flags: HW
HStem: -2 29<4 35 167 201 342 374> 0 39<514.23 740.226> 266 39<271 429> 329 34<512 654.005> 605 40<517.062 711.984> 618 28<296 333>
VStem: 429 83<40.8651 266 305 329 363 597.745> 671 33<247 312.081 407 445>
DStem2: 102.87 85 148 68 0.46188 0.886943<-25.6807 228.955 272.783 581.116>
LayerCount: 2
Fore
SplineSet
466.3 324.7 m 1
 467.5 384.7 468.7 453.9 469.9 533.5 c 1
 467.9 533.5 l 1
 418 469.5 365.1 397.6 314.3 325.7 c 1
 343.8 325.1 379.1 324 403.9 324 c 0
 421.8 324 444.1 324.3 466.3 324.7 c 1
281.2 278.5 m 1
 207.1 171.8 140.2 69.1 97.4 -3 c 1
 86 0 64 0 53 0 c 0
 42 0 30 0 17.4 -3 c 1
 166.5 200 308.2 410 503.3 645.7 c 1
 503.4 645.3 l 1
 505.7 648 l 1
 505.7 648 522.1 645 556.1 645 c 0
 586.1 645 769.1 645 769.1 645 c 2
 790.1 645 813.3 646 829.7 648 c 1
 831.1 645 l 1
 827.1 631 824.2 622 822.5 614 c 0
 820.6 605 819.7 596 819 588 c 1
 816.1 584 l 1
 816.1 584 741 594.3 635.3 594.3 c 0
 559.8 594.3 543.7 585.3 540.4 545.5 c 1
 539.6 475.1 540.1 402.4 541.4 333 c 1
 653.6 333.2 709.3 338.1 767.9 343 c 1
 770.3 340 l 1
 766.4 331 763.2 321 761.3 312 c 0
 759.4 303 758.3 293 758.4 284 c 1
 754.7 281 l 1
 694.7 287.2 597 290.3 542.3 290.9 c 1
 544.4 199.9 547.9 116.9 551.4 55.8 c 1
 651.9 59.2 766 66 766 66 c 1
 767.2 62 l 1
 764.5 54 760.3 39 758.2 29 c 0
 756.1 19 756 14 754 0 c 1
 751.4 -3 l 1
 735.8 -1 713 0 692 0 c 2
 555 0 l 1
 553.5 0 l 1
 500 0 l 2
 483 0 467 0 449.4 -3 c 1
 457 32.7 461.5 117.3 465.3 279.4 c 1
 443.2 279.8 420.8 280 399.5 280 c 0
 368.2 280 318.6 279.3 281.2 278.5 c 1
EndSplineSet
Colour: ff00ff
EndChar

StartChar: uni04D5
Encoding: 1237 1237 111
Width: 687
VWidth: 999
Flags: HW
HStem: -10 42<134.122 258.283> -10 49<441.951 572.545> 215 35<204.499 298 372 496.805> 409 30<145.729 252.328 445.807 530.397>
VStem: 39 72<54.272 157.224> 50 73<295.734 386.882> 298 73<118.361 215 253 332.285> 572 76<289.995 379.656>
LayerCount: 2
Fore
SplineSet
285.7 394 m 0
 241.2 394 189.4 350 153.8 305 c 1
 141 306 l 1
 139.3 373 l 1
 143.1 377 l 1
 172 397.5 231.8 439 304.3 439 c 0
 328.3 439 403.6 436 426.4 369 c 1
 469 414 526.3 439 583.3 439 c 0
 697.3 439 718.9 343 711.7 309 c 0
 705.1 278.1 694 254 670.4 237 c 1
 630.5 217.3 557.4 225.4 420.3 218 c 1
 397.8 112 432.4 44 507.4 44 c 0
 561.4 44 607.4 77 644.8 112 c 1
 658.9 84 l 1
 618.4 30 547.9 -10 481.9 -10 c 0
 390.9 -10 367.2 34 352.5 59 c 1
 297.1 15 242.9 -10 187.9 -10 c 0
 82.9 -10 46 33 60.5 101 c 0
 78.1 184 177.6 243 350.2 255 c 1
 368.9 348.6 358.5 394 285.7 394 c 0
429.8 258 m 1
 571.5 266 614 245 627 306 c 0
 633.8 338 620.7 394 572.7 394 c 0
 509.7 394 455.9 343 429.8 258 c 1
341.7 215 m 1
 206.1 203 154.3 157 143.5 106 c 0
 133.9 61 153.5 40 200.5 40 c 0
 236.5 40 284 61 306.3 100 c 0
 316.5 117.9 331.1 165 341.7 215 c 1
EndSplineSet
Colour: ff00ff
EndChar

StartChar: uni04D6
Encoding: 1238 1238 112
Width: 522
VWidth: 999
Flags: HW
HStem: 0 54<186.656 409.594> 321 42<182 388.188> 596 49<186.656 403.188> 698 31<228.531 319.312>
VStem: 96 86<55.2087 321 363 594.385> 149 70<736.681 803.162> 328 70<735.774 803.125>
LayerCount: 2
Fore
SplineSet
224.5 200 m 2
 220.9 183 199.6 78 201.5 54 c 1
 335.5 54 486 66 486 66 c 1
 487.2 62 l 1
 484.5 54 480.3 39 478.2 29 c 0
 476.1 19 476 14 474 0 c 1
 471.4 -3 l 1
 455.8 -1 433 0 412 0 c 2
 139 0 l 2
 104 0 86.4 -3 86.4 -3 c 1
 86 0 l 1
 105.5 54 122.6 125 138.5 200 c 2
 190.6 445 l 2
 206.5 520 219 588 223.1 645 c 1
 225.7 648 l 1
 225.7 648 242.1 645 276.1 645 c 0
 306.1 645 539.1 645 539.1 645 c 2
 560.1 645 583.3 646 599.7 648 c 1
 601.1 645 l 1
 597.1 631 594.2 622 592.5 614 c 0
 590.6 605 589.7 596 589 588 c 1
 586.1 584 l 1
 586.1 584 450.7 596 316.7 596 c 1
 304.6 572 280.2 462 276.6 445 c 2
 259.2 363 l 1
 377.2 363 424.2 368 484.3 373 c 1
 486.6 370 l 1
 482.7 361 479.6 351 477.7 342 c 0
 475.8 333 474.6 323 474.7 314 c 1
 471.1 311 l 1
 403.6 318 298.2 321 250.2 321 c 1
 224.5 200 l 2
429 729 m 0
 462 729 488.5 746 492.2 763 c 0
 493.3 768 493.5 774 493.9 776 c 0
 497.1 791 510.3 806 533.3 806 c 0
 560.3 806 567.3 792 563.3 773 c 0
 552.2 721 488.4 698 422.4 698 c 0
 356.4 698 302.3 721 313.3 773 c 0
 317.3 792 330.3 806 357.3 806 c 0
 380.3 806 387.1 791 383.9 776 c 0
 383.5 774 381.3 768 380.2 763 c 0
 376.6 746 396 729 429 729 c 0
EndSplineSet
LCarets2: 1 0 
Colour: ff00ff
EndChar

StartChar: uni04D7
Encoding: 1239 1239 113
Width: 442
VWidth: 999
Flags: HW
HStem: -10 59<197.345 335.48> 243 44<125 319.997> 399 40<175.584 290.389> 489 31<186.971 261.548>
VStem: 34 88<132.133 243> 103 73<526.553 605.612> 272 73<526.548 606.379> 320 89<254.5 358.106>
LayerCount: 2
Fore
SplineSet
418.3 105 m 1
 432.8 79 l 1
 383.7 27 314.9 -10 242.9 -10 c 0
 105.9 -10 51.9 84 76.3 199 c 0
 108.6 351 237.3 439 332.3 439 c 0
 464.3 439 482 344 464.3 260 c 0
 462 249 453.7 243 442.7 243 c 2
 173.7 243 l 1
 142 94 219.4 49 275.4 49 c 0
 330.4 49 375.2 67 418.3 105 c 1
186 287 m 1
 367 287 l 2
 377 287 382.1 292 384 301 c 0
 399.9 376 359.8 399 323.8 399 c 0
 300.8 399 225.1 391 186 287 c 1
467.6 577 m 0
 455.9 522 390.9 489 326.9 489 c 0
 261.9 489 213.9 522 225.4 576 c 0
 229.2 594 248.4 609 271.4 609 c 0
 293.4 609 302.5 595 299.1 579 c 0
 298.5 576 298 574 296.4 571 c 0
 294.8 568 294.1 565 293.7 563 c 0
 289 541 304.5 520 334.5 520 c 0
 363.5 520 388.8 540 393.5 562 c 0
 394.1 565 394.8 568 394.4 571 c 0
 393.8 573 394.3 575 394.9 578 c 0
 398.5 595 418.4 609 436.4 609 c 0
 460.4 609 471.6 596 467.6 577 c 0
EndSplineSet
LCarets2: 1 0 
Colour: ff00ff
EndChar

StartChar: uni04D8
Encoding: 1240 1240 114
Width: 644
VWidth: 999
Flags: HW
HStem: -12 34<246.269 393.278> 216 44<122 511> 624 34<207.892 368.818>
VStem: 521 90<221.919 443.038>
LayerCount: 2
Fore
SplineSet
167.9 216 m 1
 171.3 86 229.7 22 327.7 22 c 0
 433.7 22 517.6 116 556.9 216 c 1
 167.9 216 l 1
208.2 523 m 1
 190.3 547 l 1
 285 621 339.9 658 449.9 658 c 0
 664.9 658 714.1 485 680.3 326 c 0
 638.9 131 506.4 -12 313.4 -12 c 0
 121.4 -12 78.1 118 97.3 260 c 1
 575.3 260 l 1
 578.6 271 581.1 283 584.1 297 c 0
 623.6 483 561.6 624 426.6 624 c 0
 333.6 624 272.3 575 208.2 523 c 1
EndSplineSet
Colour: ff00ff
EndChar

StartChar: afii10846
Encoding: 1241 1241 115
Width: 442
VWidth: 999
Flags: HW
HStem: -11 40<137.611 252.416> 141 44<108.003 303> 379 59<92.52 230.655>
VStem: 19 89<69.8942 173.5> 306 88<185 295.867>
LayerCount: 2
Fore
SplineSet
100.7 323 m 1
 86.2 349 l 1
 135.3 401 204.1 438 276.1 438 c 0
 413.1 438 467.1 344 442.7 229 c 0
 410.4 77 281.7 -11 186.7 -11 c 0
 54.7 -11 37 84 54.7 168 c 0
 57 179 65.3 185 76.3 185 c 2
 345.3 185 l 1
 377 334 299.6 379 243.6 379 c 0
 188.6 379 143.8 361 100.7 323 c 1
333 141 m 1
 152 141 l 2
 142 141 136.9 136 135 127 c 0
 119.1 52 159.2 29 195.2 29 c 0
 218.2 29 293.9 37 333 141 c 1
EndSplineSet
Colour: ff00ff
EndChar

StartChar: uni04DA
Encoding: 1242 1242 116
Width: 644
VWidth: 999
Flags: HW
HStem: -12 34<246.269 393.278> 216 44<122 511> 624 34<207.892 368.818> 706 90<192.481 269.519 382.301 458.653>
VStem: 186 90<712.481 789.519> 375 91<713.347 789.699> 521 90<221.919 443.038>
LayerCount: 2
Fore
SplineSet
167.9 216 m 1
 171.3 86 229.7 22 327.7 22 c 0
 433.7 22 517.6 116 556.9 216 c 1
 167.9 216 l 1
208.2 523 m 1
 190.3 547 l 1
 285 621 339.9 658 449.9 658 c 0
 664.9 658 714.1 485 680.3 326 c 0
 638.9 131 506.4 -12 313.4 -12 c 0
 121.4 -12 78.1 118 97.3 260 c 1
 575.3 260 l 1
 578.6 271 581.1 283 584.1 297 c 0
 623.6 483 561.6 624 426.6 624 c 0
 333.6 624 272.3 575 208.2 523 c 1
342.8 752 m 0
 348.3 778 375 800 401 800 c 0
 427 800 444.3 778 438.8 752 c 0
 433.3 726 406.6 704 380.6 704 c 0
 354.6 704 337.3 726 342.8 752 c 0
531.8 752 m 0
 537.3 778 564 800 590 800 c 0
 616 800 633.3 778 627.8 752 c 0
 622.3 726 595.6 704 569.6 704 c 0
 543.6 704 526.3 726 531.8 752 c 0
EndSplineSet
LCarets2: 1 0 
Colour: ff00ff
EndChar

StartChar: uni04DB
Encoding: 1243 1243 117
Width: 442
VWidth: 999
Flags: HW
HStem: -11 40<137.611 252.416> 141 44<108.003 303> 379 59<92.52 230.655> 527 92<94.3474 171.653 254.347 331.653>
VStem: 19 89<69.8942 173.5> 87 92<534.347 611.653> 247 92<534.347 611.653> 306 88<185 295.867>
LayerCount: 2
Back
SplineSet
-90.8203 617.676 m 5
 528.32 617.676 l 5
 528.32 526.855 l 5
 -90.8203 526.855 l 5
 -90.8203 617.676 l 5
EndSplineSet
Fore
SplineSet
100.7 323 m 1
 86.2 349 l 1
 135.3 401 204.1 438 276.1 438 c 0
 413.1 438 467.1 344 442.7 229 c 0
 410.4 77 281.7 -11 186.7 -11 c 0
 54.7 -11 37 84 54.7 168 c 0
 57 179 65.3 185 76.3 185 c 2
 345.3 185 l 1
 377 334 299.6 379 243.6 379 c 0
 188.6 379 143.8 361 100.7 323 c 1
333 141 m 1
 152 141 l 2
 142 141 136.9 136 135 127 c 0
 119.1 52 159.2 29 195.2 29 c 0
 218.2 29 293.9 37 333 141 c 1
368.8 573 m 0
 374.1 598 399.6 619 424.6 619 c 0
 449.6 619 466.1 598 460.8 573 c 0
 455.5 548 430 527 405 527 c 0
 380 527 363.5 548 368.8 573 c 0
208.8 573 m 0
 214.1 598 239.6 619 264.6 619 c 0
 289.6 619 306.1 598 300.8 573 c 0
 295.5 548 270 527 245 527 c 0
 220 527 203.5 548 208.8 573 c 0
EndSplineSet
LCarets2: 1 0 
Colour: ff00ff
EndChar

StartChar: uni04E0
Encoding: 1248 1248 118
Width: 608
VWidth: 999
Flags: HW
HStem: -211 37<215 357> 605 39<141 167 167 446>
VStem: 475 89<-42 146>
DStem2: 250 252 367 288 0.48636 0.873758<88.8042 404.592>
LayerCount: 2
Fore
SplineSet
304.1 645 m 2
 659.1 645 l 2
 680.1 645 685.8 639 684.1 631 c 0
 682 621 672.6 605 660.4 590 c 2
 428.2 288 l 1
 556.5 261 598.4 162 574.8 51 c 0
 545.3 -88 387.2 -211 227.2 -211 c 0
 147.2 -211 4.6 -176 18.6 -110 c 0
 23.5 -87 39.2 -60 73.2 -60 c 0
 100.2 -60 125.3 -74 133.8 -95 c 0
 155.4 -144 199 -174 254 -174 c 0
 341 -174 463.7 -53 483.9 42 c 0
 517.7 201 414.2 255 345.2 255 c 0
 329.2 255 318.2 255 303.6 252 c 1
 574.6 605 l 1
 325.6 605 l 1
 251.4 604 204.8 521 191.4 477 c 1
 165.8 479 l 1
 226.8 667 l 1
 248.7 662 280.1 645 304.1 645 c 2
EndSplineSet
Colour: ff00ff
EndChar

StartChar: uni04E1
Encoding: 1249 1249 119
Width: 416
VWidth: 999
Flags: HW
HStem: -235 35<149 244> 103 34<216 268> 395 34<107 295>
VStem: 40 27<303 337> 312 81<-120 61>
DStem2: 127 107 216 137 0.505072 0.863077<70.4402 332.658>
LayerCount: 2
Fore
SplineSet
149.7 107 m 1
 379 395 l 1
 234 395 l 2
 204 395 165.5 374 130 301 c 1
 104.6 304 l 1
 123 353 138.4 397 149 442 c 1
 174 442 l 1
 174.7 436 182.2 429 197.2 429 c 2
 400.2 429 l 2
 429.2 429 466.5 435 468.5 435 c 0
 475.5 435 481 433 480.2 429 c 0
 479.3 425 471 414 449.3 387 c 2
 245.1 137 l 1
 341.1 137 410.8 84 388.3 -22 c 0
 363 -141 258 -235 135 -235 c 0
 50 -235 5 -174 11.8 -142 c 0
 15.6 -124 29.5 -106 51.5 -106 c 0
 74.5 -106 85.3 -116 88.2 -140 c 0
 91.5 -162 110.5 -200 150.5 -200 c 0
 200.5 -200 280.9 -146 303.9 -38 c 0
 325.4 63 302.9 103 224.9 103 c 0
 213.9 103 182.4 96 163.6 92 c 1
 149.7 107 l 1
EndSplineSet
Colour: ff00ff
EndChar

StartChar: uni04E6
Encoding: 1254 1254 120
Width: 721
VWidth: 999
Flags: HW
HStem: -10 44<287.518 460.882> 614 44<261.342 446.336> 706 90<218.481 295.519 408.301 484.653>
VStem: 42 103<199.871 439.073> 212 90<712.481 789.519> 401 91<713.347 789.699> 576 103<198.639 454.348>
LayerCount: 2
Fore
SplineSet
748.9 329 m 0
 706.4 129 547.9 -10 356.9 -10 c 0
 184.9 -10 66 113 107.9 310 c 0
 149.6 506 318.9 658 497.9 658 c 0
 677.9 658 791 527 748.9 329 c 0
475.5 614 m 0
 379.5 614 259.1 537 214.5 327 c 0
 173.7 135 266.2 34 386.2 34 c 0
 500.2 34 603.9 131 641.9 310 c 0
 686.1 518 616.5 614 475.5 614 c 0
368.8 752 m 0
 374.3 778 401 800 427 800 c 0
 453 800 470.3 778 464.8 752 c 0
 459.3 726 432.6 704 406.6 704 c 0
 380.6 704 363.3 726 368.8 752 c 0
557.8 752 m 0
 563.3 778 590 800 616 800 c 0
 642 800 659.3 778 653.8 752 c 0
 648.3 726 621.6 704 595.6 704 c 0
 569.6 704 552.3 726 557.8 752 c 0
EndSplineSet
LCarets2: 1 0 
Colour: ff00ff
EndChar

StartChar: uni04E7
Encoding: 1255 1255 121
Width: 510
VWidth: 999
Flags: HW
HStem: -10 41<204.375 329.082> 398 41<186.898 318.163> 528 92<135.347 212.653 295.347 372.653>
VStem: 36 90<124.397 311.463> 128 92<535.347 612.653> 288 92<535.347 612.653> 384 90<116.419 317.676>
LayerCount: 2
Back
SplineSet
518.555 502.441 m 5
 489.746 549.316 452.148 594.727 417.48 632.324 c 5
 437.988 645.508 l 5
 477.051 616.699 509.277 591.309 543.457 555.176 c 5
 580.566 593.262 614.258 618.652 651.367 645.508 c 5
 670.41 632.324 l 5
 635.742 592.773 597.656 548.34 568.359 502.441 c 5
 518.555 502.441 l 5
-202.637 647.949 m 5
 -200.684 596.68 -154.297 556.152 -93.75 556.152 c 4
 -47.8516 556.152 11.7188 585.938 14.1602 647.949 c 5
 40.5273 634.277 l 5
 30.7617 533.691 -43.9453 499.023 -93.75 499.023 c 4
 -171.387 499.023 -222.168 556.641 -229.492 634.277 c 5
 -202.637 647.949 l 5
151.855 645.508 m 5
 180.664 598.633 217.285 555.664 252.93 515.625 c 5
 232.422 502.441 l 5
 193.359 531.25 159.668 556.152 125.977 592.285 c 5
 88.8672 554.199 56.1523 529.297 19.043 502.441 c 5
 -0.488281 515.625 l 5
 34.668 555.176 72.7539 599.609 102.051 645.508 c 5
 151.855 645.508 l 5
-90.5762 664.062 m 5
 528.076 664.062 l 5
 528.076 500.732 l 5
 -90.5762 500.732 l 5
 -90.5762 664.062 l 5
446.289 662.598 m 21
 449.707 664.062 456.055 665.039 460.938 665.039 c 4
 488.936 665.039 501.382 654.214 509.766 646.704 c 4
 512.07 644.639 514.121 642.856 516.113 641.602 c 5
 518.555 630.859 l 5
 403.809 521.973 l 6
 388.184 507.324 381.348 502.441 375 502.441 c 4
 367.188 502.441 360.352 507.974 360.352 514.487 c 4
 360.352 519.858 360.443 527.246 366.699 537.109 c 6
 446.289 662.598 l 21
-90.5762 616.211 m 5
 528.076 616.211 l 5
 528.076 525.635 l 5
 -90.5762 525.635 l 5
 -90.5762 616.211 l 5
87.8906 570.801 m 4
 87.8906 595.703 108.398 616.211 133.301 616.211 c 4
 158.203 616.211 178.711 595.703 178.711 570.801 c 4
 178.711 545.898 158.203 525.391 133.301 525.391 c 4
 108.398 525.391 87.8906 545.898 87.8906 570.801 c 4
248.535 570.801 m 4
 248.535 595.703 269.043 616.211 293.945 616.211 c 4
 318.848 616.211 339.355 595.703 339.355 570.801 c 4
 339.355 545.898 318.848 525.391 293.945 525.391 c 4
 269.043 525.391 248.535 545.898 248.535 570.801 c 4
EndSplineSet
Fore
SplineSet
410 574 m 0
 415.3 599 440.8 620 465.8 620 c 0
 490.8 620 507.3 599 502 574 c 0
 496.7 549 471.2 528 446.2 528 c 0
 421.2 528 404.7 549 410 574 c 0
250 574 m 0
 255.3 599 280.8 620 305.8 620 c 0
 330.8 620 347.3 599 342 574 c 0
 336.7 549 311.2 528 286.2 528 c 0
 261.2 528 244.7 549 250 574 c 0
334.6 398 m 0
 248.6 398 193 315 174.5 228 c 0
 158.1 151 171.6 31 275.6 31 c 0
 320.6 31 397.3 63 423.7 187 c 0
 454.9 334 419.6 398 334.6 398 c 0
79.6 205 m 0
 108.7 342 219.3 439 350.3 439 c 0
 507.3 439 541.6 318 519.5 214 c 0
 496.8 107 395.9 -10 252.9 -10 c 0
 114.9 -10 56.2 95 79.6 205 c 0
EndSplineSet
LCarets2: 1 0 
Colour: ff00ff
EndChar

StartChar: uni04E8
Encoding: 1256 1256 122
Width: 721
VWidth: 999
Flags: HW
HStem: -10 44<287.518 460.882> 266 57<387.324 534.392> 312 58<177.336 340.102> 614 44<261.342 446.336>
VStem: 42 103<199.871 439.073> 576 103<198.639 454.348>
LayerCount: 2
Back
SplineSet
592.285 296.875 m 5
 107.422 296.875 l 5
 107.422 353.027 l 5
 590.82 353.027 l 5
 592.285 296.875 l 5
EndSplineSet
Fore
SplineSet
650.5 358.6 m 1
 674.3 533 605 614 475.5 614 c 0
 380.2 614 260.9 538.2 215.5 331.8 c 1
 260.1 357.9 317.4 370 351.6 370 c 0
 449.6 370 469.7 323 532.7 323 c 0
 564.3 323 613.1 335.4 650.5 358.6 c 1
643.2 316.3 m 1
 592.9 277.6 540.4 266 502.5 266 c 0
 410.5 266 396.3 312 321.3 312 c 0
 294.4 312 246.4 307.7 208 289.2 c 1
 186.3 121.7 274.3 34 386.2 34 c 0
 500.2 34 603.9 131 641.9 310 c 1
 643.2 316.3 l 1
748.9 329 m 0
 706.4 129 547.9 -10 356.9 -10 c 0
 184.9 -10 66 113 107.9 310 c 0
 149.6 506 318.9 658 497.9 658 c 0
 677.9 658 791 527 748.9 329 c 0
EndSplineSet
Colour: ff00ff
EndChar

StartChar: uni04E9
Encoding: 1257 1257 123
Width: 510
VWidth: 999
Flags: HMW
HStem: -12 36<202 328> 179 49<204 349> 207 42<118 238> 409 33<183 304>
VStem: 44 79<124 320> 377 79<113 318>
AnchorPoint: "unten_punkt" 223.3 -107 basechar 0
AnchorPoint: "top_punkt" 361.9 550 basechar 0
AnchorPoint: "top_akzent" 373.1 645 basechar 0
LayerCount: 2
Fore
SplineSet
79.6 205 m 0
 108.7 342 219.3 439 350.3 439 c 0
 507.3 439 541.6 318 519.5 214 c 0
 496.8 107 395.9 -10 252.9 -10 c 0
 114.9 -10 56.2 95 79.6 205 c 0
426.6 219 m 1
 404.8 206 353 179 312 179 c 0
 269 179 241 207 206 207 c 0
 198.4 207 182.6 204.2 170.3 202.1 c 1
 162 126.8 182.7 31 275.6 31 c 0
 320.6 31 397.3 63 423.7 187 c 0
 454.9 334 419.6 398 334.6 398 c 0
 249.4 398 194 316.6 175 230.5 c 1
 200.2 240.5 238.6 249 265.9 249 c 0
 310.9 249 328.7 229 366.7 229 c 0
 388.7 229 412.4 237 428.9 244 c 1
 426.6 219 l 1
EndSplineSet
Colour: ff80cc
EndChar

StartChar: uni04EA
Encoding: 1258 1258 124
Width: 721
VWidth: 999
Flags: HW
HStem: -10 44<287.518 460.882> 266 57<387.324 534.392> 312 58<177.336 340.102> 614 44<261.342 446.336> 708 90<215.481 292.519 405.301 481.653>
VStem: 42 103<199.871 439.073> 209 90<714.481 791.519> 398 91<715.347 791.699> 576 103<198.639 454.348>
LayerCount: 2
Fore
SplineSet
650.5 358.6 m 1
 674.3 533 605 614 475.5 614 c 0
 380.2 614 260.9 538.2 215.5 331.8 c 1
 260.1 357.9 317.4 370 351.6 370 c 0
 449.6 370 469.7 323 532.7 323 c 0
 564.3 323 613.1 335.4 650.5 358.6 c 1
643.2 316.3 m 1
 592.9 277.6 540.4 266 502.5 266 c 0
 410.5 266 396.3 312 321.3 312 c 0
 294.4 312 246.4 307.7 208 289.2 c 1
 186.3 121.7 274.3 34 386.2 34 c 0
 500.2 34 603.9 131 641.9 310 c 1
 643.2 316.3 l 1
748.9 329 m 0
 706.4 129 547.9 -10 356.9 -10 c 0
 184.9 -10 66 113 107.9 310 c 0
 149.6 506 318.9 658 497.9 658 c 0
 677.9 658 791 527 748.9 329 c 0
366.3 754 m 0
 371.8 780 398.5 802 424.5 802 c 0
 450.5 802 467.8 780 462.3 754 c 0
 456.8 728 430.1 706 404.1 706 c 0
 378.1 706 360.8 728 366.3 754 c 0
555.3 754 m 0
 560.8 780 587.5 802 613.5 802 c 0
 639.5 802 656.8 780 651.3 754 c 0
 645.8 728 619.1 706 593.1 706 c 0
 567.1 706 549.8 728 555.3 754 c 0
EndSplineSet
LCarets2: 1 0 
Colour: ff00ff
EndChar

StartChar: uni04EB
Encoding: 1259 1259 125
Width: 510
VWidth: 999
Flags: HW
HStem: -12 36<202 328> 179 49<204 349> 207 42<118 238> 409 33<183 304> 527 92<137.347 214.653 297.347 374.653>
VStem: 44 79<124 320> 130 92<534.347 611.653> 290 92<534.347 611.653> 377 79<113 318>
LayerCount: 2
Back
SplineSet
-90.8203 617.676 m 5
 528.32 617.676 l 5
 528.32 526.855 l 5
 -90.8203 526.855 l 5
 -90.8203 617.676 l 5
EndSplineSet
Fore
SplineSet
411.8 573 m 0
 417.1 598 442.6 619 467.6 619 c 0
 492.6 619 509.1 598 503.8 573 c 0
 498.5 548 473 527 448 527 c 0
 423 527 406.5 548 411.8 573 c 0
251.8 573 m 0
 257.1 598 282.6 619 307.6 619 c 0
 332.6 619 349.1 598 343.8 573 c 0
 338.5 548 313 527 288 527 c 0
 263 527 246.5 548 251.8 573 c 0
79.6 205 m 0
 108.7 342 219.3 439 350.3 439 c 0
 507.3 439 541.6 318 519.5 214 c 0
 496.8 107 395.9 -10 252.9 -10 c 0
 114.9 -10 56.2 95 79.6 205 c 0
426.6 219 m 1
 404.8 206 353 179 312 179 c 0
 269 179 241 207 206 207 c 0
 198.4 207 182.6 204.2 170.3 202.1 c 1
 162 126.8 182.7 31 275.6 31 c 0
 320.6 31 397.3 63 423.7 187 c 0
 454.9 334 419.6 398 334.6 398 c 0
 249.4 398 194 316.6 175 230.5 c 1
 200.2 240.5 238.6 249 265.9 249 c 0
 310.9 249 328.7 229 366.7 229 c 0
 388.7 229 412.4 237 428.9 244 c 1
 426.6 219 l 1
EndSplineSet
LCarets2: 1 0 
Colour: ff00ff
EndChar

StartChar: uni04EF
Encoding: 1263 1263 126
Width: 486
VWidth: 999
Flags: HW
HStem: 412 20<25 37.8974 112.5 137.704 367.982 391 451.5 463> 538 44<111.088 389.515>
VStem: 18 101<384.934 432> 89 84<-246 -210.595> 110 281<538.205 582>
LayerCount: 2
Back
SplineSet
326.66 538.574 m 6
 -70.3125 538.574 l 6
 -78.2227 538.574 -81.2988 546.387 -81.2988 553.223 c 4
 -81.2988 564.941 -72.0703 582.52 -61.5234 582.52 c 6
 335.449 582.52 l 6
 344.238 582.52 347.754 574.707 347.754 567.871 c 4
 347.754 556.152 338.085 538.574 326.66 538.574 c 6
EndSplineSet
Fore
SplineSet
481.4 538 m 2
 237.4 538 l 2
 228.4 538 226 546 227.5 553 c 0
 230.1 565 244.7 582 255.7 582 c 2
 500.7 582 l 2
 510.7 582 513 574 511.7 568 c 0
 509.1 556 494.4 538 481.4 538 c 2
109.8 432 m 1
 123.2 429 148.2 429 161.2 429 c 0
 175.2 429 197.2 429 210.8 432 c 1
 223.9 317.8 247.4 206.5 271.3 87.6 c 1
 273.3 87.6 l 1
 343.9 191.2 417.7 319 477.8 432 c 1
 487.2 429 506.2 429 516.2 429 c 0
 526.2 429 549.2 429 559.8 432 c 1
 512.6 365 192.2 -112 127.6 -237 c 1
 118.2 -234 89.7 -232 79.7 -232 c 0
 69.7 -232 54.2 -234 43.6 -237 c 1
 104.8 -161.7 153.9 -93.8 201.8 -19.1 c 1
 186.6 76 130.7 343.2 109.8 432 c 1
EndSplineSet
LCarets2: 1 0 
Colour: ff00ff
EndChar

StartChar: uni04F1
Encoding: 1265 1265 127
Width: 486
VWidth: 999
Flags: HW
HStem: 412 20<25 37.8974 112.5 137.704 367.982 391 451.5 463> 527 92<142.347 219.653 302.347 379.653>
VStem: 18 101<384.934 432> 89 84<-246 -210.595> 135 92<534.347 611.653> 295 92<534.347 611.653>
LayerCount: 2
Back
SplineSet
-90.8203 617.676 m 5
 528.32 617.676 l 5
 528.32 526.855 l 5
 -90.8203 526.855 l 5
 -90.8203 617.676 l 5
EndSplineSet
Fore
SplineSet
416.8 573 m 0
 422.1 598 447.6 619 472.6 619 c 0
 497.6 619 514.1 598 508.8 573 c 0
 503.5 548 478 527 453 527 c 0
 428 527 411.5 548 416.8 573 c 0
256.8 573 m 0
 262.1 598 287.6 619 312.6 619 c 0
 337.6 619 354.1 598 348.8 573 c 0
 343.5 548 318 527 293 527 c 0
 268 527 251.5 548 256.8 573 c 0
109.8 432 m 1
 123.2 429 148.2 429 161.2 429 c 0
 175.2 429 197.2 429 210.8 432 c 1
 223.9 317.8 247.4 206.5 271.3 87.6 c 1
 273.3 87.6 l 1
 343.9 191.2 417.7 319 477.8 432 c 1
 487.2 429 506.2 429 516.2 429 c 0
 526.2 429 549.2 429 559.8 432 c 1
 512.6 365 192.2 -112 127.6 -237 c 1
 118.2 -234 89.7 -232 79.7 -232 c 0
 69.7 -232 54.2 -234 43.6 -237 c 1
 104.8 -161.7 153.9 -93.8 201.8 -19.1 c 1
 186.6 76 130.7 343.2 109.8 432 c 1
EndSplineSet
LCarets2: 1 0 
Colour: ff00ff
EndChar

StartChar: uni04F3
Encoding: 1267 1267 128
Width: 486
VWidth: 999
Flags: HW
HStem: 412 20<25 37.8974 112.5 137.704 367.982 391 451.5 463>
VStem: 18 101<384.934 432> 89 84<-246 -210.595>
LayerCount: 2
Fore
SplineSet
444 621 m 0
 442.9 616 440.7 610 435.6 605 c 2
 307.9 484 l 2
 305.5 482 302.2 481 299.2 481 c 0
 293.2 481 286.3 486 288 494 c 0
 288.2 495 288.4 496 289.6 497 c 2
 384.7 643 l 2
 393.5 656 409.6 657 413.6 657 c 0
 434.5 657 448.4 641.5 444 621 c 0
574.7 615 m 0
 573.4 609 571 602 563.7 596 c 2
 426.3 486 l 2
 423.9 484 421.9 484 419.9 484 c 0
 414.9 484 406.9 489 408.6 497 c 0
 408.8 498 409.3 500 410.5 501 c 2
 518 640 l 2
 524.9 649 532.6 652 544.6 652 c 0
 565.6 652 578.7 633.6 574.7 615 c 0
109.8 432 m 1
 123.2 429 148.2 429 161.2 429 c 0
 175.2 429 197.2 429 210.8 432 c 1
 223.9 317.8 247.4 206.5 271.3 87.6 c 1
 273.3 87.6 l 1
 343.9 191.2 417.7 319 477.8 432 c 1
 487.2 429 506.2 429 516.2 429 c 0
 526.2 429 549.2 429 559.8 432 c 1
 512.6 365 192.2 -112 127.6 -237 c 1
 118.2 -234 89.7 -232 79.7 -232 c 0
 69.7 -232 54.2 -234 43.6 -237 c 1
 104.8 -161.7 153.9 -93.8 201.8 -19.1 c 1
 186.6 76 130.7 343.2 109.8 432 c 1
EndSplineSet
LCarets2: 1 0 
Colour: ff00ff
EndChar

StartChar: uni1E00
Encoding: 7680 7680 129
Width: 633
VWidth: 999
Flags: HW
HStem: -215 27<274.238 341.262> -76 27<273.737 342.086> -3 21<24 68.5 92 115.444 500.087 513.5 590 606.5> 230 44<188.935 310> 638 20<265 387>
VStem: 222 32<-170.178 -92.558> 362 31<-169.958 -93.519>
LayerCount: 2
Fore
SplineSet
467.9 275.5 m 1
 455.9 345.2 439.9 427.4 418.9 521.8 c 1
 416.9 521.8 l 1
 259.3 275.9 l 1
 291 275.5 334.3 274 363.2 274 c 0
 392.9 274 434.9 274.7 467.9 275.5 c 1
229.5 228.3 m 1
 175.2 140.8 126.8 58.3 97.4 -3 c 1
 86 0 64 0 53 0 c 0
 42 0 30 0 17.4 -3 c 1
 165.4 218 309.7 436 452.9 658 c 1
 480.9 658 l 1
 526.4 439 585.9 98 614.4 -3 c 1
 598 0 572 0 555 0 c 0
 538 0 522 0 504.4 -3 c 1
 503 19.2 497 97.2 475.8 228.3 c 1
 438.3 229.2 396.9 230 358.9 230 c 0
 324.4 230 267.7 229.2 229.5 228.3 c 1
192.9 -132 m 0
 202.7 -86 251.6 -49 297.6 -49 c 0
 343.6 -49 376.9 -85 366.9 -132 c 0
 357.3 -177 310.3 -215 262.3 -215 c 0
 216.3 -215 183.1 -178 192.9 -132 c 0
291.8 -76 m 0
 260.8 -76 236.3 -102 229.9 -132 c 0
 223.9 -160 237 -188 268 -188 c 0
 299 -188 323.9 -160 329.9 -132 c 0
 336.5 -101 321.8 -76 291.8 -76 c 0
EndSplineSet
LCarets2: 1 0 
Colour: ff00ff
EndChar

StartChar: uni1E01
Encoding: 7681 7681 130
Width: 461
VWidth: 999
Flags: HW
HStem: -216 27<190.238 257.262> -77 27<189.737 258.086> -10 51<138.029 242.029 327.75 409.627> 394 45<147.355 264.803>
VStem: 42 81<56.8026 162.817> 138 32<-171.178 -93.558> 278 31<-170.958 -94.519> 293 79.1<81.0426 223 264.049 363.451>
DStem2: 199 243 212 202 0.972687 0.232119<-72.5363 85.8176>
LayerCount: 2
Fore
SplineSet
384.2 76 m 0
 379.9 56 382.6 45 393.6 45 c 0
 407.6 45 423.5 59 434 66 c 1
 436.6 64 l 1
 448.1 43 l 1
 408.6 3 379.9 -10 348.9 -10 c 0
 301.9 -10 299.8 32 301.2 48 c 1
 299.2 48 l 1
 239.6 3 209.9 -10 157.9 -10 c 0
 87.9 -10 47.1 24 62.8 98 c 0
 77.3 166 149.8 220 250.7 243 c 2
 343.1 264 l 2
 346.3 265 350.2 269 351.7 276 c 0
 375.7 389 320.7 394 286.7 394 c 0
 241.7 394 190.4 350 154.8 305 c 1
 142 306 l 1
 140.3 373 l 1
 144.1 377 l 1
 172.6 398 233.3 439 305.3 439 c 0
 377.3 439 459.4 412 430.9 277 c 0
 428.6 266 390.4 105 384.2 76 c 0
339.4 223 m 1
 254.9 202 l 2
 177 182.6 154.3 147 144.7 102 c 0
 138.1 71 155.7 41 197.7 41 c 0
 225.7 41 262.4 63 292.9 84 c 0
 302.2 90 309.6 97 312.4 110 c 2
 339.4 223 l 1
108.7 -133 m 0
 118.5 -87 167.4 -50 213.4 -50 c 0
 259.4 -50 292.7 -86 282.7 -133 c 0
 273.1 -178 226.1 -216 178.1 -216 c 0
 132.1 -216 98.9 -179 108.7 -133 c 0
207.6 -77 m 0
 176.6 -77 152.1 -103 145.7 -133 c 0
 139.7 -161 152.8 -189 183.8 -189 c 0
 214.8 -189 239.7 -161 245.7 -133 c 0
 252.3 -102 237.6 -77 207.6 -77 c 0
EndSplineSet
LCarets2: 1 0 
Colour: ff00ff
EndChar

StartChar: uni1E02
Encoding: 7682 7682 131
Width: 582
VWidth: 999
Flags: HW
HStem: -3 44<171.13 393.675> 327 44<189 355.197> 604 44<169.378 351.471> 689 104<241.248 324.458>
VStem: 103 86<49.3073 327 371 597.325> 231 104<699.542 782.752> 395 87<424.724 562.128> 442 99<97.3818 255.662>
LayerCount: 2
Fore
SplineSet
283.1 645 m 0
 330.3 645 369.7 648 404.7 648 c 0
 590.7 648 601 560 586.8 493 c 0
 575.1 438 521.8 385 465.5 360 c 1
 547.2 335 600.5 280 580.1 184 c 0
 561.8 98 487.4 -3 288.4 -3 c 0
 199.4 -3 201.8 0 146 0 c 0
 111 0 93.4 -3 93.4 -3 c 1
 93 0 l 1
 112.5 54 129.6 125 145.5 200 c 2
 197.6 445 l 2
 213.5 520 226 588 230.1 645 c 1
 232.7 648 l 1
 232.7 648 249.1 645 283.1 645 c 0
258.5 327 m 1
 207.7 88 l 2
 200.7 55 208.7 41 278.7 41 c 0
 430.7 41 461.6 92 477.1 165 c 0
 496.2 255 462.5 327 345.5 327 c 2
 258.5 327 l 1
307.8 559 m 2
 267.9 371 l 1
 339.9 371 l 2
 422.9 371 479.1 396 497.2 481 c 0
 518.9 583 458.4 604 402.4 604 c 0
 321.4 604 314.9 592.3 307.8 559 c 2
389.5 741 m 0
 395.2 768 424.3 792 451.3 792 c 0
 478.3 792 497.2 768 491.5 741 c 0
 485.8 714 456.7 690 429.7 690 c 0
 402.7 690 383.8 714 389.5 741 c 0
EndSplineSet
LCarets2: 1 0 
Colour: ff00ff
EndChar

StartChar: uni1E03
Encoding: 7683 7683 132
Width: 497
VWidth: 999
Flags: HW
HStem: -10 44<179.548 305.024> 385 54<196.637 317.65> 519 104<223.248 306.458> 678 20<143.465 159.167>
VStem: 75 80<58.0308 360.44 384 667.981> 213 104<529.542 612.752> 375 85<134.529 320.197>
LayerCount: 2
Back
SplineSet
-98.3887 618.652 m 5
 520.264 618.652 l 5
 520.508 522.949 l 5
 -98.6328 522.949 l 5
 -98.3887 618.652 l 5
-98.3887 664.062 m 5
 520.264 664.062 l 5
 520.264 500.732 l 5
 -98.3887 500.732 l 5
 -98.3887 664.062 l 5
-98.3887 616.211 m 5
 520.264 616.211 l 5
 520.508 525.391 l 5
 -98.6328 525.391 l 5
 -98.3887 616.211 l 5
240.723 570.801 m 4
 240.723 595.703 261.23 616.211 286.133 616.211 c 4
 311.035 616.211 331.543 595.703 331.543 570.801 c 4
 331.543 545.898 311.035 525.391 286.133 525.391 c 4
 261.23 525.391 240.723 545.898 240.723 570.801 c 4
EndSplineSet
Fore
SplineSet
261.3 500 m 2
 236.6 384 l 1
 278.5 421 325.3 439 373.3 439 c 0
 460.3 439 537.3 364 511.4 242 c 0
 477.6 83 335.9 -10 233.9 -10 c 0
 190.9 -10 163.4 2 139.7 27 c 1
 122.4 14 110.4 2 98.4 -12 c 1
 88.9 -12 73.7 -10.8 68.5 -7 c 1
 77.4 14.8 81.8 32 90.1 71 c 2
 177.5 482 l 2
 193.7 558 206 627.3 207.4 670 c 1
 210.1 673 l 1
 251.2 676 277.2 688 304.4 698 c 1
 310.7 698 312.7 695 311.2 688 c 0
 290.5 626.7 277.1 574 261.3 500 c 2
172.2 81 m 1
 186.9 56 206.2 34 237.2 34 c 0
 332.2 34 398.4 110 422.6 224 c 0
 443.2 321 402.8 385 341.8 385 c 0
 330.8 385 275.4 383 227.9 343 c 1
 172.2 81 l 1
335.4 571 m 0
 341.1 598 370.2 622 397.2 622 c 0
 424.2 622 443.1 598 437.4 571 c 0
 431.7 544 402.5 520 375.5 520 c 0
 348.5 520 329.7 544 335.4 571 c 0
EndSplineSet
LCarets2: 1 0 
Colour: ff00ff
EndChar

StartChar: uni1E04
Encoding: 7684 7684 133
Width: 582
VWidth: 999
Flags: HW
HStem: -167 104<228.248 311.458> -3 44<171.13 393.675> 327 44<189 355.197> 604 44<169.378 351.471>
VStem: 103 86<49.3073 327 371 597.325> 218 104<-156.458 -73.2479> 395 87<424.724 562.128> 442 99<97.3818 255.662>
LayerCount: 2
Fore
SplineSet
283.1 645 m 0
 330.3 645 369.7 648 404.7 648 c 0
 590.7 648 601 560 586.8 493 c 0
 575.1 438 521.8 385 465.5 360 c 1
 547.2 335 600.5 280 580.1 184 c 0
 561.8 98 487.4 -3 288.4 -3 c 0
 199.4 -3 201.8 0 146 0 c 0
 111 0 93.4 -3 93.4 -3 c 1
 93 0 l 1
 112.5 54 129.6 125 145.5 200 c 2
 197.6 445 l 2
 213.5 520 226 588 230.1 645 c 1
 232.7 648 l 1
 232.7 648 249.1 645 283.1 645 c 0
258.5 327 m 1
 207.7 88 l 2
 200.7 55 208.7 41 278.7 41 c 0
 430.7 41 461.6 92 477.1 165 c 0
 496.2 255 462.5 327 345.5 327 c 2
 258.5 327 l 1
307.8 559 m 2
 267.9 371 l 1
 339.9 371 l 2
 422.9 371 479.1 396 497.2 481 c 0
 518.9 583 458.4 604 402.4 604 c 0
 321.4 604 314.9 592.3 307.8 559 c 2
194.6 -115 m 0
 200.3 -88 229.4 -64 256.4 -64 c 0
 283.4 -64 302.3 -88 296.6 -115 c 0
 290.9 -142 261.7 -166 234.7 -166 c 0
 207.7 -166 188.9 -142 194.6 -115 c 0
EndSplineSet
LCarets2: 1 0 
Colour: ff00ff
EndChar

StartChar: uni1E05
Encoding: 7685 7685 134
Width: 497
VWidth: 999
Flags: HW
HStem: -167 104<183.248 266.458> -10 44<179.548 305.024> 385 54<196.637 317.65> 678 20<143.465 159.167>
VStem: 75 80<58.0308 360.44 384 667.981> 173 104<-156.458 -73.2479> 375 85<134.529 320.197>
LayerCount: 2
Fore
SplineSet
261.3 500 m 2
 236.6 384 l 1
 278.5 421 325.3 439 373.3 439 c 0
 460.3 439 537.3 364 511.4 242 c 0
 477.6 83 335.9 -10 233.9 -10 c 0
 190.9 -10 163.4 2 139.7 27 c 1
 122.4 14 110.4 2 98.4 -12 c 1
 88.9 -12 73.7 -10.8 68.5 -7 c 1
 77.4 14.8 81.8 32 90.1 71 c 2
 177.5 482 l 2
 193.7 558 206 627.3 207.4 670 c 1
 210.1 673 l 1
 251.2 676 277.2 688 304.4 698 c 1
 310.7 698 312.7 695 311.2 688 c 0
 290.5 626.7 277.1 574 261.3 500 c 2
172.2 81 m 1
 186.9 56 206.2 34 237.2 34 c 0
 332.2 34 398.4 110 422.6 224 c 0
 443.2 321 402.8 385 341.8 385 c 0
 330.8 385 275.4 383 227.9 343 c 1
 172.2 81 l 1
149.6 -115 m 0
 155.3 -88 184.4 -64 211.4 -64 c 0
 238.4 -64 257.3 -88 251.6 -115 c 0
 245.9 -142 216.7 -166 189.7 -166 c 0
 162.7 -166 143.9 -142 149.6 -115 c 0
EndSplineSet
LCarets2: 1 0 
Colour: ff00ff
EndChar

StartChar: uni1E06
Encoding: 7686 7686 135
Width: 582
VWidth: 999
Flags: HW
HStem: -106 44<137 148 148 415> -3 44<171.13 393.675> 327 44<189 355.197> 604 44<169.378 351.471>
VStem: 103 86<49.3073 327 371 597.325> 395 87<424.724 562.128> 442 99<97.3818 255.662>
LayerCount: 2
Fore
SplineSet
283.1 645 m 0
 330.3 645 369.7 648 404.7 648 c 0
 590.7 648 601 560 586.8 493 c 0
 575.1 438 521.8 385 465.5 360 c 1
 547.2 335 600.5 280 580.1 184 c 0
 561.8 98 487.4 -3 288.4 -3 c 0
 199.4 -3 201.8 0 146 0 c 0
 111 0 93.4 -3 93.4 -3 c 1
 93 0 l 1
 112.5 54 129.6 125 145.5 200 c 2
 197.6 445 l 2
 213.5 520 226 588 230.1 645 c 1
 232.7 648 l 1
 232.7 648 249.1 645 283.1 645 c 0
258.5 327 m 1
 207.7 88 l 2
 200.7 55 208.7 41 278.7 41 c 0
 430.7 41 461.6 92 477.1 165 c 0
 496.2 255 462.5 327 345.5 327 c 2
 258.5 327 l 1
307.8 559 m 2
 267.9 371 l 1
 339.9 371 l 2
 422.9 371 479.1 396 497.2 481 c 0
 518.9 583 458.4 604 402.4 604 c 0
 321.4 604 314.9 592.3 307.8 559 c 2
370.5 -106 m 2
 125.5 -106 l 2
 117.5 -106 115.2 -98 116.7 -91 c 0
 119.3 -79 132.8 -62 144.8 -62 c 2
 389.8 -62 l 2
 398.8 -62 401.3 -69 399.8 -76 c 0
 397.2 -88 383.5 -106 370.5 -106 c 2
EndSplineSet
LCarets2: 1 0 
Colour: ff00ff
EndChar

StartChar: uni1E07
Encoding: 7687 7687 136
Width: 497
VWidth: 999
Flags: HW
HStem: -110 44<107 118 118 385> -10 44<179.548 305.024> 385 54<196.637 317.65> 678 20<143.465 159.167>
VStem: 75 80<58.0308 360.44 384 667.981> 375 85<134.529 320.197>
LayerCount: 2
Fore
SplineSet
261.3 500 m 2
 236.6 384 l 1
 278.5 421 325.3 439 373.3 439 c 0
 460.3 439 537.3 364 511.4 242 c 0
 477.6 83 335.9 -10 233.9 -10 c 0
 190.9 -10 163.4 2 139.7 27 c 1
 122.4 14 110.4 2 98.4 -12 c 1
 88.9 -12 73.7 -10.8 68.5 -7 c 1
 77.4 14.8 81.8 32 90.1 71 c 2
 177.5 482 l 2
 193.7 558 206 627.3 207.4 670 c 1
 210.1 673 l 1
 251.2 676 277.2 688 304.4 698 c 1
 310.7 698 312.7 695 311.2 688 c 0
 290.5 626.7 277.1 574 261.3 500 c 2
172.2 81 m 1
 186.9 56 206.2 34 237.2 34 c 0
 332.2 34 398.4 110 422.6 224 c 0
 443.2 321 402.8 385 341.8 385 c 0
 330.8 385 275.4 383 227.9 343 c 1
 172.2 81 l 1
339.6 -110 m 2
 94.6 -110 l 2
 86.6 -110 84.3 -102 85.8 -95 c 0
 88.4 -83 102 -66 114 -66 c 2
 359 -66 l 2
 368 -66 370.5 -73 369 -80 c 0
 366.4 -92 352.6 -110 339.6 -110 c 2
EndSplineSet
LCarets2: 1 0 
Colour: ff00ff
EndChar

StartChar: uni1E08
Encoding: 7688 7688 137
Width: 650
VWidth: 999
Flags: HW
HStem: -185 25<286.659 383.933> -84 32<356.31 393.165> -10 51<269.467 470.143> 611 47<271.061 460.844> 697 122
VStem: 37 103<195.742 435.455> 269 201 400 53<-150.949 -88.278>
DStem2: 307 -84 356 -55 0.397156 0.917751<46.0754 95.3334>
LayerCount: 2
Fore
SplineSet
345.7 -100 m 0
 326.7 -100 316.6 -101 299.5 -106 c 1
 294.7 -100 l 1
 351.4 -10 l 2
 350.6 -10 349.7 -10 348.9 -10 c 0
 133.9 -10 69.8 154 104 315 c 0
 145.9 512 335.9 658 504.9 658 c 0
 626.9 658 713.3 613 713.3 613 c 1
 714.7 610 l 1
 692.5 560.7 685.5 550 671.1 499 c 1
 660.9 498 l 1
 637.3 580 570.9 611 480.9 611 c 0
 398.9 611 254.1 537 211 334 c 0
 180 188 213.7 41 368.7 41 c 0
 461.7 41 534.2 62 621.8 140 c 1
 641.6 125 l 1
 565.9 47.5 473.6 2.6 387 -7.7 c 1
 349.9 -71 l 1
 358.3 -69 367.5 -68 376.5 -68 c 0
 416.5 -68 442.5 -92 434.4 -130 c 0
 425.3 -173 372.6 -204 311.6 -204 c 0
 279.6 -204 264 -198 241.3 -187 c 1
 243.9 -175 248.3 -168 256.8 -161 c 1
 281.7 -171 291.8 -175 311.8 -175 c 0
 341.8 -175 365.8 -161 371.3 -135 c 0
 375.8 -114 368.7 -100 345.7 -100 c 0
582.1 819 m 1
 607.9 805.7 624.8 788.3 633 767 c 1
 476.7 709 l 2
 453.8 700 441.2 697 432.2 697 c 0
 423.2 697 418.6 704 420.3 712 c 0
 421.8 719 424.9 724 439.8 733 c 2
 582.1 819 l 1
EndSplineSet
LCarets2: 1 0 
Colour: ff00ff
EndChar

StartChar: uni1E09
Encoding: 7689 7689 138
Width: 437
VWidth: 999
Flags: HW
HStem: -198 29<156.047 256.231> -94 32<231.31 261.355> -10 54<198.612 332.08> 394 45<189.998 317.695>
VStem: 36 85<130.336 304.92> 266 62<-163.259 -95.4563>
DStem2: 182 -94 231 -65 0.384615 0.923077<45.6154 104>
LayerCount: 2
Back
SplineSet
-90.8203 672.852 m 5
 528.32 672.852 l 5
 528.32 510.254 l 5
 -90.8203 510.254 l 5
 -90.8203 672.852 l 5
EndSplineSet
Fore
SplineSet
213 -94 m 0
 194 -94 183.8 -95 166.7 -100 c 1
 162 -94 l 1
 216.1 -8.1 l 1
 110 5.4 55.1 89.9 80.2 208 c 0
 110.4 350 246.3 439 354.3 439 c 0
 404.3 439 453.9 423 481.5 407 c 1
 482.9 404 l 1
 442.4 322 l 1
 429.2 321 l 1
 412.4 366.5 382.2 394 343.7 394 c 0
 277.7 394 193.3 340 169.9 230 c 0
 145 113 203.4 44 280.4 44 c 0
 323.4 44 363.1 62 403.7 107 c 1
 407.7 107 l 1
 424.3 91 l 1
 377.4 23.5 308.8 -9.1 249.4 -10 c 1
 217.2 -65 l 1
 225.6 -63 234.8 -62 243.8 -62 c 0
 283.8 -62 309.7 -86 301.6 -124 c 0
 292.5 -167 239.9 -198 178.9 -198 c 0
 146.9 -198 131.2 -192 108.5 -181 c 1
 111.1 -169 115.6 -162 124.1 -155 c 1
 149 -165 159.1 -169 179.1 -169 c 0
 209.1 -169 233.1 -155 238.6 -129 c 0
 243.1 -108 236 -94 213 -94 c 0
442.6 671 m 1
 445.8 672 452.1 673 457.1 673 c 0
 463.5 673 488.9 672 507.2 650 c 1
 507.8 639 l 1
 369.7 530 l 2
 351.5 515 342.6 511 335.6 511 c 0
 328.6 511 322.9 517 324.4 524 c 0
 326.8 535.2 330.9 539.2 341.8 552 c 2
 442.6 671 l 1
EndSplineSet
LCarets2: 1 0 
Colour: ff00ff
EndChar

StartChar: uni1E0A
Encoding: 7690 7690 139
Width: 698
VWidth: 999
Flags: HW
HStem: -2 44<168.546 432.266> 604 44<169.401 389.698> 693 104<254.248 337.458>
VStem: 101 86<49.3073 594.385> 244 104<703.542 786.752> 552 103<179.784 425.325>
LayerCount: 2
Fore
SplineSet
281.1 645 m 0
 345.1 645 382.7 648 446.7 648 c 0
 638.7 648 760 494 720.5 308 c 0
 668.2 62 467.6 -2 326.6 -2 c 0
 223.6 -2 215 0 144 0 c 0
 109 0 91.4 -3 91.4 -3 c 1
 91 0 l 1
 110.5 54 127.6 125 143.5 200 c 2
 195.6 445 l 2
 211.5 520 224 588 228.1 645 c 1
 230.7 648 l 1
 230.7 648 247.1 645 281.1 645 c 0
204.4 82 m 2
 197.6 50 206.9 42 304.9 42 c 0
 445.9 42 569.5 82 612.4 284 c 0
 645.1 438 615.4 604 399.4 604 c 0
 350.4 604 314.3 599 306.9 564 c 2
 204.4 82 l 2
403.4 745 m 0
 409.1 772 438.2 796 465.2 796 c 0
 492.2 796 511.1 772 505.4 745 c 0
 499.7 718 470.5 694 443.5 694 c 0
 416.5 694 397.7 718 403.4 745 c 0
EndSplineSet
LCarets2: 1 0 
Colour: ff00ff
EndChar

StartChar: uni1E0B
Encoding: 7691 7691 140
Width: 514
VWidth: 999
Flags: HW
HStem: -10 57<184.507 297.415> -3 21<374 383.667 449.5 458> 394 45<189.467 329.898> 519 104<190.248 273.458> 678 20<429.466 445.167>
VStem: 40 85<116.128 302.432> 180 104<529.542 612.752> 361 80<87.1288 364.244 417 667.981>
LayerCount: 2
Back
SplineSet
-98.3887 618.652 m 5
 520.264 618.652 l 5
 520.508 522.949 l 5
 -98.6328 522.949 l 5
 -98.3887 618.652 l 5
-98.3887 664.062 m 5
 520.264 664.062 l 5
 520.264 500.732 l 5
 -98.3887 500.732 l 5
 -98.3887 664.062 l 5
-98.3887 616.211 m 5
 520.264 616.211 l 5
 520.508 525.391 l 5
 -98.6328 525.391 l 5
 -98.3887 616.211 l 5
240.723 570.801 m 4
 240.723 595.703 261.23 616.211 286.133 616.211 c 4
 311.035 616.211 331.543 595.703 331.543 570.801 c 4
 331.543 545.898 311.035 525.391 286.133 525.391 c 4
 261.23 525.391 240.723 545.898 240.723 570.801 c 4
EndSplineSet
Fore
SplineSet
374.6 64 m 1
 328.7 17.5 263.9 -10 215.9 -10 c 0
 107.9 -10 57 80 83.1 203 c 0
 112 339 240.1 439 370.3 439 c 0
 390.3 439 429.4 430 449.6 417 c 1
 463.5 482 l 2
 479.7 558 492 627.3 493.4 670 c 1
 496.1 673 l 1
 537.2 676 563.2 688 590.4 698 c 1
 596.7 698 598.7 695 597.2 688 c 0
 576.5 626.7 563 574 547.3 500 c 2
 481.8 192 l 2
 465.9 117 459.1 43 458 0 c 1
 455.4 -3 l 1
 442.8 -1 424.1 0 411.5 0 c 0
 397 0 390.1 -1.3 376.4 -3 c 0
 370.4 -3 367.6 -2 368 0 c 2
 376.6 64 l 1
 374.6 64 l 1
384.2 109 m 1
 432.2 335 l 1
 416.3 373 396.7 394 349.7 394 c 0
 301.3 394 203.9 371 172 221 c 0
 145.4 96 200 47 254 47 c 0
 294.5 47 337.8 62.5 384.2 109 c 1
302.4 571 m 0
 308.1 598 337.2 622 364.2 622 c 0
 391.2 622 410.1 598 404.4 571 c 0
 398.7 544 369.5 520 342.5 520 c 0
 315.5 520 296.7 544 302.4 571 c 0
EndSplineSet
LCarets2: 1 0 
Colour: ff00ff
EndChar

StartChar: uni1E0C
Encoding: 7692 7692 141
Width: 698
VWidth: 999
Flags: HW
HStem: -167 104<248.248 331.458> -2 44<168.546 432.266> 604 44<169.401 389.698>
VStem: 101 86<49.3073 594.385> 238 104<-156.458 -73.2479> 552 103<179.784 425.325>
LayerCount: 2
Fore
SplineSet
281.1 645 m 0
 345.1 645 382.7 648 446.7 648 c 0
 638.7 648 760 494 720.5 308 c 0
 668.2 62 467.6 -2 326.6 -2 c 0
 223.6 -2 215 0 144 0 c 0
 109 0 91.4 -3 91.4 -3 c 1
 91 0 l 1
 110.5 54 127.6 125 143.5 200 c 2
 195.6 445 l 2
 211.5 520 224 588 228.1 645 c 1
 230.7 648 l 1
 230.7 648 247.1 645 281.1 645 c 0
204.4 82 m 2
 197.6 50 206.9 42 304.9 42 c 0
 445.9 42 569.5 82 612.4 284 c 0
 645.1 438 615.4 604 399.4 604 c 0
 350.4 604 314.3 599 306.9 564 c 2
 204.4 82 l 2
214.6 -115 m 0
 220.3 -88 249.4 -64 276.4 -64 c 0
 303.4 -64 322.3 -88 316.6 -115 c 0
 310.9 -142 281.7 -166 254.7 -166 c 0
 227.7 -166 208.9 -142 214.6 -115 c 0
EndSplineSet
LCarets2: 1 0 
Colour: ff00ff
EndChar

StartChar: uni1E0D
Encoding: 7693 7693 142
Width: 514
VWidth: 999
Flags: HW
HStem: -167 104<244.248 327.458> -10 57<184.507 297.415> -3 21<374 383.667 449.5 458> 394 45<189.467 329.898> 678 20<429.466 445.167>
VStem: 40 85<116.128 302.432> 234 104<-156.458 -73.2479> 361 80<87.1288 364.244 417 667.981>
LayerCount: 2
Fore
SplineSet
374.6 64 m 1
 328.7 17.5 263.9 -10 215.9 -10 c 0
 107.9 -10 57 80 83.1 203 c 0
 112 339 240.1 439 370.3 439 c 0
 390.3 439 429.4 430 449.6 417 c 1
 463.5 482 l 2
 479.7 558 492 627.3 493.4 670 c 1
 496.1 673 l 1
 537.2 676 563.2 688 590.4 698 c 1
 596.7 698 598.7 695 597.2 688 c 0
 576.5 626.7 563 574 547.3 500 c 2
 481.8 192 l 2
 465.9 117 459.1 43 458 0 c 1
 455.4 -3 l 1
 442.8 -1 424.1 0 411.5 0 c 0
 397 0 390.1 -1.3 376.4 -3 c 0
 370.4 -3 367.6 -2 368 0 c 2
 376.6 64 l 1
 374.6 64 l 1
384.2 109 m 1
 432.2 335 l 1
 416.3 373 396.7 394 349.7 394 c 0
 301.3 394 203.9 371 172 221 c 0
 145.4 96 200 47 254 47 c 0
 294.5 47 337.8 62.5 384.2 109 c 1
210.6 -115 m 0
 216.3 -88 245.4 -64 272.4 -64 c 0
 299.4 -64 318.3 -88 312.6 -115 c 0
 306.9 -142 277.7 -166 250.7 -166 c 0
 223.7 -166 204.9 -142 210.6 -115 c 0
EndSplineSet
LCarets2: 1 0 
Colour: ff00ff
EndChar

StartChar: uni1E0E
Encoding: 7694 7694 143
Width: 698
VWidth: 999
Flags: HW
HStem: -105 44<144 155 155 422> -2 44<168.546 432.266> 604 44<169.401 389.698>
VStem: 101 86<49.3073 594.385> 552 103<179.784 425.325>
LayerCount: 2
Fore
SplineSet
281.1 645 m 0
 345.1 645 382.7 648 446.7 648 c 0
 638.7 648 760 494 720.5 308 c 0
 668.2 62 467.6 -2 326.6 -2 c 0
 223.6 -2 215 0 144 0 c 0
 109 0 91.4 -3 91.4 -3 c 1
 91 0 l 1
 110.5 54 127.6 125 143.5 200 c 2
 195.6 445 l 2
 211.5 520 224 588 228.1 645 c 1
 230.7 648 l 1
 230.7 648 247.1 645 281.1 645 c 0
204.4 82 m 2
 197.6 50 206.9 42 304.9 42 c 0
 445.9 42 569.5 82 612.4 284 c 0
 645.1 438 615.4 604 399.4 604 c 0
 350.4 604 314.3 599 306.9 564 c 2
 204.4 82 l 2
377.7 -105 m 2
 132.7 -105 l 2
 124.7 -105 122.4 -97 123.9 -90 c 0
 126.5 -78 140 -61 152 -61 c 2
 397 -61 l 2
 406 -61 408.6 -68 407.1 -75 c 0
 404.5 -87 390.7 -105 377.7 -105 c 2
EndSplineSet
LCarets2: 1 0 
Colour: ff00ff
EndChar

